<?xml version="1.0" encoding="UTF-8" standalone="no"?>
<svg width="144px" height="38px" viewBox="0 0 144 38" version="1.1" xmlns="http://www.w3.org/2000/svg" xmlns:xlink="http://www.w3.org/1999/xlink" xmlns:sketch="http://www.bohemiancoding.com/sketch/ns">
    <!-- Generator: Sketch 3.5.2 (25235) - http://www.bohemiancoding.com/sketch -->
    <title>CF-full-neg</title>
    <desc>Created with Sketch.</desc>
    <defs></defs>
    <g id="Page-1" stroke="none" stroke-width="1" fill="none" fill-rule="evenodd" sketch:type="MSPage">
        <g id="1-7" sketch:type="MSArtboardGroup" transform="translate(-570.000000, -3257.000000)">
            <g id="CF-full-neg" sketch:type="MSLayerGroup" transform="translate(570.000000, 3257.000000)">
                <path d="M72.8534369,14.7313075 C72.8534369,14.7313075 72.7489388,14.8569975 72.5406734,15.0659937 C71.3911944,16.1518969 69.8032619,16.7167712 68.2365213,16.7167712 C65.2689218,16.7167712 62.8450046,14.2921232 62.8450046,11.3252544 L62.8450046,5.39078603 C62.8450046,2.42318645 65.2689218,0 68.2365213,0 C69.8032619,0 71.8508399,0.689102783 72.8534369,1.98546369 C72.9586658,2.13161486 73.0003188,2.25657412 73.0003188,2.38226413 C73.0003188,2.73741148 72.6860938,3.02971382 72.3521384,3.02971382 C72.1855261,3.02971382 72.018183,2.9456769 71.8932237,2.77906456 C71.8932237,2.77906456 71.808456,2.69502764 71.6834968,2.56933763 C70.7642059,1.69243059 69.4890369,1.25397707 68.2365213,1.25397707 C65.9580246,1.25397707 64.0989816,3.11375075 64.0989816,5.39078603 L64.0989816,11.3252544 C64.0989816,13.6030205 65.9580246,15.4627941 68.2365213,15.4627941 C69.4685757,15.4627941 71.0565082,14.9403037 71.8932237,13.9369759 C72.018183,13.7703636 72.1855261,13.7075186 72.3521384,13.7075186 C72.7080165,13.7075186 73.0419719,13.9998209 73.0419719,14.3345071 C73.0419719,14.4594663 72.9791269,14.6056175 72.8534369,14.7313075 Z M76.3823301,6.01784764 C77.0926248,5.24397718 78.0959526,4.70102557 79.2030477,4.70102557 C81.4596218,4.70102557 83.2784732,6.51987692 83.2784732,8.77572028 L83.2784732,15.8808596 C83.2784732,16.2981212 82.9642482,16.5071174 82.6514847,16.5071174 C82.3372596,16.5071174 82.0244961,16.2981212 82.0244961,15.8808596 L82.0244961,8.77572028 C82.0244961,7.2089797 80.7705191,5.95500264 79.2030477,5.95500264 C77.6363071,5.95500264 76.3823301,7.2089797 76.3823301,8.77572028 L76.3823301,15.8808596 C76.3823301,16.2981212 76.0688358,16.5071174 75.7553415,16.5071174 C75.442578,16.5071174 75.128353,16.2981212 75.128353,15.8808596 L75.128353,0.835327032 C75.128353,0.417334676 75.442578,0.209069254 75.7553415,0.209069254 C76.0688358,0.209069254 76.3823301,0.417334676 76.3823301,0.835327032 L76.3823301,6.01784764 Z M91.6967808,10.5315805 L89.0010224,11.1161852 C87.5592411,11.4296794 86.6187583,12.2656642 86.6187583,13.3311062 C86.6187583,14.6267364 87.6220861,15.4627211 89.1471736,15.4627211 C90.6101468,15.4627211 91.6967808,14.4805852 91.6967808,13.12211 L91.6967808,10.5315805 Z M89.1683655,16.7166981 C87.1829018,16.7166981 85.3655119,15.5460272 85.3655119,13.3522981 C85.3655119,11.2623363 87.1200568,10.2392781 89.0222143,9.84174694 L91.6967808,9.27760341 L91.6967808,8.29473677 C91.6967808,6.89533929 90.9024492,5.95485648 89.2100186,5.95485648 C88.4164177,5.95485648 87.8939272,6.20550575 87.454743,6.54019193 C87.0367506,6.87414737 86.9322525,7.20883355 86.493799,7.20883355 C86.1803047,7.20883355 85.8880024,6.95745353 85.8880024,6.60303694 C85.8880024,6.3735796 86.0341536,6.16385266 86.1803047,5.99724032 C86.9322525,5.14006369 88.0605396,4.70087942 89.2100186,4.70087942 C91.5710908,4.70087942 92.9507578,6.20550575 92.9507578,8.29473677 L92.9507578,13.12211 C92.9507578,15.2741861 91.1947515,16.7166981 89.1683655,16.7166981 Z M97.4614946,16.7166251 C97.3986496,16.7166251 97.2941515,16.7166251 97.2108453,16.6742412 C97.2108453,16.6742412 97.0851553,16.6333189 96.8761591,16.4871677 C95.7902559,15.7966034 95.3510716,14.4805121 95.3510716,13.2272658 L95.3510716,0.835838561 C95.3510716,0.417115449 95.6645659,0.208850027 95.9780602,0.208850027 C96.2908237,0.208850027 96.6050487,0.417115449 96.6050487,0.835838561 L96.6050487,13.2272658 C96.6050487,13.9996747 96.855698,15.1491537 97.6704908,15.5050318 C97.9423319,15.6299911 98.0672912,15.8594484 98.0672912,16.0896365 C98.0672912,16.4031308 97.8166419,16.7166251 97.4614946,16.7166251 Z M101.63908,16.7166251 C101.576235,16.7166251 101.471737,16.7166251 101.38843,16.6742412 C101.38843,16.6742412 101.26274,16.6333189 101.053744,16.4871677 C99.9678411,15.7966034 99.5286568,14.4805121 99.5286568,13.2272658 L99.5286568,0.835838561 C99.5286568,0.417115449 99.842151,0.208850027 100.155645,0.208850027 C100.468409,0.208850027 100.782634,0.417115449 100.782634,0.835838561 L100.782634,13.2272658 C100.782634,13.9996747 101.033283,15.1491537 101.848076,15.5050318 C102.119917,15.6299911 102.244876,15.8594484 102.244876,16.0896365 C102.244876,16.4031308 101.994227,16.7166251 101.63908,16.7166251 Z M110.498033,8.77601258 C110.498033,7.20854125 109.244056,5.95529494 107.677315,5.95529494 C106.109844,5.95529494 104.855867,7.20854125 104.855867,8.77601258 L104.855867,9.6119973 L110.498033,9.6119973 L110.498033,8.77601258 Z M111.125022,10.8652436 L104.855867,10.8652436 L104.855867,12.6417111 C104.855867,14.1463375 106.277187,15.4624288 107.886312,15.4624288 C108.680643,15.4624288 109.641587,15.2329714 110.247384,14.459101 C110.393535,14.2720275 110.602531,14.1879905 110.769874,14.1879905 C111.10383,14.1879905 111.417324,14.459101 111.417324,14.7937871 C111.417324,14.9194772 111.375671,15.0656283 111.292365,15.1905876 C110.498033,16.2355685 109.16075,16.7164058 107.886312,16.7164058 C105.691852,16.7164058 103.60189,14.9406691 103.60189,12.6417111 L103.60189,8.77601258 C103.60189,6.51943847 105.420741,4.70131787 107.677315,4.70131787 C109.93462,4.70131787 111.75201,6.51943847 111.75201,8.77601258 L111.75201,10.2389858 C111.75201,10.5729413 111.458977,10.8652436 111.125022,10.8652436 Z M121.570738,16.5074827 C121.257244,16.5074827 120.944481,16.2984866 120.944481,15.881225 L120.944481,8.77608566 C120.944481,7.20861433 119.690503,5.95536801 118.123032,5.95536801 C116.555561,5.95536801 115.302314,7.20861433 115.302314,8.77608566 L115.302314,15.881225 C115.302314,16.2984866 114.988089,16.5074827 114.674595,16.5074827 C114.361832,16.5074827 114.048337,16.2984866 114.048337,15.881225 L114.048337,8.77608566 C114.048337,6.51951154 115.865727,4.70139095 118.123032,4.70139095 C120.379606,4.70139095 122.196996,6.51951154 122.196996,8.77608566 L122.196996,15.881225 C122.196996,16.2984866 121.884233,16.5074827 121.570738,16.5074827 Z M131.493745,8.77601258 C131.493745,7.20854125 130.239768,5.95529494 128.673028,5.95529494 C127.105556,5.95529494 125.851579,7.20854125 125.851579,8.77601258 L125.851579,12.2237188 C125.851579,13.7904593 127.105556,15.0444364 128.673028,15.0444364 C130.239768,15.0444364 131.493745,13.7904593 131.493745,12.2237188 L131.493745,8.77601258 Z M131.493745,14.9815914 C130.783451,15.7554619 129.780123,16.2984135 128.673028,16.2984135 C126.416454,16.2984135 124.597602,14.4810236 124.597602,12.2237188 L124.597602,8.77601258 C124.597602,6.51943847 126.416454,4.70131787 128.673028,4.70131787 C130.929602,4.70131787 132.747722,6.51943847 132.747722,8.77601258 L132.747722,16.6119077 C132.747722,18.8692126 130.929602,20.6866025 128.673028,20.6866025 C127.523549,20.6866025 125.956808,20.1845732 125.266975,19.161515 C125.182938,19.035825 125.162476,18.9101349 125.162476,18.8063676 C125.162476,18.4504895 125.475971,18.1793791 125.810657,18.1793791 C125.977269,18.1793791 126.165074,18.2414933 126.311225,18.4504895 C126.311225,18.4504895 126.333147,18.4928733 126.416454,18.5761795 C126.979866,19.1819761 127.857504,19.4326254 128.673028,19.4326254 C130.239768,19.4326254 131.493745,18.1793791 131.493745,16.6119077 L131.493745,14.9815914 Z M142.043302,8.77601258 C142.043302,7.20854125 140.789325,5.95529494 139.222585,5.95529494 C137.655113,5.95529494 136.401136,7.20854125 136.401136,8.77601258 L136.401136,9.6119973 L142.043302,9.6119973 L142.043302,8.77601258 Z M142.670291,10.8652436 L136.401136,10.8652436 L136.401136,12.6417111 C136.401136,14.1463375 137.822456,15.4624288 139.431581,15.4624288 C140.225913,15.4624288 141.186856,15.2329714 141.792653,14.459101 C141.938804,14.2720275 142.1478,14.1879905 142.315144,14.1879905 C142.649099,14.1879905 142.962593,14.459101 142.962593,14.7937871 C142.962593,14.9194772 142.92094,15.0656283 142.837634,15.1905876 C142.043302,16.2355685 140.706019,16.7164058 139.431581,16.7164058 C137.237121,16.7164058 135.147159,14.9406691 135.147159,12.6417111 L135.147159,8.77601258 C135.147159,6.51943847 136.966011,4.70131787 139.222585,4.70131787 C141.47989,4.70131787 143.297279,6.51943847 143.297279,8.77601258 L143.297279,10.2389858 C143.297279,10.5729413 143.004246,10.8652436 142.670291,10.8652436 Z M71.7258806,22.3527989 L64.516974,22.3527989 L64.516974,28.2456142 L71.0988921,28.2456142 C71.5161537,28.2456142 71.7258806,28.5591085 71.7258806,28.8726028 C71.7258806,29.186097 71.5161537,29.4995913 71.0988921,29.4995913 L64.516974,29.4995913 L64.516974,36.7713429 C64.516974,37.1893353 64.202749,37.3983315 63.8892547,37.3983315 C63.5764912,37.3983315 63.2622662,37.1893353 63.2622662,36.7713429 L63.2622662,21.7265411 C63.2622662,21.3925857 63.5545685,21.0995526 63.8892547,21.0995526 L71.7258806,21.0995526 C72.1431422,21.0995526 72.3521384,21.4130469 72.3521384,21.7265411 C72.3521384,22.0393046 72.1431422,22.3527989 71.7258806,22.3527989 Z M78.3048757,37.6073276 C76.0475708,37.6073276 74.230181,35.789207 74.230181,33.5326329 L74.230181,26.4274936 C74.230181,26.010232 74.5436752,25.8012358 74.8571695,25.8012358 C75.1706638,25.8012358 75.484158,26.010232 75.484158,26.4274936 L75.484158,33.5326329 C75.484158,35.0993735 76.7374043,36.3533506 78.3048757,36.3533506 C79.872347,36.3533506 81.1255933,35.0993735 81.1255933,33.5326329 L81.1255933,26.4274936 C81.1255933,26.010232 81.4390876,25.8012358 81.7525819,25.8012358 C82.0660761,25.8012358 82.3795704,26.010232 82.3795704,26.4274936 L82.3795704,33.5326329 C82.3795704,35.789207 80.5621806,37.6073276 78.3048757,37.6073276 Z M92.4068563,37.3982584 C92.093362,37.3982584 91.7805985,37.1892622 91.7805985,36.7720006 L91.7805985,29.6668613 C91.7805985,28.09939 90.5266214,26.8461437 88.9591501,26.8461437 C87.3924095,26.8461437 86.1384324,28.09939 86.1384324,29.6668613 L86.1384324,36.7720006 C86.1384324,37.1892622 85.8249382,37.3982584 85.5114439,37.3982584 C85.1979496,37.3982584 84.8844554,37.1892622 84.8844554,36.7720006 L84.8844554,29.6668613 C84.8844554,27.4102872 86.702576,25.5921666 88.9591501,25.5921666 C91.2157242,25.5921666 93.0338448,27.4102872 93.0338448,29.6668613 L93.0338448,36.7720006 C93.0338448,37.1892622 92.7210813,37.3982584 92.4068563,37.3982584 Z M102.329863,29.6667882 C102.329863,28.0993169 101.075886,26.8460706 99.5091456,26.8460706 C97.9416743,26.8460706 96.6876972,28.0993169 96.6876972,29.6667882 L96.6876972,33.5324868 C96.6876972,35.0999581 97.9416743,36.3532044 99.5091456,36.3532044 C101.075886,36.3532044 102.329863,35.0999581 102.329863,33.5324868 L102.329863,29.6667882 Z M102.329863,21.726395 C102.329863,21.3084026 102.643358,21.0994065 102.956852,21.0994065 C103.270346,21.0994065 103.58384,21.3084026 103.58384,21.726395 L103.58384,33.5324868 C103.58384,35.7890609 101.76645,37.6071815 99.5091456,37.6071815 C97.2525715,37.6071815 95.4337201,35.7890609 95.4337201,33.5324868 L95.4337201,29.6667882 C95.4337201,27.4102141 97.2525715,25.5920935 99.5091456,25.5920935 C100.616241,25.5920935 101.619569,26.1350451 102.329863,26.9089156 L102.329863,21.726395 Z" id="Fill-1" fill="#FFFFFF" sketch:type="MSShapeGroup"></path>
                <path d="M42.6162207,2.15061452 L29.0051619,2.13965318 C28.4293262,2.13892242 27.9623733,2.60587542 27.9623733,3.18171104 L27.9623733,21.332956 L38.9383264,21.332956 C39.5733532,21.332956 39.9146162,21.8211009 39.9146162,22.3092459 C39.9146162,22.7973908 39.5733532,23.2855357 38.9383264,23.2855357 L27.9623733,23.2855357 L27.9623733,34.3002189 C27.9623733,36.2133377 26.4109785,37.7647325 24.4978597,37.7647325 L12.0070497,37.7647325 C5.37617091,37.7647325 0,32.3885615 0,25.7576828 L0,12.0070497 C0,5.37397865 5.37397865,0 12.0070497,0 C15.4934859,0 20.0928633,1.54920244 22.3684371,4.45395701 C22.5138575,4.64760731 22.6103173,4.84125762 22.6103173,5.03490792 C22.6103173,5.56762895 22.0775963,6.00315945 21.5938359,6.00315945 C21.302995,6.00315945 21.0611148,5.85846979 20.8192347,5.61585884 C20.8192347,5.61585884 20.6738142,5.42220853 20.3347435,5.08386857 C18.0993613,2.99390679 15.0345712,1.92846473 11.9727041,1.93650305 C6.40069064,1.95111816 1.93650305,6.58264885 1.93650305,12.1553931 L1.93650305,25.7576828 C1.93650305,31.3194657 6.44526675,35.8282294 12.0070497,35.8282294 L24.4605911,35.8282294 C25.3163063,35.8282294 26.0097936,35.1347421 26.0097936,34.279027 L26.0097936,2.6277981 C26.0097936,1.27955352 27.1030044,0.186342746 28.4519797,0.186342746 L42.6169514,0.186342746 C43.1591723,0.186342746 43.5990873,0.625527022 43.5990873,1.16847863 L43.5990873,1.16847863 C43.5990873,1.71143024 43.1591723,2.15134527 42.6162207,2.15061452" id="Fill-28" fill="#814CC7" sketch:type="MSShapeGroup"></path>
            </g>
        </g>
    </g>
</svg>