<?xml version="1.0" encoding="UTF-8" standalone="no"?>
<svg width="67px" height="59px" viewBox="0 0 67 59" version="1.1" xmlns="http://www.w3.org/2000/svg" xmlns:xlink="http://www.w3.org/1999/xlink" xmlns:sketch="http://www.bohemiancoding.com/sketch/ns">
    <!-- Generator: Sketch 3.5.2 (25235) - http://www.bohemiancoding.com/sketch -->
    <title>CF-symbol-white</title>
    <desc>Created with Sketch.</desc>
    <defs></defs>
    <g id="Page-1" stroke="none" stroke-width="1" fill="none" fill-rule="evenodd" sketch:type="MSPage">
        <g id="1-7" sketch:type="MSArtboardGroup" transform="translate(-847.000000, -3504.000000)" fill="#FFFFFF">
            <path d="M912.4896,3507.30491 L891.573085,3507.28807 C890.688182,3507.28695 889.970602,3508.00453 889.970602,3508.88943 L889.970602,3536.78298 L906.837672,3536.78298 C907.813536,3536.78298 908.337965,3537.53313 908.337965,3538.28327 C908.337965,3539.03342 907.813536,3539.78357 906.837672,3539.78357 L889.970602,3539.78357 L889.970602,3556.71016 C889.970602,3559.6501 887.586528,3562.03418 884.646582,3562.03418 L865.451586,3562.03418 C855.26172,3562.03418 847,3553.77246 847,3543.58259 L847,3522.45159 C847,3512.25835 855.258351,3504 865.451586,3504 C870.809296,3504 877.877294,3506.3807 881.374235,3510.84453 C881.597707,3511.14211 881.74594,3511.4397 881.74594,3511.73729 C881.74594,3512.55594 880.927292,3513.22523 880.183883,3513.22523 C879.736939,3513.22523 879.365235,3513.00288 878.99353,3512.63006 C878.99353,3512.63006 878.770058,3512.33247 878.248999,3511.81253 C874.813821,3508.60082 870.104068,3506.96353 865.398807,3506.97588 C856.83613,3506.99834 849.975881,3514.11575 849.975881,3522.67955 L849.975881,3543.58259 C849.975881,3552.12954 856.904631,3559.05829 865.451586,3559.05829 L884.58931,3559.05829 C885.904313,3559.05829 886.970015,3557.99259 886.970015,3556.67759 L886.970015,3508.03821 C886.970015,3505.96633 888.649984,3504.28636 890.722994,3504.28636 L912.490723,3504.28636 C913.32397,3504.28636 914,3504.96127 914,3505.79564 L914,3505.79564 C914,3506.63001 913.32397,3507.30604 912.4896,3507.30491" id="CF-symbol-white" sketch:type="MSShapeGroup"></path>
        </g>
    </g>
</svg>