<?xml version="1.0" encoding="UTF-8" standalone="no"?>
<svg width="67px" height="59px" viewBox="0 0 67 59" version="1.1" xmlns="http://www.w3.org/2000/svg" xmlns:xlink="http://www.w3.org/1999/xlink" xmlns:sketch="http://www.bohemiancoding.com/sketch/ns">
    <!-- Generator: Sketch 3.5.2 (25235) - http://www.bohemiancoding.com/sketch -->
    <title>CF-symbol-color</title>
    <desc>Created with Sketch.</desc>
    <defs></defs>
    <g id="Page-1" stroke="none" stroke-width="1" fill="none" fill-rule="evenodd" sketch:type="MSPage">
        <g id="1-7" sketch:type="MSArtboardGroup" transform="translate(-368.000000, -3504.000000)" fill="#814CC7">
            <path d="M433.4896,3507.30491 L412.573085,3507.28807 C411.688182,3507.28695 410.970602,3508.00453 410.970602,3508.88943 L410.970602,3536.78298 L427.837672,3536.78298 C428.813536,3536.78298 429.337965,3537.53313 429.337965,3538.28327 C429.337965,3539.03342 428.813536,3539.78357 427.837672,3539.78357 L410.970602,3539.78357 L410.970602,3556.71016 C410.970602,3559.6501 408.586528,3562.03418 405.646582,3562.03418 L386.451586,3562.03418 C376.26172,3562.03418 368,3553.77246 368,3543.58259 L368,3522.45159 C368,3512.25835 376.258351,3504 386.451586,3504 C391.809296,3504 398.877294,3506.3807 402.374235,3510.84453 C402.597707,3511.14211 402.74594,3511.4397 402.74594,3511.73729 C402.74594,3512.55594 401.927292,3513.22523 401.183883,3513.22523 C400.736939,3513.22523 400.365235,3513.00288 399.99353,3512.63006 C399.99353,3512.63006 399.770058,3512.33247 399.248999,3511.81253 C395.813821,3508.60082 391.104068,3506.96353 386.398807,3506.97588 C377.83613,3506.99834 370.975881,3514.11575 370.975881,3522.67955 L370.975881,3543.58259 C370.975881,3552.12954 377.904631,3559.05829 386.451586,3559.05829 L405.58931,3559.05829 C406.904313,3559.05829 407.970015,3557.99259 407.970015,3556.67759 L407.970015,3508.03821 C407.970015,3505.96633 409.649984,3504.28636 411.722994,3504.28636 L433.490723,3504.28636 C434.32397,3504.28636 435,3504.96127 435,3505.79564 L435,3505.79564 C435,3506.63001 434.32397,3507.30604 433.4896,3507.30491" id="CF-symbol-color" sketch:type="MSShapeGroup"></path>
        </g>
    </g>
</svg>