<?xml version="1.0" encoding="UTF-8" standalone="no"?>
<svg width="67px" height="59px" viewBox="0 0 67 59" version="1.1" xmlns="http://www.w3.org/2000/svg" xmlns:xlink="http://www.w3.org/1999/xlink" xmlns:sketch="http://www.bohemiancoding.com/sketch/ns">
    <!-- Generator: Sketch 3.5.2 (25235) - http://www.bohemiancoding.com/sketch -->
    <title>CF-symbol-black</title>
    <desc>Created with Sketch.</desc>
    <defs></defs>
    <g id="Page-1" stroke="none" stroke-width="1" fill="none" fill-rule="evenodd" sketch:type="MSPage">
        <g id="1-7" sketch:type="MSArtboardGroup" transform="translate(-608.000000, -3504.000000)" fill="#222222">
            <path d="M673.4896,3507.30491 L652.573085,3507.28807 C651.688182,3507.28695 650.970602,3508.00453 650.970602,3508.88943 L650.970602,3536.78298 L667.837672,3536.78298 C668.813536,3536.78298 669.337965,3537.53313 669.337965,3538.28327 C669.337965,3539.03342 668.813536,3539.78357 667.837672,3539.78357 L650.970602,3539.78357 L650.970602,3556.71016 C650.970602,3559.6501 648.586528,3562.03418 645.646582,3562.03418 L626.451586,3562.03418 C616.26172,3562.03418 608,3553.77246 608,3543.58259 L608,3522.45159 C608,3512.25835 616.258351,3504 626.451586,3504 C631.809296,3504 638.877294,3506.3807 642.374235,3510.84453 C642.597707,3511.14211 642.74594,3511.4397 642.74594,3511.73729 C642.74594,3512.55594 641.927292,3513.22523 641.183883,3513.22523 C640.736939,3513.22523 640.365235,3513.00288 639.99353,3512.63006 C639.99353,3512.63006 639.770058,3512.33247 639.248999,3511.81253 C635.813821,3508.60082 631.104068,3506.96353 626.398807,3506.97588 C617.83613,3506.99834 610.975881,3514.11575 610.975881,3522.67955 L610.975881,3543.58259 C610.975881,3552.12954 617.904631,3559.05829 626.451586,3559.05829 L645.58931,3559.05829 C646.904313,3559.05829 647.970015,3557.99259 647.970015,3556.67759 L647.970015,3508.03821 C647.970015,3505.96633 649.649984,3504.28636 651.722994,3504.28636 L673.490723,3504.28636 C674.32397,3504.28636 675,3504.96127 675,3505.79564 L675,3505.79564 C675,3506.63001 674.32397,3507.30604 673.4896,3507.30491" id="CF-symbol-black" sketch:type="MSShapeGroup"></path>
        </g>
    </g>
</svg>