<?xml version="1.0" encoding="UTF-8" standalone="no"?>
<svg width="81px" height="60px" viewBox="0 0 81 60" version="1.1" xmlns="http://www.w3.org/2000/svg" xmlns:xlink="http://www.w3.org/1999/xlink" xmlns:sketch="http://www.bohemiancoding.com/sketch/ns">
    <!-- Generator: Sketch 3.5.2 (25235) - http://www.bohemiancoding.com/sketch -->
    <title>CfR-symbol-color</title>
    <desc>Created with Sketch.</desc>
    <defs></defs>
    <g id="Page-1" stroke="none" stroke-width="1" fill="none" fill-rule="evenodd" sketch:type="MSPage">
        <g id="1-7" sketch:type="MSArtboardGroup" transform="translate(-361.000000, -1793.000000)" fill="#32B000">
            <path d="M441.768069,1849.29532 L428.863321,1829.09102 C436.359386,1826.78656 441.922309,1819.79549 441.922309,1811.57507 C441.922309,1801.43407 433.653901,1793.29134 423.453495,1793.29134 L416.605239,1793.29134 C408.353969,1793.29134 401.665665,1799.97965 401.665665,1808.22977 L401.665665,1826.35355 L397.604012,1826.35355 C396.760833,1826.35355 396.077607,1827.03677 396.077607,1827.87995 C396.077607,1828.72313 396.760833,1829.40636 397.604012,1829.40636 L401.665665,1829.40636 L401.665665,1830.13757 C401.665665,1840.56419 393.213312,1849.01655 382.786688,1849.01655 L379.773866,1849.01655 C371.077014,1849.01655 364.027674,1841.96721 364.027674,1833.2715 L364.027674,1812.00465 C364.027674,1803.29295 371.007321,1796.05052 379.719025,1796.02767 C384.506178,1796.01511 389.297901,1797.6809 392.794008,1800.9485 C393.322994,1801.47749 393.550355,1801.7814 393.550355,1801.7814 C393.928529,1802.15957 394.306703,1802.38693 394.761425,1802.38693 C395.518915,1802.38693 396.351811,1801.70485 396.351811,1800.87195 C396.351811,1800.56919 396.199856,1800.26642 395.972495,1799.96365 C392.414692,1795.42214 385.22368,1793 379.773866,1793 C369.403224,1793 361,1801.40208 361,1811.77272 L361,1833.2715 C361,1843.63985 369.405509,1852.04422 379.773866,1852.04422 L382.825533,1852.04422 C394.916808,1852.04422 404.718475,1842.24255 404.718475,1830.15128 L404.718475,1829.40636 L413.882617,1829.40636 C414.874323,1829.40636 415.409022,1828.64315 415.409022,1827.87995 C415.409022,1827.11675 414.874323,1826.35355 413.882617,1826.35355 L404.718475,1826.35355 L404.718475,1808.17493 C404.718475,1801.64201 410.016334,1796.34872 416.549255,1796.35329 L423.453495,1796.36357 C431.953834,1796.36357 438.831796,1803.125 438.831796,1811.57507 C438.831796,1818.45074 434.277717,1824.25817 428.000719,1826.18331 C427.189531,1826.43124 426.445752,1826.92595 426.053868,1827.67887 C425.542019,1828.66258 425.620853,1829.78681 426.173832,1830.65513 L439.140276,1850.9851 C439.449898,1851.52323 439.913761,1851.67633 440.376481,1851.67633 C441.227657,1851.67633 442,1850.9851 442,1850.14078 C442,1849.90999 441.922309,1849.60266 441.768069,1849.29532" id="CfR-symbol-color" sketch:type="MSShapeGroup"></path>
        </g>
    </g>
</svg>