<?xml version="1.0" encoding="UTF-8" standalone="no"?>
<svg width="81px" height="60px" viewBox="0 0 81 60" version="1.1" xmlns="http://www.w3.org/2000/svg" xmlns:xlink="http://www.w3.org/1999/xlink" xmlns:sketch="http://www.bohemiancoding.com/sketch/ns">
    <!-- Generator: Sketch 3.5.2 (25235) - http://www.bohemiancoding.com/sketch -->
    <title>CfR-symbol-white</title>
    <desc>Created with Sketch.</desc>
    <defs></defs>
    <g id="Page-1" stroke="none" stroke-width="1" fill="none" fill-rule="evenodd" sketch:type="MSPage">
        <g id="1-7" sketch:type="MSArtboardGroup" transform="translate(-840.000000, -1793.000000)" fill="#FFFFFF">
            <path d="M920.768069,1849.29532 L907.863321,1829.09102 C915.359386,1826.78656 920.922309,1819.79549 920.922309,1811.57507 C920.922309,1801.43407 912.653901,1793.29134 902.453495,1793.29134 L895.605239,1793.29134 C887.353969,1793.29134 880.665665,1799.97965 880.665665,1808.22977 L880.665665,1826.35355 L876.604012,1826.35355 C875.760833,1826.35355 875.077607,1827.03677 875.077607,1827.87995 C875.077607,1828.72313 875.760833,1829.40636 876.604012,1829.40636 L880.665665,1829.40636 L880.665665,1830.13757 C880.665665,1840.56419 872.213312,1849.01655 861.786688,1849.01655 L858.773866,1849.01655 C850.077014,1849.01655 843.027674,1841.96721 843.027674,1833.2715 L843.027674,1812.00465 C843.027674,1803.29295 850.007321,1796.05052 858.719025,1796.02767 C863.506178,1796.01511 868.297901,1797.6809 871.794008,1800.9485 C872.322994,1801.47749 872.550355,1801.7814 872.550355,1801.7814 C872.928529,1802.15957 873.306703,1802.38693 873.761425,1802.38693 C874.518915,1802.38693 875.351811,1801.70485 875.351811,1800.87195 C875.351811,1800.56919 875.199856,1800.26642 874.972495,1799.96365 C871.414692,1795.42214 864.22368,1793 858.773866,1793 C848.403224,1793 840,1801.40208 840,1811.77272 L840,1833.2715 C840,1843.63985 848.405509,1852.04422 858.773866,1852.04422 L861.825533,1852.04422 C873.916808,1852.04422 883.718475,1842.24255 883.718475,1830.15128 L883.718475,1829.40636 L892.882617,1829.40636 C893.874323,1829.40636 894.409022,1828.64315 894.409022,1827.87995 C894.409022,1827.11675 893.874323,1826.35355 892.882617,1826.35355 L883.718475,1826.35355 L883.718475,1808.17493 C883.718475,1801.64201 889.016334,1796.34872 895.549255,1796.35329 L902.453495,1796.36357 C910.953834,1796.36357 917.831796,1803.125 917.831796,1811.57507 C917.831796,1818.45074 913.277717,1824.25817 907.000719,1826.18331 C906.189531,1826.43124 905.445752,1826.92595 905.053868,1827.67887 C904.542019,1828.66258 904.620853,1829.78681 905.173832,1830.65513 L918.140276,1850.9851 C918.449898,1851.52323 918.913761,1851.67633 919.376481,1851.67633 C920.227657,1851.67633 921,1850.9851 921,1850.14078 C921,1849.90999 920.922309,1849.60266 920.768069,1849.29532" id="CfR-symbol-white" sketch:type="MSShapeGroup"></path>
        </g>
    </g>
</svg>