<?xml version="1.0" encoding="UTF-8" standalone="no"?>
<svg width="81px" height="60px" viewBox="0 0 81 60" version="1.1" xmlns="http://www.w3.org/2000/svg" xmlns:xlink="http://www.w3.org/1999/xlink" xmlns:sketch="http://www.bohemiancoding.com/sketch/ns">
    <!-- Generator: Sketch 3.5.2 (25235) - http://www.bohemiancoding.com/sketch -->
    <title>CfR-symbol-black</title>
    <desc>Created with Sketch.</desc>
    <defs></defs>
    <g id="Page-1" stroke="none" stroke-width="1" fill="none" fill-rule="evenodd" sketch:type="MSPage">
        <g id="1-7" sketch:type="MSArtboardGroup" transform="translate(-601.000000, -1793.000000)" fill="#222222">
            <path d="M681.768069,1849.29532 L668.863321,1829.09102 C676.359386,1826.78656 681.922309,1819.79549 681.922309,1811.57507 C681.922309,1801.43407 673.653901,1793.29134 663.453495,1793.29134 L656.605239,1793.29134 C648.353969,1793.29134 641.665665,1799.97965 641.665665,1808.22977 L641.665665,1826.35355 L637.604012,1826.35355 C636.760833,1826.35355 636.077607,1827.03677 636.077607,1827.87995 C636.077607,1828.72313 636.760833,1829.40636 637.604012,1829.40636 L641.665665,1829.40636 L641.665665,1830.13757 C641.665665,1840.56419 633.213312,1849.01655 622.786688,1849.01655 L619.773866,1849.01655 C611.077014,1849.01655 604.027674,1841.96721 604.027674,1833.2715 L604.027674,1812.00465 C604.027674,1803.29295 611.007321,1796.05052 619.719025,1796.02767 C624.506178,1796.01511 629.297901,1797.6809 632.794008,1800.9485 C633.322994,1801.47749 633.550355,1801.7814 633.550355,1801.7814 C633.928529,1802.15957 634.306703,1802.38693 634.761425,1802.38693 C635.518915,1802.38693 636.351811,1801.70485 636.351811,1800.87195 C636.351811,1800.56919 636.199856,1800.26642 635.972495,1799.96365 C632.414692,1795.42214 625.22368,1793 619.773866,1793 C609.403224,1793 601,1801.40208 601,1811.77272 L601,1833.2715 C601,1843.63985 609.405509,1852.04422 619.773866,1852.04422 L622.825533,1852.04422 C634.916808,1852.04422 644.718475,1842.24255 644.718475,1830.15128 L644.718475,1829.40636 L653.882617,1829.40636 C654.874323,1829.40636 655.409022,1828.64315 655.409022,1827.87995 C655.409022,1827.11675 654.874323,1826.35355 653.882617,1826.35355 L644.718475,1826.35355 L644.718475,1808.17493 C644.718475,1801.64201 650.016334,1796.34872 656.549255,1796.35329 L663.453495,1796.36357 C671.953834,1796.36357 678.831796,1803.125 678.831796,1811.57507 C678.831796,1818.45074 674.277717,1824.25817 668.000719,1826.18331 C667.189531,1826.43124 666.445752,1826.92595 666.053868,1827.67887 C665.542019,1828.66258 665.620853,1829.78681 666.173832,1830.65513 L679.140276,1850.9851 C679.449898,1851.52323 679.913761,1851.67633 680.376481,1851.67633 C681.227657,1851.67633 682,1850.9851 682,1850.14078 C682,1849.90999 681.922309,1849.60266 681.768069,1849.29532" id="CfR-symbol-black" sketch:type="MSShapeGroup"></path>
        </g>
    </g>
</svg>