<?xml version="1.0" encoding="UTF-8" standalone="no"?>
<svg width="161px" height="40px" viewBox="0 0 161 40" version="1.1" xmlns="http://www.w3.org/2000/svg" xmlns:xlink="http://www.w3.org/1999/xlink" xmlns:sketch="http://www.bohemiancoding.com/sketch/ns">
    <!-- Generator: Sketch 3.5.2 (25235) - http://www.bohemiancoding.com/sketch -->
    <title>CfR-full-color</title>
    <desc>Created with Sketch.</desc>
    <defs></defs>
    <g id="Page-1" stroke="none" stroke-width="1" fill="none" fill-rule="evenodd" sketch:type="MSPage">
        <g id="1-7" sketch:type="MSArtboardGroup" transform="translate(-321.000000, -1546.000000)">
            <g id="CfR-full-color" sketch:type="MSLayerGroup" transform="translate(321.000000, 1546.000000)">
                <path d="M85.1492899,15.5069614 C85.1492899,15.5069614 85.0392918,15.6392668 84.8192956,15.8592629 C83.6100859,17.00232 81.9378072,17.5969251 80.2886051,17.5969251 C77.1648132,17.5969251 74.6140883,15.0446617 74.6140883,11.921639 L74.6140883,5.67482449 C74.6140883,2.5510326 77.1648132,0.000307686962 80.2886051,0.000307686962 C81.9378072,0.000307686962 84.0939236,0.7256797 85.1492899,2.09027138 C85.2600572,2.24411486 85.3031334,2.37565104 85.3031334,2.50795643 C85.3031334,2.88179609 84.9731391,3.18948305 84.6216068,3.18948305 C84.445456,3.18948305 84.2693052,3.10102305 84.137769,2.92564148 C84.137769,2.92564148 84.049309,2.83718148 83.9177728,2.70487608 C82.9500974,1.7818152 81.607813,1.32028475 80.2886051,1.32028475 C77.8909545,1.32028475 75.9340654,3.27794305 75.9340654,5.67482449 L75.9340654,11.921639 C75.9340654,14.3192897 77.8909545,16.276948 80.2886051,16.276948 C81.5862749,16.276948 83.2577843,15.7269575 84.137769,14.670822 C84.2693052,14.4954405 84.445456,14.4292878 84.6216068,14.4292878 C84.9954464,14.4292878 85.347748,14.7369747 85.347748,15.0892763 C85.347748,15.2208125 85.2815953,15.374656 85.1492899,15.5069614 Z M94.6924318,9.23830104 C94.6924318,7.5883297 93.3724547,6.26912185 91.7232526,6.26912185 C90.0732813,6.26912185 88.7533042,7.5883297 88.7533042,9.23830104 L88.7533042,13.3074611 C88.7533042,14.9574324 90.0732813,16.2766403 91.7232526,16.2766403 C93.3724547,16.2766403 94.6924318,14.9574324 94.6924318,13.3074611 L94.6924318,9.23830104 Z M91.7232526,17.5966174 C89.3479093,17.5966174 87.4340964,15.6828045 87.4340964,13.3074611 L87.4340964,9.23830104 C87.4340964,6.86295769 89.3479093,4.94914479 91.7232526,4.94914479 C94.0993652,4.94914479 96.0124089,6.86295769 96.0124089,9.23830104 L96.0124089,13.3074611 C96.0124089,15.6828045 94.0993652,17.5966174 91.7232526,17.5966174 Z M105.688318,9.23830104 C105.688318,7.5883297 104.368341,6.26912185 102.719139,6.26912185 C101.069167,6.26912185 99.7491901,7.5883297 99.7491901,9.23830104 L99.7491901,13.3074611 C99.7491901,14.9574324 101.069167,16.2766403 102.719139,16.2766403 C104.368341,16.2766403 105.688318,14.9574324 105.688318,13.3074611 L105.688318,9.23830104 Z M105.688318,0.879984712 C105.688318,0.439992356 106.018312,0.219996178 106.347537,0.219996178 C106.677531,0.219996178 107.007526,0.439992356 107.007526,0.879984712 L107.007526,13.3074611 C107.007526,15.6828045 105.094482,17.5966174 102.719139,17.5966174 C100.343026,17.5966174 98.429213,15.6828045 98.429213,13.3074611 L98.429213,9.23830104 C98.429213,6.86295769 100.343026,4.94914479 102.719139,4.94914479 C103.884503,4.94914479 104.939869,5.52067332 105.688318,6.33527455 L105.688318,0.879984712 Z M116.793125,9.23830104 C116.793125,7.5883297 115.473148,6.26912185 113.823946,6.26912185 C112.173974,6.26912185 110.853997,7.5883297 110.853997,9.23830104 L110.853997,10.1182858 L116.793125,10.1182858 L116.793125,9.23830104 Z M117.453113,11.4374936 L110.853997,11.4374936 L110.853997,13.3074611 C110.853997,14.8912798 112.350125,16.2766403 114.043942,16.2766403 C114.880081,16.2766403 115.891602,16.035106 116.529283,15.2205048 C116.683127,15.0235851 116.903123,14.9351251 117.079274,14.9351251 C117.430806,14.9351251 117.7608,15.2205048 117.7608,15.5728064 C117.7608,15.7051118 117.716955,15.8589552 117.629264,15.9904914 C116.793125,17.0904723 115.385457,17.5966174 114.043942,17.5966174 C111.733982,17.5966174 109.53402,15.7274191 109.53402,13.3074611 L109.53402,9.23830104 C109.53402,6.86295769 111.448602,4.94914479 113.823946,4.94914479 C116.200058,4.94914479 118.113102,6.86295769 118.113102,9.23830104 L118.113102,10.7782743 C118.113102,11.1298066 117.804646,11.4374936 117.453113,11.4374936 Z M131.702712,1.80381482 C131.306565,1.80381482 130.954263,1.31997707 130.052741,1.31997707 C128.776609,1.31997707 128.029699,2.13380908 128.029699,3.10148458 L128.029699,5.16914096 L131.328872,5.16914096 C131.768865,5.16914096 131.988092,5.49913523 131.988092,5.82836028 C131.988092,6.15912377 131.768865,6.48911803 131.328872,6.48911803 L128.029699,6.48911803 L128.029699,16.7174019 C128.029699,17.156625 127.698935,17.3766212 127.368941,17.3766212 C127.039716,17.3766212 126.709722,17.156625 126.709722,16.7174019 L126.709722,6.48911803 L124.707449,6.48911803 C124.268226,6.48911803 124.048229,6.15912377 124.048229,5.82836028 C124.048229,5.49913523 124.268226,5.16914096 124.707449,5.16914096 L126.709722,5.16914096 L126.709722,3.10148458 C126.709722,1.34151516 128.11739,0 130.052741,0 C130.80042,0 131.504254,0.219996178 132.010399,0.528452358 C132.230395,0.682295839 132.361931,0.901522799 132.361931,1.09998089 C132.361931,1.45151324 132.075782,1.80381482 131.702712,1.80381482 Z M140.388715,9.23830104 C140.388715,7.5883297 139.068738,6.26912185 137.419536,6.26912185 C135.769564,6.26912185 134.449587,7.5883297 134.449587,9.23830104 L134.449587,13.3074611 C134.449587,14.9574324 135.769564,16.2766403 137.419536,16.2766403 C139.068738,16.2766403 140.388715,14.9574324 140.388715,13.3074611 L140.388715,9.23830104 Z M137.419536,17.5966174 C135.044192,17.5966174 133.12961,15.6828045 133.12961,13.3074611 L133.12961,9.23830104 C133.12961,6.86295769 135.044192,4.94914479 137.419536,4.94914479 C139.794879,4.94914479 141.708692,6.86295769 141.708692,9.23830104 L141.708692,13.3074611 C141.708692,15.6828045 139.794879,17.5966174 137.419536,17.5966174 Z M150.349465,7.14849119 C150.195621,7.14849119 150.041778,7.0823385 149.887165,6.95080232 C149.887165,6.95080232 149.84332,6.90695693 149.777936,6.86311153 C149.315637,6.48927188 148.699494,6.26850648 148.08412,6.26850648 C146.500301,6.26850648 145.554933,7.41310198 145.554933,9.39229836 L145.554933,16.7167865 C145.554933,17.1567789 145.224169,17.376775 144.894175,17.376775 C144.564181,17.376775 144.234956,17.1567789 144.234956,16.7167865 L144.234956,9.39229836 C144.234956,6.95080232 145.531856,4.94929863 148.08412,4.94929863 C148.985642,4.94929863 150.151007,5.34467638 150.811765,6.02697222 C150.965608,6.1808157 151.031761,6.33465918 151.031761,6.48927188 C151.031761,6.84080423 150.723305,7.14849119 150.349465,7.14849119 Z M79.6288474,23.5296681 L76.3735193,23.5296681 L76.3735193,31.822601 L79.6288474,31.822601 C81.8941926,31.822601 83.7856982,30.0187862 83.7856982,27.6872882 C83.7856982,25.3773283 81.9164999,23.5296681 79.6288474,23.5296681 Z M84.4456868,39.3670853 C84.2479979,39.3670853 84.0495398,39.2793945 83.9180036,39.0586291 L80.1342232,33.1202707 C79.9803797,33.1418088 79.8049981,33.1418088 79.6288474,33.1418088 L76.3735193,33.1418088 L76.3735193,38.7070968 C76.3735193,39.1470891 76.043525,39.3670853 75.7135308,39.3670853 C75.3827673,39.3670853 75.0535422,39.1470891 75.0535422,38.7070968 L75.0535422,22.8704488 C75.0535422,22.5189165 75.3612292,22.2104603 75.7135308,22.2104603 L79.6288474,22.2104603 C82.6418719,22.2104603 85.1056753,24.6519563 85.1056753,27.6649809 C85.1056753,30.0410935 83.6103167,32.0418279 81.520353,32.8118146 L85.0179845,38.3547952 C85.1056753,38.4871006 85.1495207,38.5970987 85.1495207,38.7294041 C85.1495207,39.0809364 84.7979883,39.3670853 84.4456868,39.3670853 Z M94.4948199,31.2286113 C94.4948199,29.57864 93.1748428,28.2594321 91.5256407,28.2594321 C89.8756693,28.2594321 88.5556923,29.57864 88.5556923,31.2286113 L88.5556923,32.108596 L94.4948199,32.108596 L94.4948199,31.2286113 Z M95.1540392,33.4278039 L88.5556923,33.4278039 L88.5556923,35.2977714 C88.5556923,36.88159 90.0518201,38.2669506 91.7456369,38.2669506 C92.581007,38.2669506 93.5925278,38.0254163 94.2302091,37.2108151 C94.3840526,37.0138954 94.6048179,36.9254354 94.7809687,36.9254354 C95.1325011,36.9254354 95.4624954,37.2108151 95.4624954,37.5631166 C95.4624954,37.695422 95.41865,37.8492655 95.3309592,37.9808017 C94.4948199,39.0807826 93.087152,39.5869276 91.7456369,39.5869276 C89.435677,39.5869276 87.2357152,37.7177293 87.2357152,35.2977714 L87.2357152,31.2286113 C87.2357152,28.853268 89.1502973,26.9394551 91.5256407,26.9394551 C93.900984,26.9394551 95.8147969,28.853268 95.8147969,31.2286113 L95.8147969,32.7685846 C95.8147969,33.1201169 95.5063407,33.4278039 95.1540392,33.4278039 Z M101.266779,39.5870815 C100.14526,39.5870815 98.6052869,39.0809364 97.9229911,38.0686463 C97.8353003,37.9371101 97.7906857,37.805574 97.7906857,37.6955759 C97.7906857,37.3217362 98.1214492,37.0355873 98.4729815,37.0355873 C98.6714396,37.0355873 98.8468212,37.10174 99.0014339,37.3217362 C99.0014339,37.3217362 99.0452793,37.3648124 99.1106627,37.4309651 C99.6606532,38.0032628 100.475254,38.2671044 101.266779,38.2671044 C102.982134,38.2671044 104.038269,37.2771216 104.038269,36.110988 C104.038269,32.9879654 97.8568384,34.1317916 97.8568384,30.0841696 C97.8568384,27.9957444 99.6829605,26.9396089 101.420623,26.9396089 C102.652909,26.9396089 104.103653,27.5995974 104.785949,28.6765018 C104.852101,28.7872691 104.895947,28.9188053 104.895947,29.0511107 C104.895947,29.4034122 104.544414,29.6887919 104.21442,29.6887919 C104.015962,29.6887919 103.818273,29.6011011 103.66443,29.3803357 C103.66443,29.3803357 103.620584,29.3372595 103.554432,29.2264922 C103.026749,28.6334256 102.256762,28.2588167 101.420623,28.2588167 C100.100646,28.2588167 99.1768154,29.0072653 99.1768154,30.0841696 C99.1768154,32.8118146 105.357477,31.8002937 105.357477,36.110988 C105.357477,38.2455663 103.444434,39.5870815 101.266779,39.5870815 Z M108.215351,39.3670084 C107.885356,39.3670084 107.556131,39.1470122 107.556131,38.7077891 L107.556131,27.8187475 C107.556131,27.3795243 107.885356,27.1595282 108.215351,27.1595282 C108.545345,27.1595282 108.875339,27.3795243 108.875339,27.8187475 L108.875339,38.7077891 C108.875339,39.1470122 108.545345,39.3670084 108.215351,39.3670084 Z M108.215351,22.4742249 C108.699188,22.4742249 109.095335,22.8703719 109.095335,23.3542096 C109.095335,23.8380474 108.699188,24.2341944 108.215351,24.2341944 C107.731513,24.2341944 107.335366,23.8380474 107.335366,23.3542096 C107.335366,22.8703719 107.731513,22.4742249 108.215351,22.4742249 Z M113.735024,39.5870815 C113.668871,39.5870815 113.558873,39.5870815 113.471182,39.5424669 C113.471182,39.5424669 113.338877,39.4993907 113.118881,39.3455472 C111.975824,38.6186368 111.513524,37.2332762 111.513524,35.9140684 L111.513524,22.8704488 C111.513524,22.4296872 111.843518,22.2104603 112.173513,22.2104603 C112.502738,22.2104603 112.833501,22.4296872 112.833501,22.8704488 L112.833501,35.9140684 C112.833501,36.7271312 113.097343,37.9371101 113.95502,38.311719 C114.241169,38.4432552 114.372705,38.6847895 114.372705,38.9270929 C114.372705,39.2570872 114.108864,39.5870815 113.735024,39.5870815 Z M116.570821,39.3670084 C116.240827,39.3670084 115.911602,39.1470122 115.911602,38.7077891 L115.911602,27.8187475 C115.911602,27.3795243 116.240827,27.1595282 116.570821,27.1595282 C116.900815,27.1595282 117.230809,27.3795243 117.230809,27.8187475 L117.230809,38.7077891 C117.230809,39.1470122 116.900815,39.3670084 116.570821,39.3670084 Z M116.570821,22.4742249 C117.054659,22.4742249 117.450806,22.8703719 117.450806,23.3542096 C117.450806,23.8380474 117.054659,24.2341944 116.570821,24.2341944 C116.086983,24.2341944 115.690836,23.8380474 115.690836,23.3542096 C115.690836,22.8703719 116.086983,22.4742249 116.570821,22.4742249 Z M127.018332,31.2286113 C127.018332,29.57864 125.698355,28.2594321 124.049153,28.2594321 C122.399181,28.2594321 121.079204,29.57864 121.079204,31.2286113 L121.079204,32.108596 L127.018332,32.108596 L127.018332,31.2286113 Z M127.67832,33.4278039 L121.079204,33.4278039 L121.079204,35.2977714 C121.079204,36.88159 122.575332,38.2669506 124.269149,38.2669506 C125.105288,38.2669506 126.116809,38.0254163 126.75449,37.2108151 C126.908334,37.0138954 127.12833,36.9254354 127.304481,36.9254354 C127.656013,36.9254354 127.986007,37.2108151 127.986007,37.5631166 C127.986007,37.695422 127.942162,37.8492655 127.854471,37.9808017 C127.018332,39.0807826 125.610664,39.5869276 124.269149,39.5869276 C121.959189,39.5869276 119.759227,37.7177293 119.759227,35.2977714 L119.759227,31.2286113 C119.759227,28.853268 121.673809,26.9394551 124.049153,26.9394551 C126.425265,26.9394551 128.338309,28.853268 128.338309,31.2286113 L128.338309,32.7685846 C128.338309,33.1201169 128.029853,33.4278039 127.67832,33.4278039 Z M138.673052,39.3670084 C138.343058,39.3670084 138.013064,39.1470122 138.013064,38.7077891 L138.013064,31.2286882 C138.013064,29.5787169 136.693856,28.259509 135.043885,28.259509 C133.393913,28.259509 132.074705,29.5787169 132.074705,31.2286882 L132.074705,38.7077891 C132.074705,39.1470122 131.743942,39.3670084 131.413948,39.3670084 C131.084723,39.3670084 130.754728,39.1470122 130.754728,38.7077891 L130.754728,31.2286882 C130.754728,28.8533449 132.667772,26.939532 135.043885,26.939532 C137.419228,26.939532 139.332272,28.8533449 139.332272,31.2286882 L139.332272,38.7077891 C139.332272,39.1470122 139.003047,39.3670084 138.673052,39.3670084 Z M149.602093,37.9810325 C149.602093,37.9810325 149.514402,38.0917998 149.360559,38.2671813 C148.502112,39.1687041 147.248288,39.5871584 146.016771,39.5871584 C143.575275,39.5871584 141.85992,38.0687232 141.85992,35.803378 L141.85992,30.7219278 C141.85992,28.4573518 143.575275,26.9396858 146.016771,26.9396858 C147.22675,26.9396858 148.876721,27.467369 149.602093,28.5450425 C149.689784,28.6765787 149.712861,28.8088841 149.712861,28.9188822 C149.712861,29.2927219 149.382097,29.5788707 149.030565,29.5788707 C148.854414,29.5788707 148.656725,29.512718 148.502112,29.2927219 C148.502112,29.2927219 148.480574,29.2488765 148.392883,29.1604165 C147.798278,28.5227352 146.874448,28.2588937 146.016771,28.2588937 C144.191418,28.2588937 143.179128,29.3142599 143.179128,30.7219278 L143.179128,35.803378 C143.179128,37.2110458 144.191418,38.2671813 146.016771,38.2671813 C146.85291,38.2671813 147.996737,37.9594944 148.502112,37.2333531 C148.656725,37.0356643 148.854414,36.9472043 149.030565,36.9472043 C149.382097,36.9472043 149.734399,37.2333531 149.734399,37.5848855 C149.734399,37.7171909 149.689784,37.8494963 149.602093,37.9810325 Z M159.079852,31.2286113 C159.079852,29.57864 157.759875,28.2594321 156.110672,28.2594321 C154.460701,28.2594321 153.140724,29.57864 153.140724,31.2286113 L153.140724,32.108596 L159.079852,32.108596 L159.079852,31.2286113 Z M159.73984,33.4278039 L153.140724,33.4278039 L153.140724,35.2977714 C153.140724,36.88159 154.636852,38.2669506 156.330669,38.2669506 C157.166808,38.2669506 158.178329,38.0254163 158.81601,37.2108151 C158.969854,37.0138954 159.190619,36.9254354 159.366001,36.9254354 C159.717533,36.9254354 160.047527,37.2108151 160.047527,37.5631166 C160.047527,37.695422 160.003682,37.8492655 159.915991,37.9808017 C159.079852,39.0807826 157.672184,39.5869276 156.330669,39.5869276 C154.020709,39.5869276 151.820747,37.7177293 151.820747,35.2977714 L151.820747,31.2286113 C151.820747,28.853268 153.735329,26.9394551 156.110672,26.9394551 C158.486016,26.9394551 160.399829,28.853268 160.399829,31.2286113 L160.399829,32.7685846 C160.399829,33.1201169 160.091373,33.4278039 159.73984,33.4278039 L159.73984,33.4278039 Z" id="Fill-1" fill="#222222" sketch:type="MSShapeGroup"></path>
                <path d="M54.378286,37.9016492 L45.6899754,24.2988086 C50.7368108,22.7472971 54.4821304,18.0404558 54.4821304,12.5059366 C54.4821304,5.67836289 48.915304,0.196150438 42.047731,0.196150438 L37.4370419,0.196150438 C31.8817538,0.196150438 27.3787551,4.69914913 27.3787551,10.253668 L27.3787551,22.4557637 L24.6441872,22.4557637 C24.0765048,22.4557637 23.6165128,22.9157557 23.6165128,23.4834382 C23.6165128,24.0511206 24.0765048,24.5111126 24.6441872,24.5111126 L27.3787551,24.5111126 L27.3787551,25.0034118 C27.3787551,32.0232898 21.6880847,37.7139602 14.6682067,37.7139602 L12.6397804,37.7139602 C6.78449752,37.7139602 2.03842612,32.9678888 2.03842612,27.1133751 L2.03842612,12.7951623 C2.03842612,6.92987961 6.73757525,2.05381047 12.602858,2.03842612 C15.8258789,2.02996473 19.0519767,3.15148371 21.405782,5.35144549 C21.7619296,5.70759315 21.9150039,5.91220498 21.9150039,5.91220498 C22.1696148,6.16681594 22.4242258,6.3198902 22.7303743,6.3198902 C23.2403655,6.3198902 23.801125,5.86066741 23.801125,5.29990792 C23.801125,5.09606531 23.698819,4.8922227 23.5457448,4.68838009 C21.1504018,1.6307409 16.3089474,0 12.6397804,0 C5.65759402,0 0,5.6568248 0,12.6390112 L0,27.1133751 C0,34.0940231 5.65913245,39.7523863 12.6397804,39.7523863 L14.6943601,39.7523863 C22.8349879,39.7523863 29.434104,33.1532702 29.434104,25.0126424 L29.434104,24.5111126 L35.6039968,24.5111126 C36.2716775,24.5111126 36.6316713,23.9972754 36.6316713,23.4834382 C36.6316713,22.9696009 36.2716775,22.4557637 35.6039968,22.4557637 L29.434104,22.4557637 L29.434104,10.2167456 C29.434104,5.81836045 33.0009651,2.25457622 37.3993503,2.25765309 L42.047731,2.26457604 C47.7707085,2.26457604 52.4013973,6.81680465 52.4013973,12.5059366 C52.4013973,17.1350869 49.3352967,21.045019 45.1092163,22.3411503 C44.563072,22.5080705 44.0623114,22.8411416 43.7984698,23.3480559 C43.4538605,24.0103521 43.5069365,24.767262 43.8792377,25.3518672 L52.609086,39.0393218 C52.8175439,39.4016232 53.1298462,39.5046983 53.4413792,39.5046983 C54.0144462,39.5046983 54.5344372,39.0393218 54.5344372,38.4708701 C54.5344372,38.3154882 54.4821304,38.1085687 54.378286,37.9016492" id="Fill-38" fill="#32B000" sketch:type="MSShapeGroup"></path>
            </g>
        </g>
    </g>
</svg>