<?xml version="1.0" encoding="UTF-8" standalone="no"?>
<svg width="201px" height="49px" viewBox="0 0 201 49" version="1.1" xmlns="http://www.w3.org/2000/svg" xmlns:xlink="http://www.w3.org/1999/xlink">
    <!-- Generator: Sketch 3.7 (28169) - http://www.bohemiancoding.com/sketch -->
    <title>ODRI-full-color+bg</title>
    <desc>Created with Sketch.</desc>
    <defs></defs>
    <g id="Page-1" stroke="none" stroke-width="1" fill="none" fill-rule="evenodd">
        <g id="1-7" transform="translate(-301.000000, -402.000000)">
            <g id="ODRI-full-color+bg" transform="translate(301.000000, 402.000000)">
                <rect id="Rectangle-37" fill="#FFFFFF" x="5.68434189e-14" y="0.500521187" width="201" height="47.9996525"></rect>
                <path d="M82.1677744,16.1331316 C82.1677744,14.5896316 80.8791681,13.3290645 79.3013356,13.3290645 C77.7235031,13.3290645 76.4343803,14.5896316 76.4343803,16.1331316 L76.4343803,20.1548206 C76.4343803,21.6988259 77.7235031,22.959393 79.3013356,22.959393 C80.8791681,22.959393 82.1677744,21.6988259 82.1677744,20.1548206 L82.1677744,16.1331316 Z M79.3013356,23.8086969 C77.2457633,23.8086969 75.5661851,22.1661704 75.5661851,20.1548206 L75.5661851,16.1331316 C75.5661851,14.1222871 77.2457633,12.4792553 79.3013356,12.4792553 C81.3569079,12.4792553 83.0364861,14.1222871 83.0364861,16.1331316 L83.0364861,20.1548206 C83.0364861,22.1661704 81.3569079,23.8086969 79.3013356,23.8086969 Z M89.4039571,18.4274142 C89.4039571,17.3649002 88.5352454,16.5155962 87.4496139,16.5155962 C86.3639825,16.5155962 85.4952708,17.3649002 85.4952708,18.4274142 L85.4952708,21.047575 C85.4952708,22.1095838 86.3639825,22.959393 87.4496139,22.959393 C88.5352454,22.959393 89.4039571,22.1095838 89.4039571,21.047575 L89.4039571,18.4274142 Z M85.4952708,26.0746863 C85.4952708,26.3581244 85.2783511,26.4995908 85.0609149,26.4995908 C84.8439953,26.4995908 84.6265591,26.3581244 84.6265591,26.0746863 L84.6265591,18.4274142 C84.6265591,16.8980609 85.8857263,15.6657871 87.4496139,15.6657871 C89.0129852,15.6657871 90.2726688,16.8980609 90.2726688,18.4274142 L90.2726688,21.047575 C90.2726688,22.5769283 89.0129852,23.8086969 87.4496139,23.8086969 C86.6821314,23.8086969 85.9874719,23.4408841 85.4952708,22.9164478 L85.4952708,26.0746863 Z M96.6416892,18.4274142 C96.6416892,17.3649002 95.7729775,16.5155962 94.6873461,16.5155962 C93.6011982,16.5155962 92.7330029,17.3649002 92.7330029,18.4274142 L92.7330029,18.9937853 L96.6416892,18.9937853 L96.6416892,18.4274142 Z M97.0760451,19.8435944 L92.7330029,19.8435944 L92.7330029,21.047575 C92.7330029,22.0671439 93.7174052,22.959393 94.8319592,22.959393 C95.382522,22.959393 96.0482589,22.8032746 96.467637,22.2793435 C96.5688662,22.1520237 96.7139958,22.0954372 96.8296863,22.0954372 C97.0610673,22.0954372 97.2785034,22.2793435 97.2785034,22.5061951 C97.2785034,22.591075 97.2495808,22.6901015 97.1912191,22.7749813 C96.6416892,23.4833241 95.7151322,23.8086969 94.8319592,23.8086969 C93.3119719,23.8086969 91.8642912,22.6052216 91.8642912,21.047575 L91.8642912,18.4274142 C91.8642912,16.8980609 93.1234584,15.6657871 94.6873461,15.6657871 C96.2507173,15.6657871 97.5104009,16.8980609 97.5104009,18.4274142 L97.5104009,19.4186899 C97.5104009,19.6455414 97.3074261,19.8435944 97.0760451,19.8435944 Z M104.312434,23.667281 C104.095515,23.667281 103.878078,23.5258145 103.878078,23.2423764 L103.878078,18.4274648 C103.878078,17.3649507 103.009883,16.5156468 101.923735,16.5156468 C100.83862,16.5156468 99.9693922,17.3649507 99.9693922,18.4274648 L99.9693922,23.2423764 C99.9693922,23.5258145 99.7524725,23.667281 99.5350364,23.667281 C99.3186331,23.667281 99.101197,23.5258145 99.101197,23.2423764 L99.101197,18.4274648 C99.101197,16.8981114 100.360364,15.6658376 101.923735,15.6658376 C103.487107,15.6658376 104.74679,16.8981114 104.74679,18.4274648 L104.74679,23.2423764 C104.74679,23.5258145 104.529871,23.667281 104.312434,23.667281 Z M116.123763,16.2747496 C116.123763,14.7312496 114.835157,13.4706825 113.257324,13.4706825 L110.680112,13.4706825 L110.680112,22.8175728 L113.257324,22.8175728 C114.835157,22.8175728 116.123763,21.5570057 116.123763,20.0135057 L116.123763,16.2747496 Z M113.257324,23.667382 L110.245756,23.667382 C110.014375,23.667382 109.8114,23.4688237 109.8114,23.2424774 L109.8114,13.0457779 C109.8114,12.8194316 110.014375,12.6208733 110.245756,12.6208733 L113.257324,12.6208733 C115.312897,12.6208733 116.992475,14.2639051 116.992475,16.2747496 L116.992475,20.0135057 C116.992475,22.0243503 115.312897,23.667382 113.257324,23.667382 Z M122.752209,19.6169955 L120.88515,20.0136068 C119.88577,20.2258065 119.233978,20.7926827 119.233978,21.5146669 C119.233978,22.3927693 119.929154,22.9591403 120.985863,22.9591403 C121.999705,22.9591403 122.752209,22.2937428 122.752209,21.3732004 L122.752209,19.6169955 Z M121.000324,23.8089495 C119.62495,23.8089495 118.365783,23.0157269 118.365783,21.5288135 C118.365783,20.1126333 119.581566,19.4184372 120.899095,19.149651 L122.752209,18.7671863 L122.752209,18.1012836 C122.752209,17.1529531 122.202163,16.5153436 121.029764,16.5153436 C120.479717,16.5153436 120.117151,16.6856086 119.813464,16.9119549 C119.523721,17.1388065 119.451415,17.3651528 119.147727,17.3651528 C118.930807,17.3651528 118.727832,17.195393 118.727832,16.9543948 C118.727832,16.7987818 118.829062,16.6573153 118.930807,16.5436369 C119.451415,15.9631192 120.233358,15.6655345 121.029764,15.6655345 C122.665441,15.6655345 123.620921,16.6856086 123.620921,18.1012836 L123.620921,21.3732004 C123.620921,22.8318205 122.404621,23.8089495 121.000324,23.8089495 Z M129.903173,23.298963 C129.468301,23.6106944 128.918771,23.8087474 128.368208,23.8087474 C127.09458,23.8087474 126.168023,22.9447916 126.168023,21.8120495 L126.168023,16.6571132 L124.850494,16.6571132 C124.560751,16.6571132 124.416138,16.4449135 124.416138,16.2322086 C124.416138,16.020009 124.560751,15.807304 124.850494,15.807304 L126.168023,15.807304 L126.168023,14.0086592 C126.168023,13.7257263 126.384943,13.5837546 126.601862,13.5837546 C126.819299,13.5837546 127.036218,13.7257263 127.036218,14.0086592 L127.036218,15.807304 L129.598969,15.807304 C129.888712,15.807304 130.033325,16.020009 130.033325,16.2322086 C130.033325,16.4449135 129.888712,16.6571132 129.598969,16.6571132 L127.036218,16.6571132 L127.036218,21.8120495 C127.036218,22.4355124 127.528419,22.9594435 128.368208,22.9594435 C129.164614,22.9594435 129.439895,22.4491538 129.772505,22.4491538 C130.003886,22.4491538 130.192916,22.6618587 130.192916,22.8887103 C130.192916,23.0726166 130.047787,23.1857898 129.903173,23.298963 Z M135.301427,19.6169955 L133.433851,20.0136068 C132.434988,20.2258065 131.783196,20.7926827 131.783196,21.5146669 C131.783196,22.3927693 132.478372,22.9591403 133.535081,22.9591403 C134.548922,22.9591403 135.301427,22.2937428 135.301427,21.3732004 L135.301427,19.6169955 Z M133.549542,23.8089495 C132.174168,23.8089495 130.915001,23.0157269 130.915001,21.5288135 C130.915001,20.1126333 132.130784,19.4184372 133.448313,19.149651 L135.301427,18.7671863 L135.301427,18.1012836 C135.301427,17.1529531 134.75138,16.5153436 133.578981,16.5153436 C133.028935,16.5153436 132.666369,16.6856086 132.362681,16.9119549 C132.072939,17.1388065 132.000632,17.3651528 131.696944,17.3651528 C131.480025,17.3651528 131.27705,17.195393 131.27705,16.9543948 C131.27705,16.7987818 131.378279,16.6573153 131.480025,16.5436369 C132.000632,15.9631192 132.782576,15.6655345 133.578981,15.6655345 C135.214659,15.6655345 136.170138,16.6856086 136.170138,18.1012836 L136.170138,21.3732004 C136.170138,22.8318205 134.953839,23.8089495 133.549542,23.8089495 Z M145.187645,13.6404928 C144.926825,13.6404928 144.695444,13.3287613 144.101497,13.3287613 C143.261708,13.3287613 142.769507,13.8526924 142.769507,14.4761553 L142.769507,15.8074556 L144.941286,15.8074556 C145.231029,15.8074556 145.375642,16.0196553 145.375642,16.2323602 C145.375642,16.4445599 145.231029,16.6572648 144.941286,16.6572648 L142.769507,16.6572648 L142.769507,23.242528 C142.769507,23.5254609 142.552587,23.6674325 142.335667,23.6674325 C142.118748,23.6674325 141.901312,23.5254609 141.901312,23.242528 L141.901312,16.6572648 L140.583783,16.6572648 C140.29404,16.6572648 140.149427,16.4445599 140.149427,16.2323602 C140.149427,16.0196553 140.29404,15.8074556 140.583783,15.8074556 L141.901312,15.8074556 L141.901312,14.4761553 C141.901312,13.3434132 142.827869,12.4794574 144.101497,12.4794574 C144.594215,12.4794574 145.056977,12.6209239 145.39062,12.8194821 C145.535233,12.9185086 145.622001,13.0599751 145.622001,13.1872949 C145.622001,13.4141464 145.434004,13.6404928 145.187645,13.6404928 Z M150.904667,18.4274142 C150.904667,17.3649002 150.035955,16.5155962 148.950324,16.5155962 C147.864176,16.5155962 146.99598,17.3649002 146.99598,18.4274142 L146.99598,21.047575 C146.99598,22.1095838 147.864176,22.959393 148.950324,22.959393 C150.035955,22.959393 150.904667,22.1095838 150.904667,21.047575 L150.904667,18.4274142 Z M148.950324,23.8086969 C147.386436,23.8086969 146.127269,22.5769283 146.127269,21.047575 L146.127269,18.4274142 C146.127269,16.8980609 147.386436,15.6657871 148.950324,15.6657871 C150.513695,15.6657871 151.773378,16.8980609 151.773378,18.4274142 L151.773378,21.047575 C151.773378,22.5769283 150.513695,23.8086969 148.950324,23.8086969 Z M157.461478,17.0819673 C157.360248,17.0819673 157.258503,17.0395273 157.157274,16.9546475 C157.157274,16.9546475 157.128351,16.9263542 157.084967,16.8980609 C156.781279,16.6570627 156.37533,16.5155962 155.969896,16.5155962 C154.928165,16.5155962 154.305296,17.251727 154.305296,18.5264408 L154.305296,23.2423259 C154.305296,23.525764 154.088376,23.6672304 153.87094,23.6672304 C153.65402,23.6672304 153.436584,23.525764 153.436584,23.2423259 L153.436584,18.5264408 C153.436584,16.9546475 154.290835,15.6657871 155.969896,15.6657871 C156.563843,15.6657871 157.330809,15.9209319 157.765165,16.3594779 C157.866394,16.4590097 157.909778,16.5580362 157.909778,16.6570627 C157.909778,16.883409 157.707836,17.0819673 157.461478,17.0819673 Z M78.8671863,27.6302614 L76.7243296,27.6302614 L76.7243296,32.9691041 L78.8671863,32.9691041 C80.358251,32.9691041 81.6029568,31.8080688 81.6029568,30.3065035 C81.6029568,28.8195901 80.3727123,27.6302614 78.8671863,27.6302614 Z M82.0373127,37.8269609 C81.9071609,37.8269609 81.777009,37.7698691 81.6902412,37.6284027 L79.200313,33.8047667 C79.0985673,33.8189133 78.9828768,33.8189133 78.8671863,33.8189133 L76.7243296,33.8189133 L76.7243296,37.4020564 C76.7243296,37.6849892 76.50741,37.8269609 76.2899738,37.8269609 C76.0730541,37.8269609 75.8556179,37.6849892 75.8556179,37.4020564 L75.8556179,27.2053568 C75.8556179,26.9785053 76.0585928,26.7804523 76.2899738,26.7804523 L78.8671863,26.7804523 C80.8504521,26.7804523 82.4716685,28.3522455 82.4716685,30.2928621 C82.4716685,31.8222154 81.4872663,33.1110758 80.1118922,33.6067136 L82.4138233,37.1752048 C82.4716685,37.2605899 82.5005912,37.3313231 82.5005912,37.416203 C82.5005912,37.6425493 82.2692102,37.8269609 82.0373127,37.8269609 Z M88.6519688,32.5868921 C88.6519688,31.524378 87.7832571,30.6750741 86.6976257,30.6750741 C85.6114778,30.6750741 84.7432825,31.524378 84.7432825,32.5868921 L84.7432825,33.1532631 L88.6519688,33.1532631 L88.6519688,32.5868921 Z M89.0863247,34.0030723 L84.7432825,34.0030723 L84.7432825,35.2070528 C84.7432825,36.2266217 85.7276848,37.1188708 86.8422388,37.1188708 C87.3928016,37.1188708 88.0585385,36.9627525 88.4779166,36.4388214 C88.5791458,36.3115016 88.7242754,36.254915 88.8399659,36.254915 C89.0713469,36.254915 89.288783,36.4388214 89.288783,36.665673 C89.288783,36.7505528 89.2598604,36.8495793 89.2014987,36.9344592 C88.6519688,37.6428019 87.7254118,37.9681748 86.8422388,37.9681748 C85.3222515,37.9681748 83.8745708,36.7646995 83.8745708,35.2070528 L83.8745708,32.5868921 C83.8745708,31.0575388 85.133738,29.8252649 86.6976257,29.8252649 C88.2609969,29.8252649 89.5206805,31.0575388 89.5206805,32.5868921 L89.5206805,33.5781677 C89.5206805,33.8050193 89.3177057,34.0030723 89.0863247,34.0030723 Z M93.1091004,37.9683769 C92.3705405,37.9683769 91.3572156,37.6424988 90.9083984,36.9912479 C90.8510697,36.906368 90.8216306,36.8209829 90.8216306,36.7502497 C90.8216306,36.5097567 91.0390667,36.3258503 91.2704477,36.3258503 C91.4005995,36.3258503 91.5168065,36.3682903 91.6180357,36.5097567 C91.6180357,36.5097567 91.6469583,36.53805 91.6903423,36.58049 C92.0523916,36.948808 92.5879766,37.1185677 93.1091004,37.1185677 C94.2386322,37.1185677 94.9332917,36.4814634 94.9332917,35.7306808 C94.9332917,33.7198363 90.8650145,34.455967 90.8650145,31.8504582 C90.8650145,30.5050112 92.0668529,29.8249618 93.2103295,29.8249618 C94.0217125,29.8249618 94.9766756,30.2503716 95.4254928,30.9440625 C95.4688767,31.0147957 95.4977993,31.0996755 95.4977993,31.1845554 C95.4977993,31.411407 95.2664183,31.5953134 95.0489822,31.5953134 C94.9188304,31.5953134 94.7886785,31.5387268 94.6874494,31.3972603 C94.6874494,31.3972603 94.6580103,31.368967 94.6146263,31.2982338 C94.2675548,30.9157692 93.7608924,30.674771 93.2103295,30.674771 C92.3421343,30.674771 91.7337262,31.1567674 91.7337262,31.8504582 C91.7337262,33.6066631 95.8020034,32.954907 95.8020034,35.7306808 C95.8020034,37.104421 94.5423198,37.9683769 93.1091004,37.9683769 Z M97.6826971,37.8267588 C97.4657774,37.8267588 97.2483413,37.6852924 97.2483413,37.4018543 L97.2483413,30.3916865 C97.2483413,30.1087536 97.4657774,29.9667819 97.6826971,29.9667819 C97.9001333,29.9667819 98.117053,30.1087536 98.117053,30.3916865 L98.117053,37.4018543 C98.117053,37.6852924 97.9001333,37.8267588 97.6826971,37.8267588 Z M97.6826971,26.9505151 C98.0013625,26.9505151 98.2616661,27.2051547 98.2616661,27.5168862 C98.2616661,27.8281124 98.0013625,28.0832572 97.6826971,28.0832572 C97.3645482,28.0832572 97.1037281,27.8281124 97.1037281,27.5168862 C97.1037281,27.2051547 97.3645482,26.9505151 97.6826971,26.9505151 Z M101.315689,37.9683769 C101.272305,37.9683769 101.199998,37.9683769 101.142153,37.9400836 C101.142153,37.9400836 101.055385,37.9117903 100.910772,37.8127638 C100.157751,37.3454192 99.8535468,36.4531701 99.8535468,35.603361 L99.8535468,27.2053063 C99.8535468,26.9218682 100.070983,26.7804017 100.287903,26.7804017 C100.505339,26.7804017 100.722258,26.9218682 100.722258,27.2053063 L100.722258,35.603361 C100.722258,36.1272921 100.896311,36.906368 101.460302,37.146861 C101.648299,37.2317409 101.735583,37.3878592 101.735583,37.5434723 C101.735583,37.7561772 101.561531,37.9683769 101.315689,37.9683769 Z M103.182128,37.8267588 C102.965208,37.8267588 102.747772,37.6852924 102.747772,37.4018543 L102.747772,30.3916865 C102.747772,30.1087536 102.965208,29.9667819 103.182128,29.9667819 C103.399564,29.9667819 103.616484,30.1087536 103.616484,30.3916865 L103.616484,37.4018543 C103.616484,37.6852924 103.399564,37.8267588 103.182128,37.8267588 Z M103.182128,26.9505151 C103.500793,26.9505151 103.761097,27.2051547 103.761097,27.5168862 C103.761097,27.8281124 103.500793,28.0832572 103.182128,28.0832572 C102.863979,28.0832572 102.603159,27.8281124 102.603159,27.5168862 C102.603159,27.2051547 102.863979,26.9505151 103.182128,26.9505151 Z M110.058689,32.5868921 C110.058689,31.524378 109.189977,30.6750741 108.104345,30.6750741 C107.018198,30.6750741 106.150002,31.524378 106.150002,32.5868921 L106.150002,33.1532631 L110.058689,33.1532631 L110.058689,32.5868921 Z M110.493044,34.0030723 L106.150002,34.0030723 L106.150002,35.2070528 C106.150002,36.2266217 107.134405,37.1188708 108.248959,37.1188708 C108.799521,37.1188708 109.465258,36.9627525 109.884636,36.4388214 C109.985866,36.3115016 110.130995,36.254915 110.246686,36.254915 C110.478067,36.254915 110.695503,36.4388214 110.695503,36.665673 C110.695503,36.7505528 110.66658,36.8495793 110.608219,36.9344592 C110.058689,37.6428019 109.132132,37.9681748 108.248959,37.9681748 C106.728971,37.9681748 105.281291,36.7646995 105.281291,35.2070528 L105.281291,32.5868921 C105.281291,31.0575388 106.540458,29.8252649 108.104345,29.8252649 C109.667717,29.8252649 110.9274,31.0575388 110.9274,32.5868921 L110.9274,33.5781677 C110.9274,33.8050193 110.724425,34.0030723 110.493044,34.0030723 Z M117.729692,37.8267588 C117.512772,37.8267588 117.295336,37.6852924 117.295336,37.4018543 L117.295336,32.5869426 C117.295336,31.5244286 116.427141,30.6751246 115.340993,30.6751246 C114.255362,30.6751246 113.38665,31.5244286 113.38665,32.5869426 L113.38665,37.4018543 C113.38665,37.6852924 113.16973,37.8267588 112.952294,37.8267588 C112.735374,37.8267588 112.517938,37.6852924 112.517938,37.4018543 L112.517938,32.5869426 C112.517938,31.0575893 113.777622,29.8253155 115.340993,29.8253155 C116.904364,29.8253155 118.164048,31.0575893 118.164048,32.5869426 L118.164048,37.4018543 C118.164048,37.6852924 117.947128,37.8267588 117.729692,37.8267588 Z M124.923524,36.9344592 C124.923524,36.9344592 124.865678,37.0051924 124.763933,37.1188708 C124.199942,37.6993885 123.374614,37.9681748 122.564264,37.9681748 C120.956992,37.9681748 119.827977,36.9910458 119.827977,35.5324257 L119.827977,32.261014 C119.827977,30.8023939 120.956992,29.8252649 122.564264,29.8252649 C123.360153,29.8252649 124.445784,30.1652897 124.923524,30.8589805 C124.981369,30.9443656 124.996347,31.0292455 124.996347,31.0999787 C124.996347,31.3404717 124.778911,31.524378 124.547013,31.524378 C124.431323,31.524378 124.301171,31.4819381 124.199942,31.3404717 C124.199942,31.3404717 124.184964,31.3121784 124.127635,31.2555918 C123.736663,30.8448338 123.128255,30.6750741 122.564264,30.6750741 C121.361909,30.6750741 120.696172,31.3546183 120.696172,32.261014 L120.696172,35.5324257 C120.696172,36.4388214 121.361909,37.1188708 122.564264,37.1188708 C123.113794,37.1188708 123.866815,36.9203126 124.199942,36.4529681 C124.301171,36.3256482 124.431323,36.2690617 124.547013,36.2690617 C124.778911,36.2690617 125.010292,36.4529681 125.010292,36.6798196 C125.010292,36.7646995 124.981369,36.8495793 124.923524,36.9344592 Z M131.162082,32.5868921 C131.162082,31.524378 130.293371,30.6750741 129.207739,30.6750741 C128.121591,30.6750741 127.253396,31.524378 127.253396,32.5868921 L127.253396,33.1532631 L131.162082,33.1532631 L131.162082,32.5868921 Z M131.596438,34.0030723 L127.253396,34.0030723 L127.253396,35.2070528 C127.253396,36.2266217 128.237798,37.1188708 129.352352,37.1188708 C129.902915,37.1188708 130.568652,36.9627525 130.98803,36.4388214 C131.089259,36.3115016 131.234389,36.254915 131.350079,36.254915 C131.58146,36.254915 131.798897,36.4388214 131.798897,36.665673 C131.798897,36.7505528 131.769974,36.8495793 131.711612,36.9344592 C131.162082,37.6428019 130.235525,37.9681748 129.352352,37.9681748 C127.832365,37.9681748 126.384684,36.7646995 126.384684,35.2070528 L126.384684,32.5868921 C126.384684,31.0575388 127.643852,29.8252649 129.207739,29.8252649 C130.77111,29.8252649 132.030794,31.0575388 132.030794,32.5868921 L132.030794,33.5781677 C132.030794,33.8050193 131.827819,34.0030723 131.596438,34.0030723 Z M141.438653,37.8267588 L136.805868,37.8267588 C136.516642,37.8267588 136.371512,37.6145592 136.371512,37.4018543 C136.371512,37.1896546 136.516642,36.9769497 136.805868,36.9769497 L138.688421,36.9769497 L138.688421,27.6300593 L136.805868,27.6300593 C136.516642,27.6300593 136.371512,27.4173544 136.371512,27.2051547 C136.371512,26.9929551 136.516642,26.7802502 136.805868,26.7802502 L141.438653,26.7802502 C141.728396,26.7802502 141.873009,26.9929551 141.873009,27.2051547 C141.873009,27.4173544 141.728396,27.6300593 141.438653,27.6300593 L139.556616,27.6300593 L139.556616,36.9769497 L141.438653,36.9769497 C141.728396,36.9769497 141.873009,37.1896546 141.873009,37.4018543 C141.873009,37.6145592 141.728396,37.8267588 141.438653,37.8267588 Z M148.386332,37.8267588 C148.169413,37.8267588 147.951976,37.6852924 147.951976,37.4018543 L147.951976,32.5869426 C147.951976,31.5244286 147.083781,30.6751246 145.997633,30.6751246 C144.912002,30.6751246 144.04329,31.5244286 144.04329,32.5869426 L144.04329,37.4018543 C144.04329,37.6852924 143.826371,37.8267588 143.608934,37.8267588 C143.392015,37.8267588 143.174578,37.6852924 143.174578,37.4018543 L143.174578,32.5869426 C143.174578,31.0575893 144.434262,29.8253155 145.997633,29.8253155 C147.561005,29.8253155 148.820688,31.0575893 148.820688,32.5869426 L148.820688,37.4018543 C148.820688,37.6852924 148.603769,37.8267588 148.386332,37.8267588 Z M150.990402,37.8267588 C150.773482,37.8267588 150.556046,37.6852924 150.556046,37.4018543 L150.556046,30.3916865 C150.556046,30.1087536 150.773482,29.9667819 150.990402,29.9667819 C151.207838,29.9667819 151.424757,30.1087536 151.424757,30.3916865 L151.424757,37.4018543 C151.424757,37.6852924 151.207838,37.8267588 150.990402,37.8267588 Z M150.990402,26.9505151 C151.309067,26.9505151 151.569371,27.2051547 151.569371,27.5168862 C151.569371,27.8281124 151.309067,28.0832572 150.990402,28.0832572 C150.672253,28.0832572 150.411433,27.8281124 150.411433,27.5168862 C150.411433,27.2051547 150.672253,26.9505151 150.990402,26.9505151 Z M157.780246,37.4584408 C157.345374,37.7701723 156.795844,37.9682253 156.245281,37.9682253 C154.971653,37.9682253 154.045096,37.1042695 154.045096,35.9715274 L154.045096,30.8165911 L152.727567,30.8165911 C152.437824,30.8165911 152.293211,30.6043914 152.293211,30.3916865 C152.293211,30.1794868 152.437824,29.9667819 152.727567,29.9667819 L154.045096,29.9667819 L154.045096,28.1681371 C154.045096,27.8852042 154.262015,27.7432325 154.478935,27.7432325 C154.696371,27.7432325 154.913291,27.8852042 154.913291,28.1681371 L154.913291,29.9667819 L157.476042,29.9667819 C157.765785,29.9667819 157.910398,30.1794868 157.910398,30.3916865 C157.910398,30.6043914 157.765785,30.8165911 157.476042,30.8165911 L154.913291,30.8165911 L154.913291,35.9715274 C154.913291,36.5949903 155.405492,37.1189214 156.245281,37.1189214 C157.041686,37.1189214 157.316968,36.6086317 157.649578,36.6086317 C157.880959,36.6086317 158.069989,36.8213366 158.069989,37.0481881 C158.069989,37.2320945 157.924859,37.3452677 157.780246,37.4584408 Z M159.515759,37.8267588 C159.298839,37.8267588 159.081403,37.6852924 159.081403,37.4018543 L159.081403,30.3916865 C159.081403,30.1087536 159.298839,29.9667819 159.515759,29.9667819 C159.733195,29.9667819 159.950115,30.1087536 159.950115,30.3916865 L159.950115,37.4018543 C159.950115,37.6852924 159.733195,37.8267588 159.515759,37.8267588 Z M159.515759,26.9505151 C159.834424,26.9505151 160.094728,27.2051547 160.094728,27.5168862 C160.094728,27.8281124 159.834424,28.0832572 159.515759,28.0832572 C159.19761,28.0832572 158.93679,27.8281124 158.93679,27.5168862 C158.93679,27.2051547 159.19761,26.9505151 159.515759,26.9505151 Z M165.783602,33.7764734 L163.916026,34.1730847 C162.917163,34.3852843 162.265371,34.9521606 162.265371,35.6741447 C162.265371,36.5522472 162.960547,37.1186182 164.017255,37.1186182 C165.031097,37.1186182 165.783602,36.4532207 165.783602,35.5326783 L165.783602,33.7764734 Z M164.031717,37.9684274 C162.656343,37.9684274 161.397175,37.1752048 161.397175,35.6882914 C161.397175,34.2721112 162.612959,33.5779151 163.930488,33.3091289 L165.783602,32.9266642 L165.783602,32.2607614 C165.783602,31.312431 165.233555,30.6748215 164.061156,30.6748215 C163.51111,30.6748215 163.148544,30.8450865 162.844856,31.0714328 C162.555113,31.2982843 162.482807,31.5246307 162.179119,31.5246307 C161.9622,31.5246307 161.759225,31.3548709 161.759225,31.1138727 C161.759225,30.9582596 161.860454,30.8167932 161.9622,30.7031148 C162.482807,30.1225971 163.264751,29.8250123 164.061156,29.8250123 C165.696834,29.8250123 166.652313,30.8450865 166.652313,32.2607614 L166.652313,35.5326783 C166.652313,36.9912984 165.436014,37.9684274 164.031717,37.9684274 Z M172.934566,37.4584408 C172.499693,37.7701723 171.950164,37.9682253 171.399601,37.9682253 C170.125972,37.9682253 169.199415,37.1042695 169.199415,35.9715274 L169.199415,30.8165911 L167.881886,30.8165911 C167.592144,30.8165911 167.447531,30.6043914 167.447531,30.3916865 C167.447531,30.1794868 167.592144,29.9667819 167.881886,29.9667819 L169.199415,29.9667819 L169.199415,28.1681371 C169.199415,27.8852042 169.416335,27.7432325 169.633255,27.7432325 C169.850691,27.7432325 170.067611,27.8852042 170.067611,28.1681371 L170.067611,29.9667819 L172.630362,29.9667819 C172.920104,29.9667819 173.064718,30.1794868 173.064718,30.3916865 C173.064718,30.6043914 172.920104,30.8165911 172.630362,30.8165911 L170.067611,30.8165911 L170.067611,35.9715274 C170.067611,36.5949903 170.559812,37.1189214 171.399601,37.1189214 C172.196006,37.1189214 172.471287,36.6086317 172.803897,36.6086317 C173.035278,36.6086317 173.224309,36.8213366 173.224309,37.0481881 C173.224309,37.2320945 173.079179,37.3452677 172.934566,37.4584408 Z M174.670078,37.8267588 C174.453159,37.8267588 174.235722,37.6852924 174.235722,37.4018543 L174.235722,30.3916865 C174.235722,30.1087536 174.453159,29.9667819 174.670078,29.9667819 C174.887514,29.9667819 175.104434,30.1087536 175.104434,30.3916865 L175.104434,37.4018543 C175.104434,37.6852924 174.887514,37.8267588 174.670078,37.8267588 Z M174.670078,26.9505151 C174.988744,26.9505151 175.249047,27.2051547 175.249047,27.5168862 C175.249047,27.8281124 174.988744,28.0832572 174.670078,28.0832572 C174.351929,28.0832572 174.091109,27.8281124 174.091109,27.5168862 C174.091109,27.2051547 174.351929,26.9505151 174.670078,26.9505151 Z M182.603348,30.5474512 L179.8526,37.5576189 C179.765832,37.7844705 179.606757,37.8976436 179.447683,37.8976436 C179.288092,37.8976436 179.128501,37.7844705 179.041733,37.5576189 L176.290985,30.5474512 C176.27704,30.4908646 176.262579,30.434278 176.262579,30.3776914 C176.262579,30.1366932 176.49396,29.9669335 176.711396,29.9669335 C176.87047,29.9669335 177.029545,30.0518134 177.102368,30.2357197 L179.447683,36.2121719 L181.792998,30.2357197 C181.879766,30.0518134 182.024379,29.9669335 182.18397,29.9669335 C182.415351,29.9669335 182.646732,30.1366932 182.646732,30.3776914 C182.646732,30.434278 182.632271,30.4908646 182.603348,30.5474512 Z M188.508522,32.5868921 C188.508522,31.524378 187.63981,30.6750741 186.554179,30.6750741 C185.468031,30.6750741 184.599835,31.524378 184.599835,32.5868921 L184.599835,33.1532631 L188.508522,33.1532631 L188.508522,32.5868921 Z M188.942878,34.0030723 L184.599835,34.0030723 L184.599835,35.2070528 C184.599835,36.2266217 185.584238,37.1188708 186.698792,37.1188708 C187.249355,37.1188708 187.915091,36.9627525 188.334469,36.4388214 C188.435699,36.3115016 188.580828,36.254915 188.696519,36.254915 C188.9279,36.254915 189.145336,36.4388214 189.145336,36.665673 C189.145336,36.7505528 189.116413,36.8495793 189.058052,36.9344592 C188.508522,37.6428019 187.581965,37.9681748 186.698792,37.9681748 C185.178804,37.9681748 183.731124,36.7646995 183.731124,35.2070528 L183.731124,32.5868921 C183.731124,31.0575388 184.990291,29.8252649 186.554179,29.8252649 C188.11755,29.8252649 189.377233,31.0575388 189.377233,32.5868921 L189.377233,33.5781677 C189.377233,33.8050193 189.174259,34.0030723 188.942878,34.0030723 L188.942878,34.0030723 Z" id="Fill-1-Copy" fill="#222222"></path>
                <path d="M62.5078545,12.3307155 C62.5078545,11.9593661 62.2000351,11.6582447 61.8204256,11.6582447 C61.4408162,11.6582447 61.1329968,11.9593661 61.1329968,12.3307155 L61.1329968,36.0394818 L56.4795529,36.0394818 L50.8360256,27.3958818 C54.2044785,26.382881 56.7047362,23.3095224 56.7047362,19.6960651 C56.7047362,15.2383563 52.9892118,11.6582447 48.4054921,11.6582447 L42.2243138,11.6582447 C41.842122,11.6582447 41.5296543,11.9623975 41.5296543,12.333747 L41.5296543,36.6498085 C41.5296543,37.0888597 41.8767258,37.3248056 42.2243138,37.3248056 C42.5713853,37.3248056 42.9184568,37.0888597 42.9184568,36.6498085 L42.9184568,13.0092493 L48.4054921,13.0092493 C52.2248281,13.0092493 55.3154172,15.9810552 55.3154172,19.6960651 C55.3154172,22.7537614 53.2216257,25.3304717 50.3505387,26.14643 C49.7932616,26.3050745 49.4193334,26.8173851 49.4193334,27.3847666 C49.4193334,27.6328381 49.49164,27.8748468 49.6279895,28.0835098 L55.4579645,37.0100427 C55.6139401,37.2495252 55.8845732,37.3945283 56.1748324,37.3945283 L61.5849128,37.3945283 C62.0946741,37.3945283 62.5078545,36.9898332 62.5078545,36.4916692 L62.5078545,12.3307155 Z M38.0474218,20.2970449 C38.0474218,16.4567361 34.8726472,13.3515475 30.9474337,13.3515475 L24.5297097,13.3515475 L24.5297097,36.0584282 L30.9474337,36.0584282 C34.8726472,36.0584282 38.0474218,32.9532397 38.0474218,29.1129309 L38.0474218,20.2970449 Z M30.9474337,37.3942757 L23.8469291,37.3942757 C23.4714515,37.3942757 23.1641486,37.0936595 23.1641486,36.726352 L23.1641486,12.6836238 C23.1641486,12.3163163 23.4714515,12.0157001 23.8469291,12.0157001 L30.9474337,12.0157001 C35.6236025,12.0157001 39.412983,15.722121 39.412983,20.2970449 L39.412983,29.1129309 C39.412983,33.6878547 35.6236025,37.3942757 30.9474337,37.3942757 Z M14.53467,32.5210092 C13.3323152,32.5210092 12.3510118,33.4814653 12.3510118,34.6576578 C12.3510118,35.833345 13.3323152,36.7938011 14.53467,36.7938011 L17.6670937,36.7938011 C18.8694486,36.7938011 19.8512684,35.833345 19.8512684,34.6576578 C19.8512684,33.4814653 18.8694486,32.5210092 17.6670937,32.5210092 L14.53467,32.5210092 Z M20.5128735,34.6576578 C20.5128735,36.1895373 19.2335638,37.4410101 17.6670937,37.4410101 L14.53467,37.4410101 C12.9687165,37.4410101 11.6888903,36.1895373 11.6888903,34.6576578 C11.6888903,33.125273 12.9687165,31.8738002 14.53467,31.8738002 L17.6670937,31.8738002 C19.2335638,31.8738002 20.5128735,33.125273 20.5128735,34.6576578 Z M12.4608145,28.0021161 L12.4608145,29.5991712 L16.6194749,29.5991712 L16.6194749,28.0021161 C16.6194749,26.879984 15.7037639,25.9629783 14.5453094,25.9629783 C13.3873715,25.9629783 12.4608145,26.879984 12.4608145,28.0021161 Z M17.2810799,28.0021161 L17.2810799,29.5991712 L20.0715968,29.5991712 C20.2921319,29.5991712 20.4021411,29.7608472 20.4021411,29.9225231 C20.4021411,30.0847043 20.2921319,30.2463802 20.0715968,30.2463802 L12.1302702,30.2463802 C11.9536356,30.2463802 11.7992094,30.0953143 11.7992094,29.9225231 L11.7992094,28.0021161 C11.7992094,26.5237917 13.0232563,25.315264 14.5344635,25.315264 C16.0570331,25.315264 17.2810799,26.5237917 17.2810799,28.0021161 Z M20.4022961,19.3181982 L20.4022961,23.3641386 C20.4022961,23.5369297 20.2478699,23.6879957 20.0717518,23.6879957 L12.1299087,23.6879957 C11.9532741,23.6879957 11.7993644,23.5369297 11.7993644,23.3641386 L11.7993644,19.3181982 C11.7993644,19.1024618 11.9646365,18.9948463 12.1299087,18.9948463 C12.2956973,18.9948463 12.4609694,19.1024618 12.4609694,19.3181982 L12.4609694,23.0407867 L15.5711846,23.0407867 L15.5711846,19.6420553 C15.5711846,19.4263189 15.7369733,19.3181982 15.9022454,19.3181982 C16.0675176,19.3181982 16.2333062,19.4263189 16.2333062,19.6420553 L16.2333062,23.0407867 L19.740691,23.0407867 L19.740691,19.3181982 C19.740691,19.1024618 19.9059632,18.9948463 20.0717518,18.9948463 C20.2370239,18.9948463 20.4022961,19.1024618 20.4022961,19.3181982 Z M20.4575589,12.3068683 C20.4575589,12.4149891 20.3914501,12.5337199 20.2478699,12.6196102 L13.3100551,16.7201163 L20.0717518,16.7201163 C20.2922868,16.7201163 20.4022961,16.8817922 20.4022961,17.0439734 C20.4022961,17.2056494 20.2922868,17.3673253 20.0717518,17.3673253 L12.1299087,17.3673253 C11.8876817,17.3673253 11.7441015,17.2268693 11.7441015,17.0763086 C11.7441015,16.9681878 11.8102104,16.8494571 11.9537905,16.7630615 L18.8916054,12.6630607 L12.1299087,12.6630607 C11.9098901,12.6630607 11.7993644,12.5013847 11.7993644,12.3392035 C11.7993644,12.1775276 11.9098901,12.0153464 12.1299087,12.0153464 L20.0717518,12.0153464 C20.3139788,12.0153464 20.4575589,12.1558024 20.4575589,12.3068683 Z" id="Fill-65-Copy" fill="#1477C9"></path>
            </g>
        </g>
    </g>
</svg>