<?xml version="1.0" encoding="UTF-8" standalone="no"?>
<svg width="179px" height="30px" viewBox="0 0 179 30" version="1.1" xmlns="http://www.w3.org/2000/svg" xmlns:xlink="http://www.w3.org/1999/xlink" xmlns:sketch="http://www.bohemiancoding.com/sketch/ns">
    <!-- Generator: Sketch 3.5.2 (25235) - http://www.bohemiancoding.com/sketch -->
    <title>ODRI-full-color</title>
    <desc>Created with Sketch.</desc>
    <defs></defs>
    <g id="Page-1" stroke="none" stroke-width="1" fill="none" fill-rule="evenodd" sketch:type="MSPage">
        <g id="1-7" sketch:type="MSArtboardGroup" transform="translate(-312.000000, -412.000000)">
            <g id="ODRI-full-color" sketch:type="MSLayerGroup" transform="translate(401.500000, 426.500000) rotate(1.000000) translate(-401.500000, -426.500000) translate(312.000000, 413.000000)">
                <path d="M71.1677744,5.13313159 C71.1677744,3.58963159 69.8791681,2.32906448 68.3013356,2.32906448 C66.7235031,2.32906448 65.4343803,3.58963159 65.4343803,5.13313159 L65.4343803,9.15482062 C65.4343803,10.6988259 66.7235031,11.959393 68.3013356,11.959393 C69.8791681,11.959393 71.1677744,10.6988259 71.1677744,9.15482062 L71.1677744,5.13313159 Z M68.3013356,12.8086969 C66.2457633,12.8086969 64.5661851,11.1661704 64.5661851,9.15482062 L64.5661851,5.13313159 C64.5661851,3.12228707 66.2457633,1.47925532 68.3013356,1.47925532 C70.3569079,1.47925532 72.0364861,3.12228707 72.0364861,5.13313159 L72.0364861,9.15482062 C72.0364861,11.1661704 70.3569079,12.8086969 68.3013356,12.8086969 Z M78.4039571,7.42741424 C78.4039571,6.36490016 77.5352454,5.51559624 76.4496139,5.51559624 C75.3639825,5.51559624 74.4952708,6.36490016 74.4952708,7.42741424 L74.4952708,10.047575 C74.4952708,11.1095838 75.3639825,11.959393 76.4496139,11.959393 C77.5352454,11.959393 78.4039571,11.1095838 78.4039571,10.047575 L78.4039571,7.42741424 Z M74.4952708,15.0746863 C74.4952708,15.3581244 74.2783511,15.4995908 74.0609149,15.4995908 C73.8439953,15.4995908 73.6265591,15.3581244 73.6265591,15.0746863 L73.6265591,7.42741424 C73.6265591,5.89806088 74.8857263,4.66578707 76.4496139,4.66578707 C78.0129852,4.66578707 79.2726688,5.89806088 79.2726688,7.42741424 L79.2726688,10.047575 C79.2726688,11.5769283 78.0129852,12.8086969 76.4496139,12.8086969 C75.6821314,12.8086969 74.9874719,12.4408841 74.4952708,11.9164478 L74.4952708,15.0746863 Z M85.6416892,7.42741424 C85.6416892,6.36490016 84.7729775,5.51559624 83.6873461,5.51559624 C82.6011982,5.51559624 81.7330029,6.36490016 81.7330029,7.42741424 L81.7330029,7.99378527 L85.6416892,7.99378527 L85.6416892,7.42741424 Z M86.0760451,8.84359444 L81.7330029,8.84359444 L81.7330029,10.047575 C81.7330029,11.0671439 82.7174052,11.959393 83.8319592,11.959393 C84.382522,11.959393 85.0482589,11.8032746 85.467637,11.2793435 C85.5688662,11.1520237 85.7139958,11.0954372 85.8296863,11.0954372 C86.0610673,11.0954372 86.2785034,11.2793435 86.2785034,11.5061951 C86.2785034,11.591075 86.2495808,11.6901015 86.1912191,11.7749813 C85.6416892,12.4833241 84.7151322,12.8086969 83.8319592,12.8086969 C82.3119719,12.8086969 80.8642912,11.6052216 80.8642912,10.047575 L80.8642912,7.42741424 C80.8642912,5.89806088 82.1234584,4.66578707 83.6873461,4.66578707 C85.2507173,4.66578707 86.5104009,5.89806088 86.5104009,7.42741424 L86.5104009,8.41868985 C86.5104009,8.64554141 86.3074261,8.84359444 86.0760451,8.84359444 Z M93.3124343,12.667281 C93.0955146,12.667281 92.8780785,12.5258145 92.8780785,12.2423764 L92.8780785,7.42746476 C92.8780785,6.36495069 92.0098832,5.51564676 90.9237353,5.51564676 C89.8386204,5.51564676 88.9693922,6.36495069 88.9693922,7.42746476 L88.9693922,12.2423764 C88.9693922,12.5258145 88.7524725,12.667281 88.5350364,12.667281 C88.3186331,12.667281 88.101197,12.5258145 88.101197,12.2423764 L88.101197,7.42746476 C88.101197,5.89811141 89.3603641,4.66583759 90.9237353,4.66583759 C92.4871066,4.66583759 93.7467902,5.89811141 93.7467902,7.42746476 L93.7467902,12.2423764 C93.7467902,12.5258145 93.5298705,12.667281 93.3124343,12.667281 Z M105.123763,5.27474961 C105.123763,3.73124961 103.835157,2.4706825 102.257324,2.4706825 L99.6801119,2.4706825 L99.6801119,11.8175728 L102.257324,11.8175728 C103.835157,11.8175728 105.123763,10.5570057 105.123763,9.01350574 L105.123763,5.27474961 Z M102.257324,12.667382 L99.245756,12.667382 C99.014375,12.667382 98.8114002,12.4688237 98.8114002,12.2424774 L98.8114002,2.04577792 C98.8114002,1.8194316 99.014375,1.62087334 99.245756,1.62087334 L102.257324,1.62087334 C104.312897,1.62087334 105.992475,3.26390509 105.992475,5.27474961 L105.992475,9.01350574 C105.992475,11.0243503 104.312897,12.667382 102.257324,12.667382 Z M111.752209,8.6169955 L109.88515,9.01360679 C108.88577,9.22580646 108.233978,9.79268273 108.233978,10.5146669 C108.233978,11.3927693 108.929154,11.9591403 109.985863,11.9591403 C110.999705,11.9591403 111.752209,11.2937428 111.752209,10.3732004 L111.752209,8.6169955 Z M110.000324,12.8089495 C108.62495,12.8089495 107.365783,12.0157269 107.365783,10.5288135 C107.365783,9.11263331 108.581566,8.41843723 109.899095,8.14965098 L111.752209,7.76718633 L111.752209,7.10128355 C111.752209,6.15295311 111.202163,5.51534362 110.029764,5.51534362 C109.479717,5.51534362 109.117151,5.68560859 108.813464,5.91195491 C108.523721,6.13880646 108.451415,6.36515278 108.147727,6.36515278 C107.930807,6.36515278 107.727832,6.19539304 107.727832,5.95439484 C107.727832,5.79878175 107.829062,5.6573153 107.930807,5.54363691 C108.451415,4.96311923 109.233358,4.66553445 110.029764,4.66553445 C111.665441,4.66553445 112.620921,5.68560859 112.620921,7.10128355 L112.620921,10.3732004 C112.620921,11.8318205 111.404621,12.8089495 110.000324,12.8089495 Z M118.903173,12.298963 C118.468301,12.6106944 117.918771,12.8087474 117.368208,12.8087474 C116.09458,12.8087474 115.168023,11.9447916 115.168023,10.8120495 L115.168023,5.65711321 L113.850494,5.65711321 C113.560751,5.65711321 113.416138,5.44491354 113.416138,5.23220863 C113.416138,5.02000895 113.560751,4.80730404 113.850494,4.80730404 L115.168023,4.80730404 L115.168023,3.0086592 C115.168023,2.7257263 115.384943,2.58375462 115.601862,2.58375462 C115.819299,2.58375462 116.036218,2.7257263 116.036218,3.0086592 L116.036218,4.80730404 L118.598969,4.80730404 C118.888712,4.80730404 119.033325,5.02000895 119.033325,5.23220863 C119.033325,5.44491354 118.888712,5.65711321 118.598969,5.65711321 L116.036218,5.65711321 L116.036218,10.8120495 C116.036218,11.4355124 116.528419,11.9594435 117.368208,11.9594435 C118.164614,11.9594435 118.439895,11.4491538 118.772505,11.4491538 C119.003886,11.4491538 119.192916,11.6618587 119.192916,11.8887103 C119.192916,12.0726166 119.047787,12.1857898 118.903173,12.298963 Z M124.301427,8.6169955 L122.433851,9.01360679 C121.434988,9.22580646 120.783196,9.79268273 120.783196,10.5146669 C120.783196,11.3927693 121.478372,11.9591403 122.535081,11.9591403 C123.548922,11.9591403 124.301427,11.2937428 124.301427,10.3732004 L124.301427,8.6169955 Z M122.549542,12.8089495 C121.174168,12.8089495 119.915001,12.0157269 119.915001,10.5288135 C119.915001,9.11263331 121.130784,8.41843723 122.448313,8.14965098 L124.301427,7.76718633 L124.301427,7.10128355 C124.301427,6.15295311 123.75138,5.51534362 122.578981,5.51534362 C122.028935,5.51534362 121.666369,5.68560859 121.362681,5.91195491 C121.072939,6.13880646 121.000632,6.36515278 120.696944,6.36515278 C120.480025,6.36515278 120.27705,6.19539304 120.27705,5.95439484 C120.27705,5.79878175 120.378279,5.6573153 120.480025,5.54363691 C121.000632,4.96311923 121.782576,4.66553445 122.578981,4.66553445 C124.214659,4.66553445 125.170138,5.68560859 125.170138,7.10128355 L125.170138,10.3732004 C125.170138,11.8318205 123.953839,12.8089495 122.549542,12.8089495 Z M134.187645,2.64049277 C133.926825,2.64049277 133.695444,2.32876134 133.101497,2.32876134 C132.261708,2.32876134 131.769507,2.85269244 131.769507,3.47615529 L131.769507,4.80745561 L133.941286,4.80745561 C134.231029,4.80745561 134.375642,5.01965529 134.375642,5.2323602 C134.375642,5.44455987 134.231029,5.65726478 133.941286,5.65726478 L131.769507,5.65726478 L131.769507,12.242528 C131.769507,12.5254609 131.552587,12.6674325 131.335667,12.6674325 C131.118748,12.6674325 130.901312,12.5254609 130.901312,12.242528 L130.901312,5.65726478 L129.583783,5.65726478 C129.29404,5.65726478 129.149427,5.44455987 129.149427,5.2323602 C129.149427,5.01965529 129.29404,4.80745561 129.583783,4.80745561 L130.901312,4.80745561 L130.901312,3.47615529 C130.901312,2.34341322 131.827869,1.47945741 133.101497,1.47945741 C133.594215,1.47945741 134.056977,1.62092386 134.39062,1.81948213 C134.535233,1.91850864 134.622001,2.05997509 134.622001,2.18729489 C134.622001,2.41414645 134.434004,2.64049277 134.187645,2.64049277 Z M139.904667,7.42741424 C139.904667,6.36490016 139.035955,5.51559624 137.950324,5.51559624 C136.864176,5.51559624 135.99598,6.36490016 135.99598,7.42741424 L135.99598,10.047575 C135.99598,11.1095838 136.864176,11.959393 137.950324,11.959393 C139.035955,11.959393 139.904667,11.1095838 139.904667,10.047575 L139.904667,7.42741424 Z M137.950324,12.8086969 C136.386436,12.8086969 135.127269,11.5769283 135.127269,10.047575 L135.127269,7.42741424 C135.127269,5.89806088 136.386436,4.66578707 137.950324,4.66578707 C139.513695,4.66578707 140.773378,5.89806088 140.773378,7.42741424 L140.773378,10.047575 C140.773378,11.5769283 139.513695,12.8086969 137.950324,12.8086969 Z M146.461478,6.08196727 C146.360248,6.08196727 146.258503,6.03952733 146.157274,5.95464746 C146.157274,5.95464746 146.128351,5.92635417 146.084967,5.89806088 C145.781279,5.65706268 145.37533,5.51559624 144.969896,5.51559624 C143.928165,5.51559624 143.305296,6.251727 143.305296,7.52644075 L143.305296,12.2423259 C143.305296,12.525764 143.088376,12.6672304 142.87094,12.6672304 C142.65402,12.6672304 142.436584,12.525764 142.436584,12.2423259 L142.436584,7.52644075 C142.436584,5.95464746 143.290835,4.66578707 144.969896,4.66578707 C145.563843,4.66578707 146.330809,4.92093191 146.765165,5.35947791 C146.866394,5.45900966 146.909778,5.55803617 146.909778,5.65706268 C146.909778,5.883409 146.707836,6.08196727 146.461478,6.08196727 Z M67.8671863,16.6302614 L65.7243296,16.6302614 L65.7243296,21.9691041 L67.8671863,21.9691041 C69.358251,21.9691041 70.6029568,20.8080688 70.6029568,19.3065035 C70.6029568,17.8195901 69.3727123,16.6302614 67.8671863,16.6302614 Z M71.0373127,26.8269609 C70.9071609,26.8269609 70.777009,26.7698691 70.6902412,26.6284027 L68.200313,22.8047667 C68.0985673,22.8189133 67.9828768,22.8189133 67.8671863,22.8189133 L65.7243296,22.8189133 L65.7243296,26.4020564 C65.7243296,26.6849892 65.50741,26.8269609 65.2899738,26.8269609 C65.0730541,26.8269609 64.8556179,26.6849892 64.8556179,26.4020564 L64.8556179,16.2053568 C64.8556179,15.9785053 65.0585928,15.7804523 65.2899738,15.7804523 L67.8671863,15.7804523 C69.8504521,15.7804523 71.4716685,17.3522455 71.4716685,19.2928621 C71.4716685,20.8222154 70.4872663,22.1110758 69.1118922,22.6067136 L71.4138233,26.1752048 C71.4716685,26.2605899 71.5005912,26.3313231 71.5005912,26.416203 C71.5005912,26.6425493 71.2692102,26.8269609 71.0373127,26.8269609 Z M77.6519688,21.5868921 C77.6519688,20.524378 76.7832571,19.6750741 75.6976257,19.6750741 C74.6114778,19.6750741 73.7432825,20.524378 73.7432825,21.5868921 L73.7432825,22.1532631 L77.6519688,22.1532631 L77.6519688,21.5868921 Z M78.0863247,23.0030723 L73.7432825,23.0030723 L73.7432825,24.2070528 C73.7432825,25.2266217 74.7276848,26.1188708 75.8422388,26.1188708 C76.3928016,26.1188708 77.0585385,25.9627525 77.4779166,25.4388214 C77.5791458,25.3115016 77.7242754,25.254915 77.8399659,25.254915 C78.0713469,25.254915 78.288783,25.4388214 78.288783,25.665673 C78.288783,25.7505528 78.2598604,25.8495793 78.2014987,25.9344592 C77.6519688,26.6428019 76.7254118,26.9681748 75.8422388,26.9681748 C74.3222515,26.9681748 72.8745708,25.7646995 72.8745708,24.2070528 L72.8745708,21.5868921 C72.8745708,20.0575388 74.133738,18.8252649 75.6976257,18.8252649 C77.2609969,18.8252649 78.5206805,20.0575388 78.5206805,21.5868921 L78.5206805,22.5781677 C78.5206805,22.8050193 78.3177057,23.0030723 78.0863247,23.0030723 Z M82.1091004,26.9683769 C81.3705405,26.9683769 80.3572156,26.6424988 79.9083984,25.9912479 C79.8510697,25.906368 79.8216306,25.8209829 79.8216306,25.7502497 C79.8216306,25.5097567 80.0390667,25.3258503 80.2704477,25.3258503 C80.4005995,25.3258503 80.5168065,25.3682903 80.6180357,25.5097567 C80.6180357,25.5097567 80.6469583,25.53805 80.6903423,25.58049 C81.0523916,25.948808 81.5879766,26.1185677 82.1091004,26.1185677 C83.2386322,26.1185677 83.9332917,25.4814634 83.9332917,24.7306808 C83.9332917,22.7198363 79.8650145,23.455967 79.8650145,20.8504582 C79.8650145,19.5050112 81.0668529,18.8249618 82.2103295,18.8249618 C83.0217125,18.8249618 83.9766756,19.2503716 84.4254928,19.9440625 C84.4688767,20.0147957 84.4977993,20.0996755 84.4977993,20.1845554 C84.4977993,20.411407 84.2664183,20.5953134 84.0489822,20.5953134 C83.9188304,20.5953134 83.7886785,20.5387268 83.6874494,20.3972603 C83.6874494,20.3972603 83.6580103,20.368967 83.6146263,20.2982338 C83.2675548,19.9157692 82.7608924,19.674771 82.2103295,19.674771 C81.3421343,19.674771 80.7337262,20.1567674 80.7337262,20.8504582 C80.7337262,22.6066631 84.8020034,21.954907 84.8020034,24.7306808 C84.8020034,26.104421 83.5423198,26.9683769 82.1091004,26.9683769 Z M86.6826971,26.8267588 C86.4657774,26.8267588 86.2483413,26.6852924 86.2483413,26.4018543 L86.2483413,19.3916865 C86.2483413,19.1087536 86.4657774,18.9667819 86.6826971,18.9667819 C86.9001333,18.9667819 87.117053,19.1087536 87.117053,19.3916865 L87.117053,26.4018543 C87.117053,26.6852924 86.9001333,26.8267588 86.6826971,26.8267588 Z M86.6826971,15.9505151 C87.0013625,15.9505151 87.2616661,16.2051547 87.2616661,16.5168862 C87.2616661,16.8281124 87.0013625,17.0832572 86.6826971,17.0832572 C86.3645482,17.0832572 86.1037281,16.8281124 86.1037281,16.5168862 C86.1037281,16.2051547 86.3645482,15.9505151 86.6826971,15.9505151 Z M90.3156888,26.9683769 C90.2723049,26.9683769 90.1999983,26.9683769 90.142153,26.9400836 C90.142153,26.9400836 90.0553852,26.9117903 89.910772,26.8127638 C89.1577508,26.3454192 88.8535468,25.4531701 88.8535468,24.603361 L88.8535468,16.2053063 C88.8535468,15.9218682 89.0709829,15.7804017 89.2879026,15.7804017 C89.5053388,15.7804017 89.7222585,15.9218682 89.7222585,16.2053063 L89.7222585,24.603361 C89.7222585,25.1272921 89.8963107,25.906368 90.4603019,26.146861 C90.648299,26.2317409 90.7355833,26.3878592 90.7355833,26.5434723 C90.7355833,26.7561772 90.5615311,26.9683769 90.3156888,26.9683769 Z M92.1821278,26.8267588 C91.9652081,26.8267588 91.7477719,26.6852924 91.7477719,26.4018543 L91.7477719,19.3916865 C91.7477719,19.1087536 91.9652081,18.9667819 92.1821278,18.9667819 C92.399564,18.9667819 92.6164837,19.1087536 92.6164837,19.3916865 L92.6164837,26.4018543 C92.6164837,26.6852924 92.399564,26.8267588 92.1821278,26.8267588 Z M92.1821278,15.9505151 C92.5007932,15.9505151 92.7610968,16.2051547 92.7610968,16.5168862 C92.7610968,16.8281124 92.5007932,17.0832572 92.1821278,17.0832572 C91.8639789,17.0832572 91.6031588,16.8281124 91.6031588,16.5168862 C91.6031588,16.2051547 91.8639789,15.9505151 92.1821278,15.9505151 Z M99.0586886,21.5868921 C99.0586886,20.524378 98.1899769,19.6750741 97.1043455,19.6750741 C96.0181976,19.6750741 95.1500024,20.524378 95.1500024,21.5868921 L95.1500024,22.1532631 L99.0586886,22.1532631 L99.0586886,21.5868921 Z M99.4930445,23.0030723 L95.1500024,23.0030723 L95.1500024,24.2070528 C95.1500024,25.2266217 96.1344046,26.1188708 97.2489586,26.1188708 C97.7995215,26.1188708 98.4652583,25.9627525 98.8846364,25.4388214 C98.9858656,25.3115016 99.1309952,25.254915 99.2466857,25.254915 C99.4780667,25.254915 99.6955029,25.4388214 99.6955029,25.665673 C99.6955029,25.7505528 99.6665802,25.8495793 99.6082185,25.9344592 C99.0586886,26.6428019 98.1321317,26.9681748 97.2489586,26.9681748 C95.7289714,26.9681748 94.2812906,25.7646995 94.2812906,24.2070528 L94.2812906,21.5868921 C94.2812906,20.0575388 95.5404578,18.8252649 97.1043455,18.8252649 C98.6677167,18.8252649 99.9274004,20.0575388 99.9274004,21.5868921 L99.9274004,22.5781677 C99.9274004,22.8050193 99.7244255,23.0030723 99.4930445,23.0030723 Z M106.729692,26.8267588 C106.512772,26.8267588 106.295336,26.6852924 106.295336,26.4018543 L106.295336,21.5869426 C106.295336,20.5244286 105.427141,19.6751246 104.340993,19.6751246 C103.255362,19.6751246 102.38665,20.5244286 102.38665,21.5869426 L102.38665,26.4018543 C102.38665,26.6852924 102.16973,26.8267588 101.952294,26.8267588 C101.735374,26.8267588 101.517938,26.6852924 101.517938,26.4018543 L101.517938,21.5869426 C101.517938,20.0575893 102.777622,18.8253155 104.340993,18.8253155 C105.904364,18.8253155 107.164048,20.0575893 107.164048,21.5869426 L107.164048,26.4018543 C107.164048,26.6852924 106.947128,26.8267588 106.729692,26.8267588 Z M113.923524,25.9344592 C113.923524,25.9344592 113.865678,26.0051924 113.763933,26.1188708 C113.199942,26.6993885 112.374614,26.9681748 111.564264,26.9681748 C109.956992,26.9681748 108.827977,25.9910458 108.827977,24.5324257 L108.827977,21.261014 C108.827977,19.8023939 109.956992,18.8252649 111.564264,18.8252649 C112.360153,18.8252649 113.445784,19.1652897 113.923524,19.8589805 C113.981369,19.9443656 113.996347,20.0292455 113.996347,20.0999787 C113.996347,20.3404717 113.778911,20.524378 113.547013,20.524378 C113.431323,20.524378 113.301171,20.4819381 113.199942,20.3404717 C113.199942,20.3404717 113.184964,20.3121784 113.127635,20.2555918 C112.736663,19.8448338 112.128255,19.6750741 111.564264,19.6750741 C110.361909,19.6750741 109.696172,20.3546183 109.696172,21.261014 L109.696172,24.5324257 C109.696172,25.4388214 110.361909,26.1188708 111.564264,26.1188708 C112.113794,26.1188708 112.866815,25.9203126 113.199942,25.4529681 C113.301171,25.3256482 113.431323,25.2690617 113.547013,25.2690617 C113.778911,25.2690617 114.010292,25.4529681 114.010292,25.6798196 C114.010292,25.7646995 113.981369,25.8495793 113.923524,25.9344592 Z M120.162082,21.5868921 C120.162082,20.524378 119.293371,19.6750741 118.207739,19.6750741 C117.121591,19.6750741 116.253396,20.524378 116.253396,21.5868921 L116.253396,22.1532631 L120.162082,22.1532631 L120.162082,21.5868921 Z M120.596438,23.0030723 L116.253396,23.0030723 L116.253396,24.2070528 C116.253396,25.2266217 117.237798,26.1188708 118.352352,26.1188708 C118.902915,26.1188708 119.568652,25.9627525 119.98803,25.4388214 C120.089259,25.3115016 120.234389,25.254915 120.350079,25.254915 C120.58146,25.254915 120.798897,25.4388214 120.798897,25.665673 C120.798897,25.7505528 120.769974,25.8495793 120.711612,25.9344592 C120.162082,26.6428019 119.235525,26.9681748 118.352352,26.9681748 C116.832365,26.9681748 115.384684,25.7646995 115.384684,24.2070528 L115.384684,21.5868921 C115.384684,20.0575388 116.643852,18.8252649 118.207739,18.8252649 C119.77111,18.8252649 121.030794,20.0575388 121.030794,21.5868921 L121.030794,22.5781677 C121.030794,22.8050193 120.827819,23.0030723 120.596438,23.0030723 Z M130.438653,26.8267588 L125.805868,26.8267588 C125.516642,26.8267588 125.371512,26.6145592 125.371512,26.4018543 C125.371512,26.1896546 125.516642,25.9769497 125.805868,25.9769497 L127.688421,25.9769497 L127.688421,16.6300593 L125.805868,16.6300593 C125.516642,16.6300593 125.371512,16.4173544 125.371512,16.2051547 C125.371512,15.9929551 125.516642,15.7802502 125.805868,15.7802502 L130.438653,15.7802502 C130.728396,15.7802502 130.873009,15.9929551 130.873009,16.2051547 C130.873009,16.4173544 130.728396,16.6300593 130.438653,16.6300593 L128.556616,16.6300593 L128.556616,25.9769497 L130.438653,25.9769497 C130.728396,25.9769497 130.873009,26.1896546 130.873009,26.4018543 C130.873009,26.6145592 130.728396,26.8267588 130.438653,26.8267588 Z M137.386332,26.8267588 C137.169413,26.8267588 136.951976,26.6852924 136.951976,26.4018543 L136.951976,21.5869426 C136.951976,20.5244286 136.083781,19.6751246 134.997633,19.6751246 C133.912002,19.6751246 133.04329,20.5244286 133.04329,21.5869426 L133.04329,26.4018543 C133.04329,26.6852924 132.826371,26.8267588 132.608934,26.8267588 C132.392015,26.8267588 132.174578,26.6852924 132.174578,26.4018543 L132.174578,21.5869426 C132.174578,20.0575893 133.434262,18.8253155 134.997633,18.8253155 C136.561005,18.8253155 137.820688,20.0575893 137.820688,21.5869426 L137.820688,26.4018543 C137.820688,26.6852924 137.603769,26.8267588 137.386332,26.8267588 Z M139.990402,26.8267588 C139.773482,26.8267588 139.556046,26.6852924 139.556046,26.4018543 L139.556046,19.3916865 C139.556046,19.1087536 139.773482,18.9667819 139.990402,18.9667819 C140.207838,18.9667819 140.424757,19.1087536 140.424757,19.3916865 L140.424757,26.4018543 C140.424757,26.6852924 140.207838,26.8267588 139.990402,26.8267588 Z M139.990402,15.9505151 C140.309067,15.9505151 140.569371,16.2051547 140.569371,16.5168862 C140.569371,16.8281124 140.309067,17.0832572 139.990402,17.0832572 C139.672253,17.0832572 139.411433,16.8281124 139.411433,16.5168862 C139.411433,16.2051547 139.672253,15.9505151 139.990402,15.9505151 Z M146.780246,26.4584408 C146.345374,26.7701723 145.795844,26.9682253 145.245281,26.9682253 C143.971653,26.9682253 143.045096,26.1042695 143.045096,24.9715274 L143.045096,19.8165911 L141.727567,19.8165911 C141.437824,19.8165911 141.293211,19.6043914 141.293211,19.3916865 C141.293211,19.1794868 141.437824,18.9667819 141.727567,18.9667819 L143.045096,18.9667819 L143.045096,17.1681371 C143.045096,16.8852042 143.262015,16.7432325 143.478935,16.7432325 C143.696371,16.7432325 143.913291,16.8852042 143.913291,17.1681371 L143.913291,18.9667819 L146.476042,18.9667819 C146.765785,18.9667819 146.910398,19.1794868 146.910398,19.3916865 C146.910398,19.6043914 146.765785,19.8165911 146.476042,19.8165911 L143.913291,19.8165911 L143.913291,24.9715274 C143.913291,25.5949903 144.405492,26.1189214 145.245281,26.1189214 C146.041686,26.1189214 146.316968,25.6086317 146.649578,25.6086317 C146.880959,25.6086317 147.069989,25.8213366 147.069989,26.0481881 C147.069989,26.2320945 146.924859,26.3452677 146.780246,26.4584408 Z M148.515759,26.8267588 C148.298839,26.8267588 148.081403,26.6852924 148.081403,26.4018543 L148.081403,19.3916865 C148.081403,19.1087536 148.298839,18.9667819 148.515759,18.9667819 C148.733195,18.9667819 148.950115,19.1087536 148.950115,19.3916865 L148.950115,26.4018543 C148.950115,26.6852924 148.733195,26.8267588 148.515759,26.8267588 Z M148.515759,15.9505151 C148.834424,15.9505151 149.094728,16.2051547 149.094728,16.5168862 C149.094728,16.8281124 148.834424,17.0832572 148.515759,17.0832572 C148.19761,17.0832572 147.93679,16.8281124 147.93679,16.5168862 C147.93679,16.2051547 148.19761,15.9505151 148.515759,15.9505151 Z M154.783602,22.7764734 L152.916026,23.1730847 C151.917163,23.3852843 151.265371,23.9521606 151.265371,24.6741447 C151.265371,25.5522472 151.960547,26.1186182 153.017255,26.1186182 C154.031097,26.1186182 154.783602,25.4532207 154.783602,24.5326783 L154.783602,22.7764734 Z M153.031717,26.9684274 C151.656343,26.9684274 150.397175,26.1752048 150.397175,24.6882914 C150.397175,23.2721112 151.612959,22.5779151 152.930488,22.3091289 L154.783602,21.9266642 L154.783602,21.2607614 C154.783602,20.312431 154.233555,19.6748215 153.061156,19.6748215 C152.51111,19.6748215 152.148544,19.8450865 151.844856,20.0714328 C151.555113,20.2982843 151.482807,20.5246307 151.179119,20.5246307 C150.9622,20.5246307 150.759225,20.3548709 150.759225,20.1138727 C150.759225,19.9582596 150.860454,19.8167932 150.9622,19.7031148 C151.482807,19.1225971 152.264751,18.8250123 153.061156,18.8250123 C154.696834,18.8250123 155.652313,19.8450865 155.652313,21.2607614 L155.652313,24.5326783 C155.652313,25.9912984 154.436014,26.9684274 153.031717,26.9684274 Z M161.934566,26.4584408 C161.499693,26.7701723 160.950164,26.9682253 160.399601,26.9682253 C159.125972,26.9682253 158.199415,26.1042695 158.199415,24.9715274 L158.199415,19.8165911 L156.881886,19.8165911 C156.592144,19.8165911 156.447531,19.6043914 156.447531,19.3916865 C156.447531,19.1794868 156.592144,18.9667819 156.881886,18.9667819 L158.199415,18.9667819 L158.199415,17.1681371 C158.199415,16.8852042 158.416335,16.7432325 158.633255,16.7432325 C158.850691,16.7432325 159.067611,16.8852042 159.067611,17.1681371 L159.067611,18.9667819 L161.630362,18.9667819 C161.920104,18.9667819 162.064718,19.1794868 162.064718,19.3916865 C162.064718,19.6043914 161.920104,19.8165911 161.630362,19.8165911 L159.067611,19.8165911 L159.067611,24.9715274 C159.067611,25.5949903 159.559812,26.1189214 160.399601,26.1189214 C161.196006,26.1189214 161.471287,25.6086317 161.803897,25.6086317 C162.035278,25.6086317 162.224309,25.8213366 162.224309,26.0481881 C162.224309,26.2320945 162.079179,26.3452677 161.934566,26.4584408 Z M163.670078,26.8267588 C163.453159,26.8267588 163.235722,26.6852924 163.235722,26.4018543 L163.235722,19.3916865 C163.235722,19.1087536 163.453159,18.9667819 163.670078,18.9667819 C163.887514,18.9667819 164.104434,19.1087536 164.104434,19.3916865 L164.104434,26.4018543 C164.104434,26.6852924 163.887514,26.8267588 163.670078,26.8267588 Z M163.670078,15.9505151 C163.988744,15.9505151 164.249047,16.2051547 164.249047,16.5168862 C164.249047,16.8281124 163.988744,17.0832572 163.670078,17.0832572 C163.351929,17.0832572 163.091109,16.8281124 163.091109,16.5168862 C163.091109,16.2051547 163.351929,15.9505151 163.670078,15.9505151 Z M171.603348,19.5474512 L168.8526,26.5576189 C168.765832,26.7844705 168.606757,26.8976436 168.447683,26.8976436 C168.288092,26.8976436 168.128501,26.7844705 168.041733,26.5576189 L165.290985,19.5474512 C165.27704,19.4908646 165.262579,19.434278 165.262579,19.3776914 C165.262579,19.1366932 165.49396,18.9669335 165.711396,18.9669335 C165.87047,18.9669335 166.029545,19.0518134 166.102368,19.2357197 L168.447683,25.2121719 L170.792998,19.2357197 C170.879766,19.0518134 171.024379,18.9669335 171.18397,18.9669335 C171.415351,18.9669335 171.646732,19.1366932 171.646732,19.3776914 C171.646732,19.434278 171.632271,19.4908646 171.603348,19.5474512 Z M177.508522,21.5868921 C177.508522,20.524378 176.63981,19.6750741 175.554179,19.6750741 C174.468031,19.6750741 173.599835,20.524378 173.599835,21.5868921 L173.599835,22.1532631 L177.508522,22.1532631 L177.508522,21.5868921 Z M177.942878,23.0030723 L173.599835,23.0030723 L173.599835,24.2070528 C173.599835,25.2266217 174.584238,26.1188708 175.698792,26.1188708 C176.249355,26.1188708 176.915091,25.9627525 177.334469,25.4388214 C177.435699,25.3115016 177.580828,25.254915 177.696519,25.254915 C177.9279,25.254915 178.145336,25.4388214 178.145336,25.665673 C178.145336,25.7505528 178.116413,25.8495793 178.058052,25.9344592 C177.508522,26.6428019 176.581965,26.9681748 175.698792,26.9681748 C174.178804,26.9681748 172.731124,25.7646995 172.731124,24.2070528 L172.731124,21.5868921 C172.731124,20.0575388 173.990291,18.8252649 175.554179,18.8252649 C177.11755,18.8252649 178.377233,20.0575388 178.377233,21.5868921 L178.377233,22.5781677 C178.377233,22.8050193 178.174259,23.0030723 177.942878,23.0030723 L177.942878,23.0030723 Z" id="Fill-1-Copy" fill="#222222" sketch:type="MSShapeGroup"></path>
                <path d="M51.5078545,1.33071555 C51.5078545,0.959366121 51.2000351,0.658244681 50.8204256,0.658244681 C50.4408162,0.658244681 50.1329968,0.959366121 50.1329968,1.33071555 L50.1329968,25.0394818 L45.4795529,25.0394818 L39.8360256,16.3958818 C43.2044785,15.382881 45.7047362,12.3095224 45.7047362,8.69606514 C45.7047362,4.2383563 41.9892118,0.658244681 37.4054921,0.658244681 L31.2243138,0.658244681 C30.842122,0.658244681 30.5296543,0.962397545 30.5296543,1.33374697 L30.5296543,25.6498085 C30.5296543,26.0888597 30.8767258,26.3248056 31.2243138,26.3248056 C31.5713853,26.3248056 31.9184568,26.0888597 31.9184568,25.6498085 L31.9184568,2.00924926 L37.4054921,2.00924926 C41.2248281,2.00924926 44.3154172,4.98105516 44.3154172,8.69606514 C44.3154172,11.7537614 42.2216257,14.3304717 39.3505387,15.14643 C38.7932616,15.3050745 38.4193334,15.8173851 38.4193334,16.3847666 C38.4193334,16.6328381 38.49164,16.8748468 38.6279895,17.0835098 L44.4579645,26.0100427 C44.6139401,26.2495252 44.8845732,26.3945283 45.1748324,26.3945283 L50.5849128,26.3945283 C51.0946741,26.3945283 51.5078545,25.9898332 51.5078545,25.4916692 L51.5078545,1.33071555 Z M27.0474218,9.29704493 C27.0474218,5.45673609 23.8726472,2.35154755 19.9474337,2.35154755 L13.5297097,2.35154755 L13.5297097,25.0584282 L19.9474337,25.0584282 C23.8726472,25.0584282 27.0474218,21.9532397 27.0474218,18.1129309 L27.0474218,9.29704493 Z M19.9474337,26.3942757 L12.8469291,26.3942757 C12.4714515,26.3942757 12.1641486,26.0936595 12.1641486,25.726352 L12.1641486,1.68362381 C12.1641486,1.31631628 12.4714515,1.01570008 12.8469291,1.01570008 L19.9474337,1.01570008 C24.6236025,1.01570008 28.412983,4.72212103 28.412983,9.29704493 L28.412983,18.1129309 C28.412983,22.6878547 24.6236025,26.3942757 19.9474337,26.3942757 Z M3.53467004,21.5210092 C2.33231518,21.5210092 1.35101181,22.4814653 1.35101181,23.6576578 C1.35101181,24.833345 2.33231518,25.7938011 3.53467004,25.7938011 L6.66709369,25.7938011 C7.86944856,25.7938011 8.85126841,24.833345 8.85126841,23.6576578 C8.85126841,22.4814653 7.86944856,21.5210092 6.66709369,21.5210092 L3.53467004,21.5210092 Z M9.51287347,23.6576578 C9.51287347,25.1895373 8.23356376,26.4410101 6.66709369,26.4410101 L3.53467004,26.4410101 C1.96871646,26.4410101 0.688890273,25.1895373 0.688890273,23.6576578 C0.688890273,22.125273 1.96871646,20.8738002 3.53467004,20.8738002 L6.66709369,20.8738002 C8.23356376,20.8738002 9.51287347,22.125273 9.51287347,23.6576578 Z M1.46081449,17.0021161 L1.46081449,18.5991712 L5.61947488,18.5991712 L5.61947488,17.0021161 C5.61947488,15.879984 4.70376389,14.9629783 3.54530944,14.9629783 C2.38737146,14.9629783 1.46081449,15.879984 1.46081449,17.0021161 Z M6.28107994,17.0021161 L6.28107994,18.5991712 L9.07159684,18.5991712 C9.29213186,18.5991712 9.40214113,18.7608472 9.40214113,18.9225231 C9.40214113,19.0847043 9.29213186,19.2463802 9.07159684,19.2463802 L1.1302702,19.2463802 C0.953635592,19.2463802 0.799209431,19.0953143 0.799209431,18.9225231 L0.799209431,17.0021161 C0.799209431,15.5237917 2.02325627,14.315264 3.53446345,14.315264 C5.0570331,14.315264 6.28107994,15.5237917 6.28107994,17.0021161 Z M9.40229607,8.31819815 L9.40229607,12.3641386 C9.40229607,12.5369297 9.24786991,12.6879957 9.07175178,12.6879957 L1.12990867,12.6879957 C0.95327406,12.6879957 0.799364373,12.5369297 0.799364373,12.3641386 L0.799364373,8.31819815 C0.799364373,8.10246182 0.96463652,7.99484627 1.12990867,7.99484627 C1.29569729,7.99484627 1.46096943,8.10246182 1.46096943,8.31819815 L1.46096943,12.0407867 L4.57118464,12.0407867 L4.57118464,8.64205527 C4.57118464,8.42631894 4.73697326,8.31819815 4.90224541,8.31819815 C5.06751755,8.31819815 5.23330618,8.42631894 5.23330618,8.64205527 L5.23330618,12.0407867 L8.74069101,12.0407867 L8.74069101,8.31819815 C8.74069101,8.10246182 8.90596316,7.99484627 9.07175178,7.99484627 C9.23702392,7.99484627 9.40229607,8.10246182 9.40229607,8.31819815 Z M9.45755894,1.30686835 C9.45755894,1.41498913 9.39145009,1.5337199 9.24786991,1.61961025 L2.31005509,5.7201163 L9.07175178,5.7201163 C9.2922868,5.7201163 9.40229607,5.88179224 9.40229607,6.04397342 C9.40229607,6.20564936 9.2922868,6.3673253 9.07175178,6.3673253 L1.12990867,6.3673253 C0.887681676,6.3673253 0.744101499,6.22686933 0.744101499,6.07630861 C0.744101499,5.96818782 0.810210358,5.84945705 0.953790535,5.76306147 L7.89160536,1.66306065 L1.12990867,1.66306065 C0.909890121,1.66306065 0.799364373,1.50138471 0.799364373,1.33920354 C0.799364373,1.17752759 0.909890121,1.01534642 1.12990867,1.01534642 L9.07175178,1.01534642 C9.31397877,1.01534642 9.45755894,1.15580239 9.45755894,1.30686835 Z" id="Fill-65-Copy" fill="#1477C9" sketch:type="MSShapeGroup"></path>
            </g>
        </g>
    </g>
</svg>