<?xml version="1.0" encoding="UTF-8" standalone="no"?>
<svg width="95px" height="49px" viewBox="0 0 95 49" version="1.1" xmlns="http://www.w3.org/2000/svg" xmlns:xlink="http://www.w3.org/1999/xlink" xmlns:sketch="http://www.bohemiancoding.com/sketch/ns">
    <!-- Generator: Sketch 3.5.2 (25235) - http://www.bohemiancoding.com/sketch -->
    <title>ODRI-symbol-white</title>
    <desc>Created with Sketch.</desc>
    <defs></defs>
    <g id="Page-1" stroke="none" stroke-width="1" fill="none" fill-rule="evenodd" sketch:type="MSPage">
        <g id="1-7" sketch:type="MSArtboardGroup" transform="translate(-834.000000, -659.000000)" fill="#FFFFFF">
            <path d="M929,660.257104 C929,659.562911 928.424568,659 927.714934,659 C927.005299,659 926.429867,659.562911 926.429867,660.257104 L926.429867,704.577819 L917.730808,704.577819 L907.180906,688.419638 C913.477828,686.525954 918.151762,680.780676 918.151762,674.025748 C918.151762,665.692592 911.206031,659 902.637313,659 L891.082337,659 C890.367875,659 889.783754,659.568578 889.783754,660.262771 L889.783754,705.718752 C889.783754,706.539506 890.432563,706.980578 891.082337,706.980578 C891.731146,706.980578 892.379955,706.539506 892.379955,705.718752 L892.379955,661.525542 L902.637313,661.525542 C909.777107,661.525542 915.554595,667.080979 915.554595,674.025748 C915.554595,679.741747 911.640502,684.5586 906.273346,686.083937 C905.231583,686.380504 904.532569,687.338207 904.532569,688.398859 C904.532569,688.8626 904.667738,689.315006 904.922627,689.705077 L915.82107,706.392167 C916.112648,706.839851 916.618565,707.110917 917.16117,707.110917 L927.274671,707.110917 C928.227609,707.110917 929,706.354387 929,705.423129 L929,660.257104 Z M883.274135,675.149208 C883.274135,667.970208 877.339272,662.165428 870.001553,662.165428 L858.004382,662.165428 L858.004382,704.613237 L870.001553,704.613237 C877.339272,704.613237 883.274135,698.808457 883.274135,691.629457 L883.274135,675.149208 Z M870.001553,707.110444 L856.728005,707.110444 C856.026095,707.110444 855.451628,706.548478 855.451628,705.86184 L855.451628,660.916824 C855.451628,660.230186 856.026095,659.66822 856.728005,659.66822 L870.001553,659.66822 C878.743093,659.66822 885.826889,666.596933 885.826889,675.149208 L885.826889,691.629457 C885.826889,700.181732 878.743093,707.110444 870.001553,707.110444 Z M839.319846,698.000453 C837.072187,698.000453 835.237757,699.795911 835.237757,701.994663 C835.237757,704.19247 837.072187,705.987929 839.319846,705.987929 L845.175539,705.987929 C847.423198,705.987929 849.258594,704.19247 849.258594,701.994663 C849.258594,699.795911 847.423198,698.000453 845.175539,698.000453 L839.319846,698.000453 Z M850.495385,701.994663 C850.495385,704.858329 848.103868,707.197809 845.175539,707.197809 L839.319846,707.197809 C836.392483,707.197809 834,704.858329 834,701.994663 C834,699.130052 836.392483,696.790573 839.319846,696.790573 L845.175539,696.790573 C848.103868,696.790573 850.495385,699.130052 850.495385,701.994663 Z M835.44302,689.552921 L835.44302,692.538425 L843.217141,692.538425 L843.217141,689.552921 C843.217141,687.455228 841.505328,685.740995 839.339735,685.740995 C837.175108,685.740995 835.44302,687.455228 835.44302,689.552921 Z M844.453932,689.552921 L844.453932,692.538425 L849.670471,692.538425 C850.082735,692.538425 850.288385,692.840659 850.288385,693.142893 C850.288385,693.446071 850.082735,693.748305 849.670471,693.748305 L834.825107,693.748305 C834.49491,693.748305 834.206229,693.465905 834.206229,693.142893 L834.206229,689.552921 C834.206229,686.789369 836.494438,684.530171 839.31946,684.530171 C842.165723,684.530171 844.453932,686.789369 844.453932,689.552921 Z M850.288674,673.319371 L850.288674,680.882774 C850.288674,681.205787 849.999993,681.488187 849.670761,681.488187 L834.824431,681.488187 C834.494234,681.488187 834.206518,681.205787 834.206518,680.882774 L834.206518,673.319371 C834.206518,672.916077 834.515475,672.714903 834.824431,672.714903 C835.134353,672.714903 835.44331,672.916077 835.44331,673.319371 L835.44331,680.278306 L841.257487,680.278306 L841.257487,673.924783 C841.257487,673.521489 841.567409,673.319371 841.876366,673.319371 C842.185322,673.319371 842.495244,673.521489 842.495244,673.924783 L842.495244,680.278306 L849.051882,680.278306 L849.051882,673.319371 C849.051882,672.916077 849.360839,672.714903 849.670761,672.714903 C849.979718,672.714903 850.288674,672.916077 850.288674,673.319371 Z M850.391982,660.212525 C850.391982,660.414644 850.268399,660.636597 849.999993,660.797158 L837.030575,668.462566 L849.670761,668.462566 C850.083025,668.462566 850.288674,668.7648 850.288674,669.067978 C850.288674,669.370212 850.083025,669.672446 849.670761,669.672446 L834.824431,669.672446 C834.371617,669.672446 834.103211,669.40988 834.103211,669.128425 C834.103211,668.926306 834.226793,668.704353 834.495199,668.542847 L847.464618,660.878384 L834.824431,660.878384 C834.413133,660.878384 834.206518,660.57615 834.206518,660.272971 C834.206518,659.970738 834.413133,659.667559 834.824431,659.667559 L849.670761,659.667559 C850.123576,659.667559 850.391982,659.930125 850.391982,660.212525 Z" id="ODRI-symbol-white" sketch:type="MSShapeGroup"></path>
        </g>
    </g>
</svg>