<?xml version="1.0" encoding="UTF-8" standalone="no"?>
<svg width="201px" height="48px" viewBox="0 0 201 48" version="1.1" xmlns="http://www.w3.org/2000/svg" xmlns:xlink="http://www.w3.org/1999/xlink">
    <!-- Generator: Sketch 3.7 (28169) - http://www.bohemiancoding.com/sketch -->
    <title>ODRI-full-neg+bg</title>
    <desc>Created with Sketch.</desc>
    <defs></defs>
    <g id="Page-1" stroke="none" stroke-width="1" fill="none" fill-rule="evenodd">
        <g id="1-7" transform="translate(-541.000000, -403.000000)">
            <g id="ODRI-full-neg+bg" transform="translate(541.000000, 403.000000)">
                <rect id="Rectangle-37" fill="#000000" x="5.68434189e-14" y="0" width="201" height="47.9996525"></rect>
                <path d="M83.1677744,15.1331316 C83.1677744,13.5896316 81.8791681,12.3290645 80.3013356,12.3290645 C78.7235031,12.3290645 77.4343803,13.5896316 77.4343803,15.1331316 L77.4343803,19.1548206 C77.4343803,20.6988259 78.7235031,21.959393 80.3013356,21.959393 C81.8791681,21.959393 83.1677744,20.6988259 83.1677744,19.1548206 L83.1677744,15.1331316 Z M80.3013356,22.8086969 C78.2457633,22.8086969 76.5661851,21.1661704 76.5661851,19.1548206 L76.5661851,15.1331316 C76.5661851,13.1222871 78.2457633,11.4792553 80.3013356,11.4792553 C82.3569079,11.4792553 84.0364861,13.1222871 84.0364861,15.1331316 L84.0364861,19.1548206 C84.0364861,21.1661704 82.3569079,22.8086969 80.3013356,22.8086969 Z M90.4039571,17.4274142 C90.4039571,16.3649002 89.5352454,15.5155962 88.4496139,15.5155962 C87.3639825,15.5155962 86.4952708,16.3649002 86.4952708,17.4274142 L86.4952708,20.047575 C86.4952708,21.1095838 87.3639825,21.959393 88.4496139,21.959393 C89.5352454,21.959393 90.4039571,21.1095838 90.4039571,20.047575 L90.4039571,17.4274142 Z M86.4952708,25.0746863 C86.4952708,25.3581244 86.2783511,25.4995908 86.0609149,25.4995908 C85.8439953,25.4995908 85.6265591,25.3581244 85.6265591,25.0746863 L85.6265591,17.4274142 C85.6265591,15.8980609 86.8857263,14.6657871 88.4496139,14.6657871 C90.0129852,14.6657871 91.2726688,15.8980609 91.2726688,17.4274142 L91.2726688,20.047575 C91.2726688,21.5769283 90.0129852,22.8086969 88.4496139,22.8086969 C87.6821314,22.8086969 86.9874719,22.4408841 86.4952708,21.9164478 L86.4952708,25.0746863 Z M97.6416892,17.4274142 C97.6416892,16.3649002 96.7729775,15.5155962 95.6873461,15.5155962 C94.6011982,15.5155962 93.7330029,16.3649002 93.7330029,17.4274142 L93.7330029,17.9937853 L97.6416892,17.9937853 L97.6416892,17.4274142 Z M98.0760451,18.8435944 L93.7330029,18.8435944 L93.7330029,20.047575 C93.7330029,21.0671439 94.7174052,21.959393 95.8319592,21.959393 C96.382522,21.959393 97.0482589,21.8032746 97.467637,21.2793435 C97.5688662,21.1520237 97.7139958,21.0954372 97.8296863,21.0954372 C98.0610673,21.0954372 98.2785034,21.2793435 98.2785034,21.5061951 C98.2785034,21.591075 98.2495808,21.6901015 98.1912191,21.7749813 C97.6416892,22.4833241 96.7151322,22.8086969 95.8319592,22.8086969 C94.3119719,22.8086969 92.8642912,21.6052216 92.8642912,20.047575 L92.8642912,17.4274142 C92.8642912,15.8980609 94.1234584,14.6657871 95.6873461,14.6657871 C97.2507173,14.6657871 98.5104009,15.8980609 98.5104009,17.4274142 L98.5104009,18.4186899 C98.5104009,18.6455414 98.3074261,18.8435944 98.0760451,18.8435944 Z M105.312434,22.667281 C105.095515,22.667281 104.878078,22.5258145 104.878078,22.2423764 L104.878078,17.4274648 C104.878078,16.3649507 104.009883,15.5156468 102.923735,15.5156468 C101.83862,15.5156468 100.969392,16.3649507 100.969392,17.4274648 L100.969392,22.2423764 C100.969392,22.5258145 100.752473,22.667281 100.535036,22.667281 C100.318633,22.667281 100.101197,22.5258145 100.101197,22.2423764 L100.101197,17.4274648 C100.101197,15.8981114 101.360364,14.6658376 102.923735,14.6658376 C104.487107,14.6658376 105.74679,15.8981114 105.74679,17.4274648 L105.74679,22.2423764 C105.74679,22.5258145 105.529871,22.667281 105.312434,22.667281 Z M117.123763,15.2747496 C117.123763,13.7312496 115.835157,12.4706825 114.257324,12.4706825 L111.680112,12.4706825 L111.680112,21.8175728 L114.257324,21.8175728 C115.835157,21.8175728 117.123763,20.5570057 117.123763,19.0135057 L117.123763,15.2747496 Z M114.257324,22.667382 L111.245756,22.667382 C111.014375,22.667382 110.8114,22.4688237 110.8114,22.2424774 L110.8114,12.0457779 C110.8114,11.8194316 111.014375,11.6208733 111.245756,11.6208733 L114.257324,11.6208733 C116.312897,11.6208733 117.992475,13.2639051 117.992475,15.2747496 L117.992475,19.0135057 C117.992475,21.0243503 116.312897,22.667382 114.257324,22.667382 Z M123.752209,18.6169955 L121.88515,19.0136068 C120.88577,19.2258065 120.233978,19.7926827 120.233978,20.5146669 C120.233978,21.3927693 120.929154,21.9591403 121.985863,21.9591403 C122.999705,21.9591403 123.752209,21.2937428 123.752209,20.3732004 L123.752209,18.6169955 Z M122.000324,22.8089495 C120.62495,22.8089495 119.365783,22.0157269 119.365783,20.5288135 C119.365783,19.1126333 120.581566,18.4184372 121.899095,18.149651 L123.752209,17.7671863 L123.752209,17.1012836 C123.752209,16.1529531 123.202163,15.5153436 122.029764,15.5153436 C121.479717,15.5153436 121.117151,15.6856086 120.813464,15.9119549 C120.523721,16.1388065 120.451415,16.3651528 120.147727,16.3651528 C119.930807,16.3651528 119.727832,16.195393 119.727832,15.9543948 C119.727832,15.7987818 119.829062,15.6573153 119.930807,15.5436369 C120.451415,14.9631192 121.233358,14.6655345 122.029764,14.6655345 C123.665441,14.6655345 124.620921,15.6856086 124.620921,17.1012836 L124.620921,20.3732004 C124.620921,21.8318205 123.404621,22.8089495 122.000324,22.8089495 Z M130.903173,22.298963 C130.468301,22.6106944 129.918771,22.8087474 129.368208,22.8087474 C128.09458,22.8087474 127.168023,21.9447916 127.168023,20.8120495 L127.168023,15.6571132 L125.850494,15.6571132 C125.560751,15.6571132 125.416138,15.4449135 125.416138,15.2322086 C125.416138,15.020009 125.560751,14.807304 125.850494,14.807304 L127.168023,14.807304 L127.168023,13.0086592 C127.168023,12.7257263 127.384943,12.5837546 127.601862,12.5837546 C127.819299,12.5837546 128.036218,12.7257263 128.036218,13.0086592 L128.036218,14.807304 L130.598969,14.807304 C130.888712,14.807304 131.033325,15.020009 131.033325,15.2322086 C131.033325,15.4449135 130.888712,15.6571132 130.598969,15.6571132 L128.036218,15.6571132 L128.036218,20.8120495 C128.036218,21.4355124 128.528419,21.9594435 129.368208,21.9594435 C130.164614,21.9594435 130.439895,21.4491538 130.772505,21.4491538 C131.003886,21.4491538 131.192916,21.6618587 131.192916,21.8887103 C131.192916,22.0726166 131.047787,22.1857898 130.903173,22.298963 Z M136.301427,18.6169955 L134.433851,19.0136068 C133.434988,19.2258065 132.783196,19.7926827 132.783196,20.5146669 C132.783196,21.3927693 133.478372,21.9591403 134.535081,21.9591403 C135.548922,21.9591403 136.301427,21.2937428 136.301427,20.3732004 L136.301427,18.6169955 Z M134.549542,22.8089495 C133.174168,22.8089495 131.915001,22.0157269 131.915001,20.5288135 C131.915001,19.1126333 133.130784,18.4184372 134.448313,18.149651 L136.301427,17.7671863 L136.301427,17.1012836 C136.301427,16.1529531 135.75138,15.5153436 134.578981,15.5153436 C134.028935,15.5153436 133.666369,15.6856086 133.362681,15.9119549 C133.072939,16.1388065 133.000632,16.3651528 132.696944,16.3651528 C132.480025,16.3651528 132.27705,16.195393 132.27705,15.9543948 C132.27705,15.7987818 132.378279,15.6573153 132.480025,15.5436369 C133.000632,14.9631192 133.782576,14.6655345 134.578981,14.6655345 C136.214659,14.6655345 137.170138,15.6856086 137.170138,17.1012836 L137.170138,20.3732004 C137.170138,21.8318205 135.953839,22.8089495 134.549542,22.8089495 Z M146.187645,12.6404928 C145.926825,12.6404928 145.695444,12.3287613 145.101497,12.3287613 C144.261708,12.3287613 143.769507,12.8526924 143.769507,13.4761553 L143.769507,14.8074556 L145.941286,14.8074556 C146.231029,14.8074556 146.375642,15.0196553 146.375642,15.2323602 C146.375642,15.4445599 146.231029,15.6572648 145.941286,15.6572648 L143.769507,15.6572648 L143.769507,22.242528 C143.769507,22.5254609 143.552587,22.6674325 143.335667,22.6674325 C143.118748,22.6674325 142.901312,22.5254609 142.901312,22.242528 L142.901312,15.6572648 L141.583783,15.6572648 C141.29404,15.6572648 141.149427,15.4445599 141.149427,15.2323602 C141.149427,15.0196553 141.29404,14.8074556 141.583783,14.8074556 L142.901312,14.8074556 L142.901312,13.4761553 C142.901312,12.3434132 143.827869,11.4794574 145.101497,11.4794574 C145.594215,11.4794574 146.056977,11.6209239 146.39062,11.8194821 C146.535233,11.9185086 146.622001,12.0599751 146.622001,12.1872949 C146.622001,12.4141464 146.434004,12.6404928 146.187645,12.6404928 Z M151.904667,17.4274142 C151.904667,16.3649002 151.035955,15.5155962 149.950324,15.5155962 C148.864176,15.5155962 147.99598,16.3649002 147.99598,17.4274142 L147.99598,20.047575 C147.99598,21.1095838 148.864176,21.959393 149.950324,21.959393 C151.035955,21.959393 151.904667,21.1095838 151.904667,20.047575 L151.904667,17.4274142 Z M149.950324,22.8086969 C148.386436,22.8086969 147.127269,21.5769283 147.127269,20.047575 L147.127269,17.4274142 C147.127269,15.8980609 148.386436,14.6657871 149.950324,14.6657871 C151.513695,14.6657871 152.773378,15.8980609 152.773378,17.4274142 L152.773378,20.047575 C152.773378,21.5769283 151.513695,22.8086969 149.950324,22.8086969 Z M158.461478,16.0819673 C158.360248,16.0819673 158.258503,16.0395273 158.157274,15.9546475 C158.157274,15.9546475 158.128351,15.9263542 158.084967,15.8980609 C157.781279,15.6570627 157.37533,15.5155962 156.969896,15.5155962 C155.928165,15.5155962 155.305296,16.251727 155.305296,17.5264408 L155.305296,22.2423259 C155.305296,22.525764 155.088376,22.6672304 154.87094,22.6672304 C154.65402,22.6672304 154.436584,22.525764 154.436584,22.2423259 L154.436584,17.5264408 C154.436584,15.9546475 155.290835,14.6657871 156.969896,14.6657871 C157.563843,14.6657871 158.330809,14.9209319 158.765165,15.3594779 C158.866394,15.4590097 158.909778,15.5580362 158.909778,15.6570627 C158.909778,15.883409 158.707836,16.0819673 158.461478,16.0819673 Z M79.8671863,26.6302614 L77.7243296,26.6302614 L77.7243296,31.9691041 L79.8671863,31.9691041 C81.358251,31.9691041 82.6029568,30.8080688 82.6029568,29.3065035 C82.6029568,27.8195901 81.3727123,26.6302614 79.8671863,26.6302614 Z M83.0373127,36.8269609 C82.9071609,36.8269609 82.777009,36.7698691 82.6902412,36.6284027 L80.200313,32.8047667 C80.0985673,32.8189133 79.9828768,32.8189133 79.8671863,32.8189133 L77.7243296,32.8189133 L77.7243296,36.4020564 C77.7243296,36.6849892 77.50741,36.8269609 77.2899738,36.8269609 C77.0730541,36.8269609 76.8556179,36.6849892 76.8556179,36.4020564 L76.8556179,26.2053568 C76.8556179,25.9785053 77.0585928,25.7804523 77.2899738,25.7804523 L79.8671863,25.7804523 C81.8504521,25.7804523 83.4716685,27.3522455 83.4716685,29.2928621 C83.4716685,30.8222154 82.4872663,32.1110758 81.1118922,32.6067136 L83.4138233,36.1752048 C83.4716685,36.2605899 83.5005912,36.3313231 83.5005912,36.416203 C83.5005912,36.6425493 83.2692102,36.8269609 83.0373127,36.8269609 Z M89.6519688,31.5868921 C89.6519688,30.524378 88.7832571,29.6750741 87.6976257,29.6750741 C86.6114778,29.6750741 85.7432825,30.524378 85.7432825,31.5868921 L85.7432825,32.1532631 L89.6519688,32.1532631 L89.6519688,31.5868921 Z M90.0863247,33.0030723 L85.7432825,33.0030723 L85.7432825,34.2070528 C85.7432825,35.2266217 86.7276848,36.1188708 87.8422388,36.1188708 C88.3928016,36.1188708 89.0585385,35.9627525 89.4779166,35.4388214 C89.5791458,35.3115016 89.7242754,35.254915 89.8399659,35.254915 C90.0713469,35.254915 90.288783,35.4388214 90.288783,35.665673 C90.288783,35.7505528 90.2598604,35.8495793 90.2014987,35.9344592 C89.6519688,36.6428019 88.7254118,36.9681748 87.8422388,36.9681748 C86.3222515,36.9681748 84.8745708,35.7646995 84.8745708,34.2070528 L84.8745708,31.5868921 C84.8745708,30.0575388 86.133738,28.8252649 87.6976257,28.8252649 C89.2609969,28.8252649 90.5206805,30.0575388 90.5206805,31.5868921 L90.5206805,32.5781677 C90.5206805,32.8050193 90.3177057,33.0030723 90.0863247,33.0030723 Z M94.1091004,36.9683769 C93.3705405,36.9683769 92.3572156,36.6424988 91.9083984,35.9912479 C91.8510697,35.906368 91.8216306,35.8209829 91.8216306,35.7502497 C91.8216306,35.5097567 92.0390667,35.3258503 92.2704477,35.3258503 C92.4005995,35.3258503 92.5168065,35.3682903 92.6180357,35.5097567 C92.6180357,35.5097567 92.6469583,35.53805 92.6903423,35.58049 C93.0523916,35.948808 93.5879766,36.1185677 94.1091004,36.1185677 C95.2386322,36.1185677 95.9332917,35.4814634 95.9332917,34.7306808 C95.9332917,32.7198363 91.8650145,33.455967 91.8650145,30.8504582 C91.8650145,29.5050112 93.0668529,28.8249618 94.2103295,28.8249618 C95.0217125,28.8249618 95.9766756,29.2503716 96.4254928,29.9440625 C96.4688767,30.0147957 96.4977993,30.0996755 96.4977993,30.1845554 C96.4977993,30.411407 96.2664183,30.5953134 96.0489822,30.5953134 C95.9188304,30.5953134 95.7886785,30.5387268 95.6874494,30.3972603 C95.6874494,30.3972603 95.6580103,30.368967 95.6146263,30.2982338 C95.2675548,29.9157692 94.7608924,29.674771 94.2103295,29.674771 C93.3421343,29.674771 92.7337262,30.1567674 92.7337262,30.8504582 C92.7337262,32.6066631 96.8020034,31.954907 96.8020034,34.7306808 C96.8020034,36.104421 95.5423198,36.9683769 94.1091004,36.9683769 Z M98.6826971,36.8267588 C98.4657774,36.8267588 98.2483413,36.6852924 98.2483413,36.4018543 L98.2483413,29.3916865 C98.2483413,29.1087536 98.4657774,28.9667819 98.6826971,28.9667819 C98.9001333,28.9667819 99.117053,29.1087536 99.117053,29.3916865 L99.117053,36.4018543 C99.117053,36.6852924 98.9001333,36.8267588 98.6826971,36.8267588 Z M98.6826971,25.9505151 C99.0013625,25.9505151 99.2616661,26.2051547 99.2616661,26.5168862 C99.2616661,26.8281124 99.0013625,27.0832572 98.6826971,27.0832572 C98.3645482,27.0832572 98.1037281,26.8281124 98.1037281,26.5168862 C98.1037281,26.2051547 98.3645482,25.9505151 98.6826971,25.9505151 Z M102.315689,36.9683769 C102.272305,36.9683769 102.199998,36.9683769 102.142153,36.9400836 C102.142153,36.9400836 102.055385,36.9117903 101.910772,36.8127638 C101.157751,36.3454192 100.853547,35.4531701 100.853547,34.603361 L100.853547,26.2053063 C100.853547,25.9218682 101.070983,25.7804017 101.287903,25.7804017 C101.505339,25.7804017 101.722258,25.9218682 101.722258,26.2053063 L101.722258,34.603361 C101.722258,35.1272921 101.896311,35.906368 102.460302,36.146861 C102.648299,36.2317409 102.735583,36.3878592 102.735583,36.5434723 C102.735583,36.7561772 102.561531,36.9683769 102.315689,36.9683769 Z M104.182128,36.8267588 C103.965208,36.8267588 103.747772,36.6852924 103.747772,36.4018543 L103.747772,29.3916865 C103.747772,29.1087536 103.965208,28.9667819 104.182128,28.9667819 C104.399564,28.9667819 104.616484,29.1087536 104.616484,29.3916865 L104.616484,36.4018543 C104.616484,36.6852924 104.399564,36.8267588 104.182128,36.8267588 Z M104.182128,25.9505151 C104.500793,25.9505151 104.761097,26.2051547 104.761097,26.5168862 C104.761097,26.8281124 104.500793,27.0832572 104.182128,27.0832572 C103.863979,27.0832572 103.603159,26.8281124 103.603159,26.5168862 C103.603159,26.2051547 103.863979,25.9505151 104.182128,25.9505151 Z M111.058689,31.5868921 C111.058689,30.524378 110.189977,29.6750741 109.104345,29.6750741 C108.018198,29.6750741 107.150002,30.524378 107.150002,31.5868921 L107.150002,32.1532631 L111.058689,32.1532631 L111.058689,31.5868921 Z M111.493044,33.0030723 L107.150002,33.0030723 L107.150002,34.2070528 C107.150002,35.2266217 108.134405,36.1188708 109.248959,36.1188708 C109.799521,36.1188708 110.465258,35.9627525 110.884636,35.4388214 C110.985866,35.3115016 111.130995,35.254915 111.246686,35.254915 C111.478067,35.254915 111.695503,35.4388214 111.695503,35.665673 C111.695503,35.7505528 111.66658,35.8495793 111.608219,35.9344592 C111.058689,36.6428019 110.132132,36.9681748 109.248959,36.9681748 C107.728971,36.9681748 106.281291,35.7646995 106.281291,34.2070528 L106.281291,31.5868921 C106.281291,30.0575388 107.540458,28.8252649 109.104345,28.8252649 C110.667717,28.8252649 111.9274,30.0575388 111.9274,31.5868921 L111.9274,32.5781677 C111.9274,32.8050193 111.724425,33.0030723 111.493044,33.0030723 Z M118.729692,36.8267588 C118.512772,36.8267588 118.295336,36.6852924 118.295336,36.4018543 L118.295336,31.5869426 C118.295336,30.5244286 117.427141,29.6751246 116.340993,29.6751246 C115.255362,29.6751246 114.38665,30.5244286 114.38665,31.5869426 L114.38665,36.4018543 C114.38665,36.6852924 114.16973,36.8267588 113.952294,36.8267588 C113.735374,36.8267588 113.517938,36.6852924 113.517938,36.4018543 L113.517938,31.5869426 C113.517938,30.0575893 114.777622,28.8253155 116.340993,28.8253155 C117.904364,28.8253155 119.164048,30.0575893 119.164048,31.5869426 L119.164048,36.4018543 C119.164048,36.6852924 118.947128,36.8267588 118.729692,36.8267588 Z M125.923524,35.9344592 C125.923524,35.9344592 125.865678,36.0051924 125.763933,36.1188708 C125.199942,36.6993885 124.374614,36.9681748 123.564264,36.9681748 C121.956992,36.9681748 120.827977,35.9910458 120.827977,34.5324257 L120.827977,31.261014 C120.827977,29.8023939 121.956992,28.8252649 123.564264,28.8252649 C124.360153,28.8252649 125.445784,29.1652897 125.923524,29.8589805 C125.981369,29.9443656 125.996347,30.0292455 125.996347,30.0999787 C125.996347,30.3404717 125.778911,30.524378 125.547013,30.524378 C125.431323,30.524378 125.301171,30.4819381 125.199942,30.3404717 C125.199942,30.3404717 125.184964,30.3121784 125.127635,30.2555918 C124.736663,29.8448338 124.128255,29.6750741 123.564264,29.6750741 C122.361909,29.6750741 121.696172,30.3546183 121.696172,31.261014 L121.696172,34.5324257 C121.696172,35.4388214 122.361909,36.1188708 123.564264,36.1188708 C124.113794,36.1188708 124.866815,35.9203126 125.199942,35.4529681 C125.301171,35.3256482 125.431323,35.2690617 125.547013,35.2690617 C125.778911,35.2690617 126.010292,35.4529681 126.010292,35.6798196 C126.010292,35.7646995 125.981369,35.8495793 125.923524,35.9344592 Z M132.162082,31.5868921 C132.162082,30.524378 131.293371,29.6750741 130.207739,29.6750741 C129.121591,29.6750741 128.253396,30.524378 128.253396,31.5868921 L128.253396,32.1532631 L132.162082,32.1532631 L132.162082,31.5868921 Z M132.596438,33.0030723 L128.253396,33.0030723 L128.253396,34.2070528 C128.253396,35.2266217 129.237798,36.1188708 130.352352,36.1188708 C130.902915,36.1188708 131.568652,35.9627525 131.98803,35.4388214 C132.089259,35.3115016 132.234389,35.254915 132.350079,35.254915 C132.58146,35.254915 132.798897,35.4388214 132.798897,35.665673 C132.798897,35.7505528 132.769974,35.8495793 132.711612,35.9344592 C132.162082,36.6428019 131.235525,36.9681748 130.352352,36.9681748 C128.832365,36.9681748 127.384684,35.7646995 127.384684,34.2070528 L127.384684,31.5868921 C127.384684,30.0575388 128.643852,28.8252649 130.207739,28.8252649 C131.77111,28.8252649 133.030794,30.0575388 133.030794,31.5868921 L133.030794,32.5781677 C133.030794,32.8050193 132.827819,33.0030723 132.596438,33.0030723 Z M142.438653,36.8267588 L137.805868,36.8267588 C137.516642,36.8267588 137.371512,36.6145592 137.371512,36.4018543 C137.371512,36.1896546 137.516642,35.9769497 137.805868,35.9769497 L139.688421,35.9769497 L139.688421,26.6300593 L137.805868,26.6300593 C137.516642,26.6300593 137.371512,26.4173544 137.371512,26.2051547 C137.371512,25.9929551 137.516642,25.7802502 137.805868,25.7802502 L142.438653,25.7802502 C142.728396,25.7802502 142.873009,25.9929551 142.873009,26.2051547 C142.873009,26.4173544 142.728396,26.6300593 142.438653,26.6300593 L140.556616,26.6300593 L140.556616,35.9769497 L142.438653,35.9769497 C142.728396,35.9769497 142.873009,36.1896546 142.873009,36.4018543 C142.873009,36.6145592 142.728396,36.8267588 142.438653,36.8267588 Z M149.386332,36.8267588 C149.169413,36.8267588 148.951976,36.6852924 148.951976,36.4018543 L148.951976,31.5869426 C148.951976,30.5244286 148.083781,29.6751246 146.997633,29.6751246 C145.912002,29.6751246 145.04329,30.5244286 145.04329,31.5869426 L145.04329,36.4018543 C145.04329,36.6852924 144.826371,36.8267588 144.608934,36.8267588 C144.392015,36.8267588 144.174578,36.6852924 144.174578,36.4018543 L144.174578,31.5869426 C144.174578,30.0575893 145.434262,28.8253155 146.997633,28.8253155 C148.561005,28.8253155 149.820688,30.0575893 149.820688,31.5869426 L149.820688,36.4018543 C149.820688,36.6852924 149.603769,36.8267588 149.386332,36.8267588 Z M151.990402,36.8267588 C151.773482,36.8267588 151.556046,36.6852924 151.556046,36.4018543 L151.556046,29.3916865 C151.556046,29.1087536 151.773482,28.9667819 151.990402,28.9667819 C152.207838,28.9667819 152.424757,29.1087536 152.424757,29.3916865 L152.424757,36.4018543 C152.424757,36.6852924 152.207838,36.8267588 151.990402,36.8267588 Z M151.990402,25.9505151 C152.309067,25.9505151 152.569371,26.2051547 152.569371,26.5168862 C152.569371,26.8281124 152.309067,27.0832572 151.990402,27.0832572 C151.672253,27.0832572 151.411433,26.8281124 151.411433,26.5168862 C151.411433,26.2051547 151.672253,25.9505151 151.990402,25.9505151 Z M158.780246,36.4584408 C158.345374,36.7701723 157.795844,36.9682253 157.245281,36.9682253 C155.971653,36.9682253 155.045096,36.1042695 155.045096,34.9715274 L155.045096,29.8165911 L153.727567,29.8165911 C153.437824,29.8165911 153.293211,29.6043914 153.293211,29.3916865 C153.293211,29.1794868 153.437824,28.9667819 153.727567,28.9667819 L155.045096,28.9667819 L155.045096,27.1681371 C155.045096,26.8852042 155.262015,26.7432325 155.478935,26.7432325 C155.696371,26.7432325 155.913291,26.8852042 155.913291,27.1681371 L155.913291,28.9667819 L158.476042,28.9667819 C158.765785,28.9667819 158.910398,29.1794868 158.910398,29.3916865 C158.910398,29.6043914 158.765785,29.8165911 158.476042,29.8165911 L155.913291,29.8165911 L155.913291,34.9715274 C155.913291,35.5949903 156.405492,36.1189214 157.245281,36.1189214 C158.041686,36.1189214 158.316968,35.6086317 158.649578,35.6086317 C158.880959,35.6086317 159.069989,35.8213366 159.069989,36.0481881 C159.069989,36.2320945 158.924859,36.3452677 158.780246,36.4584408 Z M160.515759,36.8267588 C160.298839,36.8267588 160.081403,36.6852924 160.081403,36.4018543 L160.081403,29.3916865 C160.081403,29.1087536 160.298839,28.9667819 160.515759,28.9667819 C160.733195,28.9667819 160.950115,29.1087536 160.950115,29.3916865 L160.950115,36.4018543 C160.950115,36.6852924 160.733195,36.8267588 160.515759,36.8267588 Z M160.515759,25.9505151 C160.834424,25.9505151 161.094728,26.2051547 161.094728,26.5168862 C161.094728,26.8281124 160.834424,27.0832572 160.515759,27.0832572 C160.19761,27.0832572 159.93679,26.8281124 159.93679,26.5168862 C159.93679,26.2051547 160.19761,25.9505151 160.515759,25.9505151 Z M166.783602,32.7764734 L164.916026,33.1730847 C163.917163,33.3852843 163.265371,33.9521606 163.265371,34.6741447 C163.265371,35.5522472 163.960547,36.1186182 165.017255,36.1186182 C166.031097,36.1186182 166.783602,35.4532207 166.783602,34.5326783 L166.783602,32.7764734 Z M165.031717,36.9684274 C163.656343,36.9684274 162.397175,36.1752048 162.397175,34.6882914 C162.397175,33.2721112 163.612959,32.5779151 164.930488,32.3091289 L166.783602,31.9266642 L166.783602,31.2607614 C166.783602,30.312431 166.233555,29.6748215 165.061156,29.6748215 C164.51111,29.6748215 164.148544,29.8450865 163.844856,30.0714328 C163.555113,30.2982843 163.482807,30.5246307 163.179119,30.5246307 C162.9622,30.5246307 162.759225,30.3548709 162.759225,30.1138727 C162.759225,29.9582596 162.860454,29.8167932 162.9622,29.7031148 C163.482807,29.1225971 164.264751,28.8250123 165.061156,28.8250123 C166.696834,28.8250123 167.652313,29.8450865 167.652313,31.2607614 L167.652313,34.5326783 C167.652313,35.9912984 166.436014,36.9684274 165.031717,36.9684274 Z M173.934566,36.4584408 C173.499693,36.7701723 172.950164,36.9682253 172.399601,36.9682253 C171.125972,36.9682253 170.199415,36.1042695 170.199415,34.9715274 L170.199415,29.8165911 L168.881886,29.8165911 C168.592144,29.8165911 168.447531,29.6043914 168.447531,29.3916865 C168.447531,29.1794868 168.592144,28.9667819 168.881886,28.9667819 L170.199415,28.9667819 L170.199415,27.1681371 C170.199415,26.8852042 170.416335,26.7432325 170.633255,26.7432325 C170.850691,26.7432325 171.067611,26.8852042 171.067611,27.1681371 L171.067611,28.9667819 L173.630362,28.9667819 C173.920104,28.9667819 174.064718,29.1794868 174.064718,29.3916865 C174.064718,29.6043914 173.920104,29.8165911 173.630362,29.8165911 L171.067611,29.8165911 L171.067611,34.9715274 C171.067611,35.5949903 171.559812,36.1189214 172.399601,36.1189214 C173.196006,36.1189214 173.471287,35.6086317 173.803897,35.6086317 C174.035278,35.6086317 174.224309,35.8213366 174.224309,36.0481881 C174.224309,36.2320945 174.079179,36.3452677 173.934566,36.4584408 Z M175.670078,36.8267588 C175.453159,36.8267588 175.235722,36.6852924 175.235722,36.4018543 L175.235722,29.3916865 C175.235722,29.1087536 175.453159,28.9667819 175.670078,28.9667819 C175.887514,28.9667819 176.104434,29.1087536 176.104434,29.3916865 L176.104434,36.4018543 C176.104434,36.6852924 175.887514,36.8267588 175.670078,36.8267588 Z M175.670078,25.9505151 C175.988744,25.9505151 176.249047,26.2051547 176.249047,26.5168862 C176.249047,26.8281124 175.988744,27.0832572 175.670078,27.0832572 C175.351929,27.0832572 175.091109,26.8281124 175.091109,26.5168862 C175.091109,26.2051547 175.351929,25.9505151 175.670078,25.9505151 Z M183.603348,29.5474512 L180.8526,36.5576189 C180.765832,36.7844705 180.606757,36.8976436 180.447683,36.8976436 C180.288092,36.8976436 180.128501,36.7844705 180.041733,36.5576189 L177.290985,29.5474512 C177.27704,29.4908646 177.262579,29.434278 177.262579,29.3776914 C177.262579,29.1366932 177.49396,28.9669335 177.711396,28.9669335 C177.87047,28.9669335 178.029545,29.0518134 178.102368,29.2357197 L180.447683,35.2121719 L182.792998,29.2357197 C182.879766,29.0518134 183.024379,28.9669335 183.18397,28.9669335 C183.415351,28.9669335 183.646732,29.1366932 183.646732,29.3776914 C183.646732,29.434278 183.632271,29.4908646 183.603348,29.5474512 Z M189.508522,31.5868921 C189.508522,30.524378 188.63981,29.6750741 187.554179,29.6750741 C186.468031,29.6750741 185.599835,30.524378 185.599835,31.5868921 L185.599835,32.1532631 L189.508522,32.1532631 L189.508522,31.5868921 Z M189.942878,33.0030723 L185.599835,33.0030723 L185.599835,34.2070528 C185.599835,35.2266217 186.584238,36.1188708 187.698792,36.1188708 C188.249355,36.1188708 188.915091,35.9627525 189.334469,35.4388214 C189.435699,35.3115016 189.580828,35.254915 189.696519,35.254915 C189.9279,35.254915 190.145336,35.4388214 190.145336,35.665673 C190.145336,35.7505528 190.116413,35.8495793 190.058052,35.9344592 C189.508522,36.6428019 188.581965,36.9681748 187.698792,36.9681748 C186.178804,36.9681748 184.731124,35.7646995 184.731124,34.2070528 L184.731124,31.5868921 C184.731124,30.0575388 185.990291,28.8252649 187.554179,28.8252649 C189.11755,28.8252649 190.377233,30.0575388 190.377233,31.5868921 L190.377233,32.5781677 C190.377233,32.8050193 190.174259,33.0030723 189.942878,33.0030723 L189.942878,33.0030723 Z" id="Fill-1-Copy" fill="#FFFFFF"></path>
                <path d="M63.5078545,11.3307155 C63.5078545,10.9593661 63.2000351,10.6582447 62.8204256,10.6582447 C62.4408162,10.6582447 62.1329968,10.9593661 62.1329968,11.3307155 L62.1329968,35.0394818 L57.4795529,35.0394818 L51.8360256,26.3958818 C55.2044785,25.382881 57.7047362,22.3095224 57.7047362,18.6960651 C57.7047362,14.2383563 53.9892118,10.6582447 49.4054921,10.6582447 L43.2243138,10.6582447 C42.842122,10.6582447 42.5296543,10.9623975 42.5296543,11.333747 L42.5296543,35.6498085 C42.5296543,36.0888597 42.8767258,36.3248056 43.2243138,36.3248056 C43.5713853,36.3248056 43.9184568,36.0888597 43.9184568,35.6498085 L43.9184568,12.0092493 L49.4054921,12.0092493 C53.2248281,12.0092493 56.3154172,14.9810552 56.3154172,18.6960651 C56.3154172,21.7537614 54.2216257,24.3304717 51.3505387,25.14643 C50.7932616,25.3050745 50.4193334,25.8173851 50.4193334,26.3847666 C50.4193334,26.6328381 50.49164,26.8748468 50.6279895,27.0835098 L56.4579645,36.0100427 C56.6139401,36.2495252 56.8845732,36.3945283 57.1748324,36.3945283 L62.5849128,36.3945283 C63.0946741,36.3945283 63.5078545,35.9898332 63.5078545,35.4916692 L63.5078545,11.3307155 Z M39.0474218,19.2970449 C39.0474218,15.4567361 35.8726472,12.3515475 31.9474337,12.3515475 L25.5297097,12.3515475 L25.5297097,35.0584282 L31.9474337,35.0584282 C35.8726472,35.0584282 39.0474218,31.9532397 39.0474218,28.1129309 L39.0474218,19.2970449 Z M31.9474337,36.3942757 L24.8469291,36.3942757 C24.4714515,36.3942757 24.1641486,36.0936595 24.1641486,35.726352 L24.1641486,11.6836238 C24.1641486,11.3163163 24.4714515,11.0157001 24.8469291,11.0157001 L31.9474337,11.0157001 C36.6236025,11.0157001 40.412983,14.722121 40.412983,19.2970449 L40.412983,28.1129309 C40.412983,32.6878547 36.6236025,36.3942757 31.9474337,36.3942757 Z M15.53467,31.5210092 C14.3323152,31.5210092 13.3510118,32.4814653 13.3510118,33.6576578 C13.3510118,34.833345 14.3323152,35.7938011 15.53467,35.7938011 L18.6670937,35.7938011 C19.8694486,35.7938011 20.8512684,34.833345 20.8512684,33.6576578 C20.8512684,32.4814653 19.8694486,31.5210092 18.6670937,31.5210092 L15.53467,31.5210092 Z M21.5128735,33.6576578 C21.5128735,35.1895373 20.2335638,36.4410101 18.6670937,36.4410101 L15.53467,36.4410101 C13.9687165,36.4410101 12.6888903,35.1895373 12.6888903,33.6576578 C12.6888903,32.125273 13.9687165,30.8738002 15.53467,30.8738002 L18.6670937,30.8738002 C20.2335638,30.8738002 21.5128735,32.125273 21.5128735,33.6576578 Z M13.4608145,27.0021161 L13.4608145,28.5991712 L17.6194749,28.5991712 L17.6194749,27.0021161 C17.6194749,25.879984 16.7037639,24.9629783 15.5453094,24.9629783 C14.3873715,24.9629783 13.4608145,25.879984 13.4608145,27.0021161 Z M18.2810799,27.0021161 L18.2810799,28.5991712 L21.0715968,28.5991712 C21.2921319,28.5991712 21.4021411,28.7608472 21.4021411,28.9225231 C21.4021411,29.0847043 21.2921319,29.2463802 21.0715968,29.2463802 L13.1302702,29.2463802 C12.9536356,29.2463802 12.7992094,29.0953143 12.7992094,28.9225231 L12.7992094,27.0021161 C12.7992094,25.5237917 14.0232563,24.315264 15.5344635,24.315264 C17.0570331,24.315264 18.2810799,25.5237917 18.2810799,27.0021161 Z M21.4022961,18.3181982 L21.4022961,22.3641386 C21.4022961,22.5369297 21.2478699,22.6879957 21.0717518,22.6879957 L13.1299087,22.6879957 C12.9532741,22.6879957 12.7993644,22.5369297 12.7993644,22.3641386 L12.7993644,18.3181982 C12.7993644,18.1024618 12.9646365,17.9948463 13.1299087,17.9948463 C13.2956973,17.9948463 13.4609694,18.1024618 13.4609694,18.3181982 L13.4609694,22.0407867 L16.5711846,22.0407867 L16.5711846,18.6420553 C16.5711846,18.4263189 16.7369733,18.3181982 16.9022454,18.3181982 C17.0675176,18.3181982 17.2333062,18.4263189 17.2333062,18.6420553 L17.2333062,22.0407867 L20.740691,22.0407867 L20.740691,18.3181982 C20.740691,18.1024618 20.9059632,17.9948463 21.0717518,17.9948463 C21.2370239,17.9948463 21.4022961,18.1024618 21.4022961,18.3181982 Z M21.4575589,11.3068683 C21.4575589,11.4149891 21.3914501,11.5337199 21.2478699,11.6196102 L14.3100551,15.7201163 L21.0717518,15.7201163 C21.2922868,15.7201163 21.4022961,15.8817922 21.4022961,16.0439734 C21.4022961,16.2056494 21.2922868,16.3673253 21.0717518,16.3673253 L13.1299087,16.3673253 C12.8876817,16.3673253 12.7441015,16.2268693 12.7441015,16.0763086 C12.7441015,15.9681878 12.8102104,15.8494571 12.9537905,15.7630615 L19.8916054,11.6630607 L13.1299087,11.6630607 C12.9098901,11.6630607 12.7993644,11.5013847 12.7993644,11.3392035 C12.7993644,11.1775276 12.9098901,11.0153464 13.1299087,11.0153464 L21.0717518,11.0153464 C21.3139788,11.0153464 21.4575589,11.1558024 21.4575589,11.3068683 Z" id="Fill-65-Copy" fill="#1477C9"></path>
            </g>
        </g>
    </g>
</svg>