<?xml version="1.0" encoding="UTF-8" standalone="no"?>
<svg width="95px" height="49px" viewBox="0 0 95 49" version="1.1" xmlns="http://www.w3.org/2000/svg" xmlns:xlink="http://www.w3.org/1999/xlink" xmlns:sketch="http://www.bohemiancoding.com/sketch/ns">
    <!-- Generator: Sketch 3.5.2 (25235) - http://www.bohemiancoding.com/sketch -->
    <title>ODRI-symbol-black</title>
    <desc>Created with Sketch.</desc>
    <defs></defs>
    <g id="Page-1" stroke="none" stroke-width="1" fill="none" fill-rule="evenodd" sketch:type="MSPage">
        <g id="1-7" sketch:type="MSArtboardGroup" transform="translate(-595.000000, -659.000000)" fill="#222222">
            <path d="M690,660.257104 C690,659.562911 689.424568,659 688.714934,659 C688.005299,659 687.429867,659.562911 687.429867,660.257104 L687.429867,704.577819 L678.730808,704.577819 L668.180906,688.419638 C674.477828,686.525954 679.151762,680.780676 679.151762,674.025748 C679.151762,665.692592 672.206031,659 663.637313,659 L652.082337,659 C651.367875,659 650.783754,659.568578 650.783754,660.262771 L650.783754,705.718752 C650.783754,706.539506 651.432563,706.980578 652.082337,706.980578 C652.731146,706.980578 653.379955,706.539506 653.379955,705.718752 L653.379955,661.525542 L663.637313,661.525542 C670.777107,661.525542 676.554595,667.080979 676.554595,674.025748 C676.554595,679.741747 672.640502,684.5586 667.273346,686.083937 C666.231583,686.380504 665.532569,687.338207 665.532569,688.398859 C665.532569,688.8626 665.667738,689.315006 665.922627,689.705077 L676.82107,706.392167 C677.112648,706.839851 677.618565,707.110917 678.16117,707.110917 L688.274671,707.110917 C689.227609,707.110917 690,706.354387 690,705.423129 L690,660.257104 Z M644.274135,675.149208 C644.274135,667.970208 638.339272,662.165428 631.001553,662.165428 L619.004382,662.165428 L619.004382,704.613237 L631.001553,704.613237 C638.339272,704.613237 644.274135,698.808457 644.274135,691.629457 L644.274135,675.149208 Z M631.001553,707.110444 L617.728005,707.110444 C617.026095,707.110444 616.451628,706.548478 616.451628,705.86184 L616.451628,660.916824 C616.451628,660.230186 617.026095,659.66822 617.728005,659.66822 L631.001553,659.66822 C639.743093,659.66822 646.826889,666.596933 646.826889,675.149208 L646.826889,691.629457 C646.826889,700.181732 639.743093,707.110444 631.001553,707.110444 Z M600.319846,698.000453 C598.072187,698.000453 596.237757,699.795911 596.237757,701.994663 C596.237757,704.19247 598.072187,705.987929 600.319846,705.987929 L606.175539,705.987929 C608.423198,705.987929 610.258594,704.19247 610.258594,701.994663 C610.258594,699.795911 608.423198,698.000453 606.175539,698.000453 L600.319846,698.000453 Z M611.495385,701.994663 C611.495385,704.858329 609.103868,707.197809 606.175539,707.197809 L600.319846,707.197809 C597.392483,707.197809 595,704.858329 595,701.994663 C595,699.130052 597.392483,696.790573 600.319846,696.790573 L606.175539,696.790573 C609.103868,696.790573 611.495385,699.130052 611.495385,701.994663 Z M596.44302,689.552921 L596.44302,692.538425 L604.217141,692.538425 L604.217141,689.552921 C604.217141,687.455228 602.505328,685.740995 600.339735,685.740995 C598.175108,685.740995 596.44302,687.455228 596.44302,689.552921 Z M605.453932,689.552921 L605.453932,692.538425 L610.670471,692.538425 C611.082735,692.538425 611.288385,692.840659 611.288385,693.142893 C611.288385,693.446071 611.082735,693.748305 610.670471,693.748305 L595.825107,693.748305 C595.49491,693.748305 595.206229,693.465905 595.206229,693.142893 L595.206229,689.552921 C595.206229,686.789369 597.494438,684.530171 600.31946,684.530171 C603.165723,684.530171 605.453932,686.789369 605.453932,689.552921 Z M611.288674,673.319371 L611.288674,680.882774 C611.288674,681.205787 610.999993,681.488187 610.670761,681.488187 L595.824431,681.488187 C595.494234,681.488187 595.206518,681.205787 595.206518,680.882774 L595.206518,673.319371 C595.206518,672.916077 595.515475,672.714903 595.824431,672.714903 C596.134353,672.714903 596.44331,672.916077 596.44331,673.319371 L596.44331,680.278306 L602.257487,680.278306 L602.257487,673.924783 C602.257487,673.521489 602.567409,673.319371 602.876366,673.319371 C603.185322,673.319371 603.495244,673.521489 603.495244,673.924783 L603.495244,680.278306 L610.051882,680.278306 L610.051882,673.319371 C610.051882,672.916077 610.360839,672.714903 610.670761,672.714903 C610.979718,672.714903 611.288674,672.916077 611.288674,673.319371 Z M611.391982,660.212525 C611.391982,660.414644 611.268399,660.636597 610.999993,660.797158 L598.030575,668.462566 L610.670761,668.462566 C611.083025,668.462566 611.288674,668.7648 611.288674,669.067978 C611.288674,669.370212 611.083025,669.672446 610.670761,669.672446 L595.824431,669.672446 C595.371617,669.672446 595.103211,669.40988 595.103211,669.128425 C595.103211,668.926306 595.226793,668.704353 595.495199,668.542847 L608.464618,660.878384 L595.824431,660.878384 C595.413133,660.878384 595.206518,660.57615 595.206518,660.272971 C595.206518,659.970738 595.413133,659.667559 595.824431,659.667559 L610.670761,659.667559 C611.123576,659.667559 611.391982,659.930125 611.391982,660.212525 Z" id="ODRI-symbol-black" sketch:type="MSShapeGroup"></path>
        </g>
    </g>
</svg>