<?xml version="1.0" encoding="UTF-8" standalone="no"?>
<svg width="95px" height="49px" viewBox="0 0 95 49" version="1.1" xmlns="http://www.w3.org/2000/svg" xmlns:xlink="http://www.w3.org/1999/xlink" xmlns:sketch="http://www.bohemiancoding.com/sketch/ns">
    <!-- Generator: Sketch 3.5.2 (25235) - http://www.bohemiancoding.com/sketch -->
    <title>ODRI-symbol-color</title>
    <desc>Created with Sketch.</desc>
    <defs></defs>
    <g id="Page-1" stroke="none" stroke-width="1" fill="none" fill-rule="evenodd" sketch:type="MSPage">
        <g id="1-7" sketch:type="MSArtboardGroup" transform="translate(-354.000000, -659.000000)" fill="#1477C9">
            <path d="M449,660.257104 C449,659.562911 448.424568,659 447.714934,659 C447.005299,659 446.429867,659.562911 446.429867,660.257104 L446.429867,704.577819 L437.730808,704.577819 L427.180906,688.419638 C433.477828,686.525954 438.151762,680.780676 438.151762,674.025748 C438.151762,665.692592 431.206031,659 422.637313,659 L411.082337,659 C410.367875,659 409.783754,659.568578 409.783754,660.262771 L409.783754,705.718752 C409.783754,706.539506 410.432563,706.980578 411.082337,706.980578 C411.731146,706.980578 412.379955,706.539506 412.379955,705.718752 L412.379955,661.525542 L422.637313,661.525542 C429.777107,661.525542 435.554595,667.080979 435.554595,674.025748 C435.554595,679.741747 431.640502,684.5586 426.273346,686.083937 C425.231583,686.380504 424.532569,687.338207 424.532569,688.398859 C424.532569,688.8626 424.667738,689.315006 424.922627,689.705077 L435.82107,706.392167 C436.112648,706.839851 436.618565,707.110917 437.16117,707.110917 L447.274671,707.110917 C448.227609,707.110917 449,706.354387 449,705.423129 L449,660.257104 Z M403.274135,675.149208 C403.274135,667.970208 397.339272,662.165428 390.001553,662.165428 L378.004382,662.165428 L378.004382,704.613237 L390.001553,704.613237 C397.339272,704.613237 403.274135,698.808457 403.274135,691.629457 L403.274135,675.149208 Z M390.001553,707.110444 L376.728005,707.110444 C376.026095,707.110444 375.451628,706.548478 375.451628,705.86184 L375.451628,660.916824 C375.451628,660.230186 376.026095,659.66822 376.728005,659.66822 L390.001553,659.66822 C398.743093,659.66822 405.826889,666.596933 405.826889,675.149208 L405.826889,691.629457 C405.826889,700.181732 398.743093,707.110444 390.001553,707.110444 Z M359.319846,698.000453 C357.072187,698.000453 355.237757,699.795911 355.237757,701.994663 C355.237757,704.19247 357.072187,705.987929 359.319846,705.987929 L365.175539,705.987929 C367.423198,705.987929 369.258594,704.19247 369.258594,701.994663 C369.258594,699.795911 367.423198,698.000453 365.175539,698.000453 L359.319846,698.000453 Z M370.495385,701.994663 C370.495385,704.858329 368.103868,707.197809 365.175539,707.197809 L359.319846,707.197809 C356.392483,707.197809 354,704.858329 354,701.994663 C354,699.130052 356.392483,696.790573 359.319846,696.790573 L365.175539,696.790573 C368.103868,696.790573 370.495385,699.130052 370.495385,701.994663 Z M355.44302,689.552921 L355.44302,692.538425 L363.217141,692.538425 L363.217141,689.552921 C363.217141,687.455228 361.505328,685.740995 359.339735,685.740995 C357.175108,685.740995 355.44302,687.455228 355.44302,689.552921 Z M364.453932,689.552921 L364.453932,692.538425 L369.670471,692.538425 C370.082735,692.538425 370.288385,692.840659 370.288385,693.142893 C370.288385,693.446071 370.082735,693.748305 369.670471,693.748305 L354.825107,693.748305 C354.49491,693.748305 354.206229,693.465905 354.206229,693.142893 L354.206229,689.552921 C354.206229,686.789369 356.494438,684.530171 359.31946,684.530171 C362.165723,684.530171 364.453932,686.789369 364.453932,689.552921 Z M370.288674,673.319371 L370.288674,680.882774 C370.288674,681.205787 369.999993,681.488187 369.670761,681.488187 L354.824431,681.488187 C354.494234,681.488187 354.206518,681.205787 354.206518,680.882774 L354.206518,673.319371 C354.206518,672.916077 354.515475,672.714903 354.824431,672.714903 C355.134353,672.714903 355.44331,672.916077 355.44331,673.319371 L355.44331,680.278306 L361.257487,680.278306 L361.257487,673.924783 C361.257487,673.521489 361.567409,673.319371 361.876366,673.319371 C362.185322,673.319371 362.495244,673.521489 362.495244,673.924783 L362.495244,680.278306 L369.051882,680.278306 L369.051882,673.319371 C369.051882,672.916077 369.360839,672.714903 369.670761,672.714903 C369.979718,672.714903 370.288674,672.916077 370.288674,673.319371 Z M370.391982,660.212525 C370.391982,660.414644 370.268399,660.636597 369.999993,660.797158 L357.030575,668.462566 L369.670761,668.462566 C370.083025,668.462566 370.288674,668.7648 370.288674,669.067978 C370.288674,669.370212 370.083025,669.672446 369.670761,669.672446 L354.824431,669.672446 C354.371617,669.672446 354.103211,669.40988 354.103211,669.128425 C354.103211,668.926306 354.226793,668.704353 354.495199,668.542847 L367.464618,660.878384 L354.824431,660.878384 C354.413133,660.878384 354.206518,660.57615 354.206518,660.272971 C354.206518,659.970738 354.413133,659.667559 354.824431,659.667559 L369.670761,659.667559 C370.123576,659.667559 370.391982,659.930125 370.391982,660.212525 Z" id="ODRI-symbol-color" sketch:type="MSShapeGroup"></path>
        </g>
    </g>
</svg>