<?xml version="1.0" encoding="UTF-8" standalone="no"?>
<svg width="80px" height="55px" viewBox="0 0 80 55" version="1.1" xmlns="http://www.w3.org/2000/svg" xmlns:xlink="http://www.w3.org/1999/xlink" xmlns:sketch="http://www.bohemiancoding.com/sketch/ns">
    <!-- Generator: Sketch 3.5.2 (25235) - http://www.bohemiancoding.com/sketch -->
    <title>SIA-symbol-black</title>
    <desc>Created with Sketch.</desc>
    <defs></defs>
    <g id="Page-1" stroke="none" stroke-width="1" fill="none" fill-rule="evenodd" sketch:type="MSPage">
        <g id="1-7" sketch:type="MSArtboardGroup" transform="translate(-602.000000, -1226.000000)" fill="#222222">
            <path d="M681.929744,1278.00841 L665.15246,1227.67762 C664.873566,1226.90907 664.383905,1226.48966 663.823988,1226.48966 C663.335391,1226.48966 662.775474,1226.90907 662.49658,1227.67762 L646.045028,1277.03015 L643.476435,1277.03015 C642.535434,1277.03015 641.773266,1276.26692 641.773266,1275.32698 L641.773266,1232.13673 C641.773266,1228.74743 639.02584,1226 635.636533,1226 L617.029406,1226 C609.479043,1226 602.278894,1230.82316 602.278894,1239.07183 C602.278894,1256.26852 630.660085,1250.46603 630.660085,1266.47476 C630.660085,1272.97554 624.788408,1277.72845 616.330042,1277.72845 C612.275434,1277.72845 608.011124,1276.33079 605.145541,1273.39495 C604.726136,1272.97554 604.516433,1272.69559 604.516433,1272.69559 C604.236474,1272.27618 603.817069,1272.06648 603.397663,1272.06648 C602.698299,1272.06648 602,1272.69559 602,1273.4652 C602,1273.7441 602.070256,1274.02406 602.278894,1274.30402 C605.145541,1278.49807 611.577135,1280.52484 616.330042,1280.52484 C625.627219,1280.52484 633.456476,1275.14283 633.456476,1266.47476 C633.456476,1247.88041 605.075285,1253.47212 605.075285,1239.07183 C605.075285,1232.851 610.458365,1228.79639 617.029406,1228.79639 L635.667403,1228.79639 C637.495117,1228.79639 638.976874,1230.27708 638.976874,1232.1048 L638.976874,1275.36637 C638.976874,1277.82958 640.97384,1279.82548 643.435985,1279.82548 L647.028608,1279.82548 L647.037124,1279.82548 L647.047769,1279.82548 C647.066929,1279.82548 647.08609,1279.82335 647.106315,1279.82228 C647.141443,1279.82016 647.176571,1279.81909 647.20957,1279.8159 C647.252149,1279.81164 647.293664,1279.80419 647.335178,1279.79674 C647.344759,1279.79461 647.353275,1279.79354 647.36179,1279.79141 C647.805679,1279.702 648.205924,1279.41352 648.376241,1278.84722 L663.823988,1232.50079 L673.346834,1261.06826 L662.865955,1261.06826 C661.940921,1261.06826 661.443809,1261.77933 661.443809,1262.49041 C661.443809,1263.20148 661.940921,1263.91255 662.865955,1263.91255 L674.295287,1263.91255 L679.2728,1278.84722 C679.482503,1279.54658 680.04242,1279.82548 680.601272,1279.82548 C681.300636,1279.82548 682,1279.33688 682,1278.49807 C682,1278.21811 681.929744,1278.00841 681.929744,1278.00841" id="SIA-symbol-black" sketch:type="MSShapeGroup"></path>
        </g>
    </g>
</svg>