<?xml version="1.0" encoding="UTF-8" standalone="no"?>
<svg width="80px" height="55px" viewBox="0 0 80 55" version="1.1" xmlns="http://www.w3.org/2000/svg" xmlns:xlink="http://www.w3.org/1999/xlink" xmlns:sketch="http://www.bohemiancoding.com/sketch/ns">
    <!-- Generator: Sketch 3.5.2 (25235) - http://www.bohemiancoding.com/sketch -->
    <title>SIA-symbol-white</title>
    <desc>Created with Sketch.</desc>
    <defs></defs>
    <g id="Page-1" stroke="none" stroke-width="1" fill="none" fill-rule="evenodd" sketch:type="MSPage">
        <g id="1-7" sketch:type="MSArtboardGroup" transform="translate(-841.000000, -1226.000000)" fill="#FFFFFF">
            <path d="M904.15246,1227.67762 C903.873566,1226.90907 903.383905,1226.48966 902.823988,1226.48966 C902.335391,1226.48966 901.775474,1226.90907 901.49658,1227.67762 L885.045028,1277.03015 L882.476435,1277.03015 C881.535434,1277.03015 880.773266,1276.26692 880.773266,1275.32698 L880.773266,1232.13673 C880.773266,1228.74743 878.02584,1226 874.636533,1226 L856.029406,1226 C848.479043,1226 841.278894,1230.82316 841.278894,1239.07183 C841.278894,1256.26852 869.660085,1250.46603 869.660085,1266.47476 C869.660085,1272.97554 863.788408,1277.72845 855.330042,1277.72845 C851.275434,1277.72845 847.011124,1276.33079 844.145541,1273.39495 C843.726136,1272.97554 843.516433,1272.69559 843.516433,1272.69559 C843.236474,1272.27618 842.817069,1272.06648 842.397663,1272.06648 C841.698299,1272.06648 841,1272.69559 841,1273.4652 C841,1273.7441 841.070256,1274.02406 841.278894,1274.30402 C844.145541,1278.49807 850.577135,1280.52484 855.330042,1280.52484 C864.627219,1280.52484 872.456476,1275.14283 872.456476,1266.47476 C872.456476,1247.88041 844.075285,1253.47212 844.075285,1239.07183 C844.075285,1232.851 849.458365,1228.79639 856.029406,1228.79639 L874.667403,1228.79639 C876.495117,1228.79639 877.976874,1230.27708 877.976874,1232.1048 L877.976874,1275.36637 C877.976874,1277.82958 879.97384,1279.82548 882.435985,1279.82548 L886.028608,1279.82548 C886.252149,1279.81164 886.293664,1279.80419 886.335178,1279.79674 C886.805679,1279.702 887.205924,1279.41352 887.376241,1278.84722 L902.823988,1232.50079 L912.346834,1261.06826 L901.865955,1261.06826 C900.940921,1261.06826 900.443809,1261.77933 900.443809,1262.49041 C900.443809,1263.20148 900.940921,1263.91255 901.865955,1263.91255 L913.295287,1263.91255 L918.2728,1278.84722 C918.482503,1279.54658 919.04242,1279.82548 919.601272,1279.82548 C920.300636,1279.82548 921,1279.33688 921,1278.49807 C921,1278.21811 920.929744,1278.00841 920.929744,1278.00841 L904.15246,1227.67762 Z" id="SIA-symbol-white" sketch:type="MSShapeGroup"></path>
        </g>
    </g>
</svg>