<?xml version="1.0" encoding="UTF-8" standalone="no"?>
<svg width="80px" height="55px" viewBox="0 0 80 55" version="1.1" xmlns="http://www.w3.org/2000/svg" xmlns:xlink="http://www.w3.org/1999/xlink" xmlns:sketch="http://www.bohemiancoding.com/sketch/ns">
    <!-- Generator: Sketch 3.5.2 (25235) - http://www.bohemiancoding.com/sketch -->
    <title>SIA-symbol-color</title>
    <desc>Created with Sketch.</desc>
    <defs></defs>
    <g id="Page-1" stroke="none" stroke-width="1" fill="none" fill-rule="evenodd" sketch:type="MSPage">
        <g id="1-7" sketch:type="MSArtboardGroup" transform="translate(-362.000000, -1226.000000)" fill="#21BAB0">
            <path d="M441.929744,1278.00841 L425.15246,1227.67762 C424.873566,1226.90907 424.383905,1226.48966 423.823988,1226.48966 C423.335391,1226.48966 422.775474,1226.90907 422.49658,1227.67762 L406.045028,1277.03015 L403.476435,1277.03015 C402.535434,1277.03015 401.773266,1276.26692 401.773266,1275.32698 L401.773266,1232.13673 C401.773266,1228.74743 399.02584,1226 395.636533,1226 L377.029406,1226 C369.479043,1226 362.278894,1230.82316 362.278894,1239.07183 C362.278894,1256.26852 390.660085,1250.46603 390.660085,1266.47476 C390.660085,1272.97554 384.788408,1277.72845 376.330042,1277.72845 C372.275434,1277.72845 368.011124,1276.33079 365.145541,1273.39495 C364.726136,1272.97554 364.516433,1272.69559 364.516433,1272.69559 C364.236474,1272.27618 363.817069,1272.06648 363.397663,1272.06648 C362.698299,1272.06648 362,1272.69559 362,1273.4652 C362,1273.7441 362.070256,1274.02406 362.278894,1274.30402 C365.145541,1278.49807 371.577135,1280.52484 376.330042,1280.52484 C385.627219,1280.52484 393.456476,1275.14283 393.456476,1266.47476 C393.456476,1247.88041 365.075285,1253.47212 365.075285,1239.07183 C365.075285,1232.851 370.458365,1228.79639 377.029406,1228.79639 L395.667403,1228.79639 C397.495117,1228.79639 398.976874,1230.27708 398.976874,1232.1048 L398.976874,1275.36637 C398.976874,1277.82958 400.97384,1279.82548 403.435985,1279.82548 L407.028608,1279.82548 L407.037124,1279.82548 L407.047769,1279.82548 C407.066929,1279.82548 407.08609,1279.82335 407.106315,1279.82228 C407.141443,1279.82016 407.176571,1279.81909 407.20957,1279.8159 C407.252149,1279.81164 407.293664,1279.80419 407.335178,1279.79674 C407.344759,1279.79461 407.353275,1279.79354 407.36179,1279.79141 C407.805679,1279.702 408.205924,1279.41352 408.376241,1278.84722 L423.823988,1232.50079 L433.346834,1261.06826 L422.865955,1261.06826 C421.940921,1261.06826 421.443809,1261.77933 421.443809,1262.49041 C421.443809,1263.20148 421.940921,1263.91255 422.865955,1263.91255 L434.295287,1263.91255 L439.2728,1278.84722 C439.482503,1279.54658 440.04242,1279.82548 440.601272,1279.82548 C441.300636,1279.82548 442,1279.33688 442,1278.49807 C442,1278.21811 441.929744,1278.00841 441.929744,1278.00841" id="SIA-symbol-color" sketch:type="MSShapeGroup"></path>
        </g>
    </g>
</svg>