<?xml version="1.0" encoding="UTF-8" standalone="no"?>
<svg width="170px" height="33px" viewBox="0 0 170 33" version="1.1" xmlns="http://www.w3.org/2000/svg" xmlns:xlink="http://www.w3.org/1999/xlink" xmlns:sketch="http://www.bohemiancoding.com/sketch/ns">
    <!-- Generator: Sketch 3.5.2 (25235) - http://www.bohemiancoding.com/sketch -->
    <title>SIA-full-neg</title>
    <desc>Created with Sketch.</desc>
    <defs></defs>
    <g id="Page-1" stroke="none" stroke-width="1" fill="none" fill-rule="evenodd" sketch:type="MSPage">
        <g id="1-7" sketch:type="MSArtboardGroup" transform="translate(-558.000000, -980.000000)">
            <g id="SIA-full-neg" sketch:type="MSLayerGroup" transform="translate(558.000000, 980.000000)">
                <path d="M67.2565458,14.2451282 C65.9924432,14.2451282 64.3005385,13.6927839 63.5346044,12.5712821 C63.4636154,12.4647985 63.4281209,12.3576923 63.4281209,12.2686447 C63.4281209,11.9660073 63.6952637,11.734359 63.9798425,11.734359 C64.1405018,11.734359 64.2831026,11.805348 64.4076447,11.9660073 C64.4076447,11.9660073 64.4605751,12.0369963 64.5496227,12.126044 C65.2445678,12.8564835 66.2776447,13.1765568 67.2565458,13.1765568 C69.3575714,13.1765568 70.7287802,12.0195604 70.7287802,10.4876923 C70.7287802,6.58827839 63.5171685,8.0485348 63.5171685,3.50772894 C63.5171685,1.26410256 65.4400989,2.22044605e-14 67.4340183,2.22044605e-14 C68.8232857,2.22044605e-14 70.4610147,0.747875458 71.2979377,1.8874359 C71.3876081,1.99391941 71.4231026,2.10102564 71.4231026,2.20813187 C71.4231026,2.49271062 71.1740183,2.72435897 70.8888168,2.72435897 C70.7287802,2.72435897 70.5868022,2.67080586 70.4610147,2.52882784 C70.4610147,2.52882784 70.3906484,2.43915751 70.2654835,2.31461538 C69.5356667,1.54868132 68.5032125,1.06857143 67.4340183,1.06857143 C65.8324066,1.06857143 64.5857399,2.04747253 64.5857399,3.50772894 C64.5857399,6.97996337 71.7967289,5.62681319 71.7967289,10.4876923 C71.7967289,12.8384249 69.6782674,14.2451282 67.2565458,14.2451282 Z M79.6293077,7.47863004 C79.6293077,6.14291575 78.561359,5.07496703 77.2262674,5.07496703 C75.8905531,5.07496703 74.821359,6.14291575 74.821359,7.47863004 L74.821359,10.7727692 C74.821359,12.1084835 75.8905531,13.1764322 77.2262674,13.1764322 C78.561359,13.1764322 79.6293077,12.1084835 79.6293077,10.7727692 L79.6293077,7.47863004 Z M74.821359,17.0939048 C74.821359,17.4500952 74.5554615,17.6281905 74.287696,17.6281905 C74.0205531,17.6281905 73.7534103,17.4500952 73.7534103,17.0939048 L73.7534103,7.47863004 C73.7534103,5.55569963 75.3027143,4.0063956 77.2262674,4.0063956 C79.1491978,4.0063956 80.6985018,5.55569963 80.6985018,7.47863004 L80.6985018,10.7727692 C80.6985018,12.6956996 79.1491978,14.2450037 77.2262674,14.2450037 C76.2822381,14.2450037 75.4272564,13.7823297 74.821359,13.1228791 L74.821359,17.0939048 Z M87.7828938,8.97456777 L85.4857143,9.47273626 C84.2571062,9.73987912 83.4556777,10.4522601 83.4556777,11.3601722 C83.4556777,12.4642381 84.3106593,13.176619 85.6096337,13.176619 C86.8563004,13.176619 87.7828938,12.339696 87.7828938,11.1820769 L87.7828938,8.97456777 Z M85.6276923,14.2451905 C83.9357875,14.2451905 82.3877289,13.2476081 82.3877289,11.3782308 C82.3877289,9.59727839 83.8822344,8.72548352 85.5037729,8.38672894 L87.7828938,7.90599634 L87.7828938,7.06845055 C87.7828938,5.87595971 87.1053846,5.07453114 85.6631868,5.07453114 C84.9869231,5.07453114 84.541685,5.28812088 84.1680586,5.57332234 C83.8118681,5.8579011 83.7228205,6.14310256 83.3485714,6.14310256 C83.0820513,6.14310256 82.832967,5.92889011 82.832967,5.62687546 C82.832967,5.43134432 82.9568864,5.25262637 83.0820513,5.11064835 C83.7228205,4.38020879 84.683663,4.00595971 85.6631868,4.00595971 C87.6757875,4.00595971 88.8508425,5.28812088 88.8508425,7.06845055 L88.8508425,11.1820769 C88.8508425,13.0159597 87.3550916,14.2451905 85.6276923,14.2451905 Z M96.5762527,13.6041722 C96.0425897,13.9958571 95.366326,14.2449414 94.6900623,14.2449414 C93.1220769,14.2449414 91.9825165,13.1589341 91.9825165,11.7341722 L91.9825165,5.253 L90.3622234,5.253 C90.006033,5.253 89.8285604,4.98585714 89.8285604,4.71809158 C89.8285604,4.45157143 90.006033,4.18442857 90.3622234,4.18442857 L91.9825165,4.18442857 L91.9825165,1.92274359 C91.9825165,1.56717582 92.2502821,1.38908059 92.5161795,1.38908059 C92.7839451,1.38908059 93.0517106,1.56717582 93.0517106,1.92274359 L93.0517106,4.18442857 L96.2026264,4.18442857 C96.5594396,4.18442857 96.7369121,4.45157143 96.7369121,4.71809158 C96.7369121,4.98585714 96.5594396,5.253 96.2026264,5.253 L93.0517106,5.253 L93.0517106,11.7341722 C93.0517106,12.5181648 93.6563626,13.17637 94.6900623,13.17637 C95.6689634,13.17637 96.0070952,12.5356007 96.4168388,12.5356007 C96.7014176,12.5356007 96.9324432,12.8027436 96.9324432,13.0879451 C96.9324432,13.3189707 96.7549707,13.4615714 96.5762527,13.6041722 Z M98.7119634,14.0669707 C98.4441978,14.0669707 98.1783004,13.8888755 98.1783004,13.5333077 L98.1783004,4.71821612 C98.1783004,4.36264835 98.4441978,4.18455311 98.7119634,4.18455311 C98.9784835,4.18455311 99.2456264,4.36264835 99.2456264,4.71821612 L99.2456264,13.5333077 C99.2456264,13.8888755 98.9784835,14.0669707 98.7119634,14.0669707 Z M98.7119634,0.391622711 C99.1036484,0.391622711 99.4237216,0.712318681 99.4237216,1.10400366 C99.4237216,1.49568864 99.1036484,1.8157619 98.7119634,1.8157619 C98.3202784,1.8157619 97.9989597,1.49568864 97.9989597,1.10400366 C97.9989597,0.712318681 98.3202784,0.391622711 98.7119634,0.391622711 Z M106.420436,8.97456777 L104.123879,9.47273626 C102.895894,9.73987912 102.094465,10.4522601 102.094465,11.3601722 C102.094465,12.4642381 102.948201,13.176619 104.248421,13.176619 C105.495088,13.176619 106.420436,12.339696 106.420436,11.1820769 L106.420436,8.97456777 Z M104.26648,14.2451905 C102.574575,14.2451905 101.025271,13.2476081 101.025271,11.3782308 C101.025271,9.59727839 102.521022,8.72548352 104.141315,8.38672894 L106.420436,7.90599634 L106.420436,7.06845055 C106.420436,5.87595971 105.744172,5.07453114 104.301974,5.07453114 C103.625711,5.07453114 103.180473,5.28812088 102.805601,5.57332234 C102.450656,5.8579011 102.360363,6.14310256 101.987359,6.14310256 C101.719593,6.14310256 101.470509,5.92889011 101.470509,5.62687546 C101.470509,5.43134432 101.595674,5.25262637 101.719593,5.11064835 C102.360363,4.38020879 103.322451,4.00595971 104.301974,4.00595971 C106.314575,4.00595971 107.48963,5.28812088 107.48963,7.06845055 L107.48963,11.1820769 C107.48963,13.0159597 105.993256,14.2451905 104.26648,14.2451905 Z M111.333996,14.2451282 C111.280443,14.2451282 111.191396,14.2451282 111.119784,14.209011 C111.119784,14.209011 111.012678,14.1741392 110.835205,14.0495971 C109.909857,13.4611355 109.534985,12.3396337 109.534985,11.271685 L109.534985,0.712380952 C109.534985,0.355567766 109.802751,0.178095238 110.069271,0.178095238 C110.336414,0.178095238 110.604179,0.355567766 110.604179,0.712380952 L110.604179,11.271685 C110.604179,11.9298901 110.817147,12.9094139 111.511469,13.2120513 C111.74374,13.3191575 111.849601,13.5146886 111.849601,13.7108425 C111.849601,13.9779853 111.636634,14.2451282 111.333996,14.2451282 Z M122.71067,14.0669707 L117.012868,14.0669707 C116.656055,14.0669707 116.477337,13.7998278 116.477337,13.5333077 C116.477337,13.2655421 116.656055,12.9983993 117.012868,12.9983993 L119.326861,12.9983993 L119.326861,1.2466044 L117.012868,1.2466044 C116.656055,1.2466044 116.477337,0.978838828 116.477337,0.712318681 C116.477337,0.445175824 116.656055,0.178032967 117.012868,0.178032967 L122.71067,0.178032967 C123.065615,0.178032967 123.244333,0.445175824 123.244333,0.712318681 C123.244333,0.978838828 123.065615,1.2466044 122.71067,1.2466044 L120.39481,1.2466044 L120.39481,12.9983993 L122.71067,12.9983993 C123.065615,12.9983993 123.244333,13.2655421 123.244333,13.5333077 C123.244333,13.7998278 123.065615,14.0669707 122.71067,14.0669707 Z M135.706081,14.0669707 C135.43956,14.0669707 135.172418,13.8888755 135.172418,13.5333077 L135.172418,7.12250183 C135.172418,5.98294139 134.263883,5.0750293 133.124322,5.0750293 C131.984139,5.0750293 131.07685,5.98294139 131.07685,7.12250183 L131.07685,13.5333077 C131.07685,13.9063114 130.809707,14.0844066 130.543187,14.0844066 C130.275421,14.0844066 130.008278,13.9063114 130.008278,13.5333077 L130.008278,7.12250183 C130.008278,5.98294139 129.100989,5.0750293 127.960806,5.0750293 C126.821245,5.0750293 125.912711,5.98294139 125.912711,7.12250183 L125.912711,13.5333077 C125.912711,13.8888755 125.645568,14.0669707 125.379048,14.0669707 C125.111282,14.0669707 124.845385,13.8888755 124.845385,13.5333077 L124.845385,7.12250183 C124.845385,5.39510256 126.234029,4.00645788 127.960806,4.00645788 C129.028755,4.00645788 129.990842,4.55817949 130.543187,5.37766667 C131.094286,4.55817949 132.056374,4.00645788 133.124322,4.00645788 C134.852344,4.00645788 136.240989,5.39510256 136.240989,7.12250183 L136.240989,13.5333077 C136.240989,13.8888755 135.973846,14.0669707 135.706081,14.0669707 Z M144.250106,7.47863004 C144.250106,6.14291575 143.182158,5.07496703 141.847066,5.07496703 C140.511352,5.07496703 139.443403,6.14291575 139.443403,7.47863004 L139.443403,10.7727692 C139.443403,12.1084835 140.511352,13.1764322 141.847066,13.1764322 C143.182158,13.1764322 144.250106,12.1084835 144.250106,10.7727692 L144.250106,7.47863004 Z M139.443403,17.0939048 C139.443403,17.4500952 139.17626,17.6281905 138.908495,17.6281905 C138.641974,17.6281905 138.374209,17.4500952 138.374209,17.0939048 L138.374209,7.47863004 C138.374209,5.55569963 139.924136,4.0063956 141.847066,4.0063956 C143.769996,4.0063956 145.3193,5.55569963 145.3193,7.47863004 L145.3193,10.7727692 C145.3193,12.6956996 143.769996,14.2450037 141.847066,14.2450037 C140.903037,14.2450037 140.048055,13.7823297 139.443403,13.1228791 L139.443403,17.0939048 Z M152.403692,8.97456777 L150.106513,9.47273626 C148.877905,9.73987912 148.076476,10.4522601 148.076476,11.3601722 C148.076476,12.4642381 148.931458,13.176619 150.231678,13.176619 C151.478344,13.176619 152.403692,12.339696 152.403692,11.1820769 L152.403692,8.97456777 Z M150.248491,14.2451905 C148.557832,14.2451905 147.008527,13.2476081 147.008527,11.3782308 C147.008527,9.59727839 148.504278,8.72548352 150.124571,8.38672894 L152.403692,7.90599634 L152.403692,7.06845055 C152.403692,5.87595971 151.727429,5.07453114 150.285231,5.07453114 C149.607722,5.07453114 149.162484,5.28812088 148.788857,5.57332234 C148.432667,5.8579011 148.343619,6.14310256 147.96937,6.14310256 C147.70285,6.14310256 147.453766,5.92889011 147.453766,5.62687546 C147.453766,5.43134432 147.577685,5.25262637 147.70285,5.11064835 C148.343619,4.38020879 149.304462,4.00595971 150.285231,4.00595971 C152.296586,4.00595971 153.471641,5.28812088 153.471641,7.06845055 L153.471641,11.1820769 C153.471641,13.0159597 151.976513,14.2451905 150.248491,14.2451905 Z M161.696963,12.9449707 C161.696963,12.9449707 161.625352,13.034641 161.501432,13.176619 C160.806487,13.9064359 159.790846,14.2451905 158.793886,14.2451905 C156.817403,14.2451905 155.428758,13.0159597 155.428758,11.1820769 L155.428758,7.06845055 C155.428758,5.23456777 156.817403,4.00658242 158.793886,4.00658242 C159.774033,4.00658242 161.109747,4.4337619 161.696963,5.30617949 C161.76733,5.412663 161.786011,5.51976923 161.786011,5.60881685 C161.786011,5.91145421 161.518245,6.14310256 161.233667,6.14310256 C161.091066,6.14310256 160.931029,6.08954945 160.806487,5.91145421 C160.806487,5.91145421 160.788429,5.87595971 160.718062,5.8049707 C160.236084,5.28812088 159.488209,5.07453114 158.793886,5.07453114 C157.316194,5.07453114 156.49733,5.92889011 156.49733,7.06845055 L156.49733,11.1820769 C156.49733,12.3216374 157.316194,13.176619 158.793886,13.176619 C159.471396,13.176619 160.396744,12.9275348 160.806487,12.339696 C160.931029,12.1796593 161.091066,12.1080476 161.233667,12.1080476 C161.518245,12.1080476 161.80407,12.339696 161.80407,12.6242747 C161.80407,12.731381 161.76733,12.8384872 161.696963,12.9449707 Z M169.261901,13.6041722 C168.728238,13.9958571 168.051974,14.2449414 167.375711,14.2449414 C165.807725,14.2449414 164.668165,13.1589341 164.668165,11.7341722 L164.668165,5.253 L163.047872,5.253 C162.691681,5.253 162.514209,4.98585714 162.514209,4.71809158 C162.514209,4.45157143 162.691681,4.18442857 163.047872,4.18442857 L164.668165,4.18442857 L164.668165,1.92274359 C164.668165,1.56717582 164.93593,1.38908059 165.201828,1.38908059 C165.469593,1.38908059 165.737359,1.56717582 165.737359,1.92274359 L165.737359,4.18442857 L168.888275,4.18442857 C169.245088,4.18442857 169.42256,4.45157143 169.42256,4.71809158 C169.42256,4.98585714 169.245088,5.253 168.888275,5.253 L165.737359,5.253 L165.737359,11.7341722 C165.737359,12.5181648 166.342011,13.17637 167.375711,13.17637 C168.354612,13.17637 168.692744,12.5356007 169.102487,12.5356007 C169.387066,12.5356007 169.618092,12.8027436 169.618092,13.0879451 C169.618092,13.3189707 169.440619,13.4615714 169.261901,13.6041722 Z M67.7017216,20.2059011 L65.6368132,26.4199304 L69.7853114,26.4199304 L67.7017216,20.2059011 Z M71.957326,31.8686484 C71.7617949,31.8686484 71.565641,31.7621648 71.4765934,31.495022 L70.1415018,27.4885018 L65.28,27.4885018 L63.9449084,31.495022 C63.8552381,31.7621648 63.659707,31.8686484 63.4461172,31.8686484 C63.1783516,31.8686484 62.8937729,31.6731172 62.8937729,31.3524212 C62.8937729,31.2988681 62.9118315,31.2278791 62.9292674,31.174326 L67.2029304,18.3539597 C67.3100366,18.0332637 67.5061905,17.890663 67.7017216,17.890663 C67.9159341,17.890663 68.1114652,18.0332637 68.2179487,18.3539597 L72.490989,31.174326 C72.5096703,31.2278791 72.5271062,31.2988681 72.5271062,31.3524212 C72.5271062,31.6731172 72.2419048,31.8686484 71.957326,31.8686484 Z M76.4062821,32.0471172 C75.49837,32.0471172 74.252326,31.6373736 73.6999817,30.8178864 C73.62837,30.7114029 73.5928755,30.6049194 73.5928755,30.5158718 C73.5928755,30.2132344 73.860641,29.9815861 74.1452198,29.9815861 C74.3058791,29.9815861 74.4478571,30.0351392 74.5723993,30.2132344 C74.5723993,30.2132344 74.6078938,30.2481062 74.6614469,30.3016593 C75.106685,30.764956 75.7655128,30.9785458 76.4062821,30.9785458 C77.7949267,30.9785458 78.6505311,30.1771172 78.6505311,29.2330879 C78.6505311,26.7048828 73.6464286,27.6308535 73.6464286,24.3541502 C73.6464286,22.6634908 75.1241209,21.8085092 76.5314469,21.8085092 C77.5284066,21.8085092 78.7034615,22.3427949 79.2558059,23.2145897 C79.309359,23.3042601 79.3448535,23.4107436 79.3448535,23.5178498 C79.3448535,23.8030513 79.0602747,24.0340769 78.7925092,24.0340769 C78.6318498,24.0340769 78.4718132,23.9630879 78.3472711,23.78437 C78.3472711,23.78437 78.3123993,23.7494982 78.2588462,23.6598278 C77.831044,23.1797179 77.2077106,22.8764579 76.5314469,22.8764579 C75.4622527,22.8764579 74.715,23.4823553 74.715,24.3541502 C74.715,26.5622821 79.7184799,25.7434176 79.7184799,29.2330879 C79.7184799,30.9611099 78.1697985,32.0471172 76.4062821,32.0471172 Z M83.9542198,32.0471172 C83.0469304,32.0471172 81.8002637,31.6373736 81.2479194,30.8178864 C81.1763077,30.7114029 81.1408132,30.6049194 81.1408132,30.5158718 C81.1408132,30.2132344 81.4085788,29.9815861 81.6931575,29.9815861 C81.8538168,29.9815861 81.9957949,30.0351392 82.120337,30.2132344 C82.120337,30.2132344 82.1558315,30.2481062 82.2087619,30.3016593 C82.654,30.764956 83.3134505,30.9785458 83.9542198,30.9785458 C85.3428645,30.9785458 86.1984689,30.1771172 86.1984689,29.2330879 C86.1984689,26.7048828 81.1943663,27.6308535 81.1943663,24.3541502 C81.1943663,22.6634908 82.6720586,21.8085092 84.0793846,21.8085092 C85.076967,21.8085092 86.2513993,22.3427949 86.8037436,23.2145897 C86.8572967,23.3042601 86.8927912,23.4107436 86.8927912,23.5178498 C86.8927912,23.8030513 86.6082125,24.0340769 86.3404469,24.0340769 C86.1797875,24.0340769 86.0203736,23.9630879 85.8952088,23.78437 C85.8952088,23.78437 85.860337,23.7494982 85.8067839,23.6598278 C85.378359,23.1797179 84.7556484,22.8764579 84.0793846,22.8764579 C83.0101905,22.8764579 82.262315,23.4823553 82.262315,24.3541502 C82.262315,26.5622821 87.2657949,25.7434176 87.2657949,29.2330879 C87.2657949,30.9611099 85.7177363,32.0471172 83.9542198,32.0471172 Z M94.8321648,25.280619 C94.8321648,23.9449048 93.7629707,22.876956 92.4278791,22.876956 C91.0921648,22.876956 90.0242161,23.9449048 90.0242161,25.280619 L90.0242161,25.993 L94.8321648,25.993 L94.8321648,25.280619 Z M95.3658278,27.0609487 L90.0242161,27.0609487 L90.0242161,28.5747582 C90.0242161,29.8569194 91.2347656,30.9784212 92.6065971,30.9784212 C93.2828608,30.9784212 94.102348,30.7828901 94.6179524,30.1234396 C94.7431172,29.9640256 94.9212125,29.8924139 95.0631905,29.8924139 C95.3477692,29.8924139 95.6155348,30.1234396 95.6155348,30.408641 C95.6155348,30.5157473 95.5800403,30.6402894 95.5084286,30.7467729 C94.8321648,31.6372491 93.6926044,32.0469927 92.6065971,32.0469927 C90.7359744,32.0469927 88.955022,30.5338059 88.955022,28.5747582 L88.955022,25.280619 C88.955022,23.3576886 90.5049487,21.8083846 92.4278791,21.8083846 C94.3508095,21.8083846 95.9001136,23.3576886 95.9001136,25.280619 L95.9001136,26.5272857 C95.9001136,26.8118645 95.6504066,27.0609487 95.3658278,27.0609487 Z M100.313762,32.0471172 C99.4064725,32.0471172 98.1598059,31.6373736 97.6074615,30.8178864 C97.5370952,30.7114029 97.5003553,30.6049194 97.5003553,30.5158718 C97.5003553,30.2132344 97.7681209,29.9815861 98.0526996,29.9815861 C98.213359,29.9815861 98.355337,30.0351392 98.4811245,30.2132344 L98.5695495,30.3016593 C99.0147875,30.764956 99.6729927,30.9785458 100.313762,30.9785458 C101.702407,30.9785458 102.558011,30.1771172 102.558011,29.2330879 C102.558011,26.7048828 97.5539084,27.6308535 97.5539084,24.3541502 C97.5539084,22.6634908 99.0316007,21.8085092 100.438927,21.8085092 C101.436509,21.8085092 102.610941,22.3427949 103.163286,23.2145897 C103.216839,23.3042601 103.252333,23.4107436 103.252333,23.5178498 C103.252333,23.8030513 102.967755,24.0340769 102.699989,24.0340769 C102.540575,24.0340769 102.379916,23.9630879 102.254751,23.78437 C102.254751,23.78437 102.219879,23.7494982 102.166326,23.6598278 C101.739147,23.1797179 101.11519,22.8764579 100.438927,22.8764579 C99.370978,22.8764579 98.6231026,23.4823553 98.6231026,24.3541502 C98.6231026,26.5622821 103.626582,25.7434176 103.626582,29.2330879 C103.626582,30.9611099 102.077278,32.0471172 100.313762,32.0471172 Z M107.861637,32.0471172 C106.954348,32.0471172 105.707681,31.6373736 105.155337,30.8178864 C105.084971,30.7114029 105.048231,30.6049194 105.048231,30.5158718 C105.048231,30.2132344 105.315996,29.9815861 105.600575,29.9815861 C105.761234,29.9815861 105.903212,30.0351392 106.029,30.2132344 L106.117425,30.3016593 C106.562663,30.764956 107.220868,30.9785458 107.861637,30.9785458 C109.250282,30.9785458 110.105886,30.1771172 110.105886,29.2330879 C110.105886,26.7048828 105.101784,27.6308535 105.101784,24.3541502 C105.101784,22.6634908 106.579476,21.8085092 107.986802,21.8085092 C108.984385,21.8085092 110.158817,22.3427949 110.711161,23.2145897 C110.764714,23.3042601 110.800209,23.4107436 110.800209,23.5178498 C110.800209,23.8030513 110.51563,24.0340769 110.247864,24.0340769 C110.088451,24.0340769 109.927791,23.9630879 109.802626,23.78437 C109.802626,23.78437 109.767755,23.7494982 109.714201,23.6598278 C109.287022,23.1797179 108.663066,22.8764579 107.986802,22.8764579 C106.918853,22.8764579 106.170978,23.4823553 106.170978,24.3541502 C106.170978,26.5622821 111.174458,25.7434176 111.174458,29.2330879 C111.174458,30.9611099 109.625154,32.0471172 107.861637,32.0471172 Z M123.814985,31.8689597 C123.54722,31.8689597 123.281322,31.6908645 123.281322,31.3352967 L123.281322,24.9244908 C123.281322,23.7849304 122.372788,22.8770183 121.233227,22.8770183 C120.093044,22.8770183 119.184509,23.7849304 119.184509,24.9244908 L119.184509,31.3352967 C119.184509,31.7083004 118.918612,31.8863956 118.650846,31.8863956 C118.383081,31.8863956 118.117183,31.7083004 118.117183,31.3352967 L118.117183,24.9244908 C118.117183,23.7849304 117.208648,22.8770183 116.069088,22.8770183 C114.928905,22.8770183 114.021615,23.7849304 114.021615,24.9244908 L114.021615,31.3352967 C114.021615,31.6908645 113.754473,31.8689597 113.486707,31.8689597 C113.220187,31.8689597 112.953044,31.6908645 112.953044,31.3352967 L112.953044,24.9244908 C112.953044,23.1970916 114.341689,21.8084469 116.069088,21.8084469 C117.137659,21.8084469 118.098502,22.3601685 118.650846,23.1796557 C119.20319,22.3601685 120.165278,21.8084469 121.233227,21.8084469 C122.960004,21.8084469 124.348648,23.1970916 124.348648,24.9244908 L124.348648,31.3352967 C124.348648,31.6908645 124.081505,31.8689597 123.814985,31.8689597 Z M132.269029,25.280619 C132.269029,23.9449048 131.201081,22.876956 129.865989,22.876956 C128.530275,22.876956 127.461081,23.9449048 127.461081,25.280619 L127.461081,25.993 L132.269029,25.993 L132.269029,25.280619 Z M132.803938,27.0609487 L127.461081,27.0609487 L127.461081,28.5747582 C127.461081,29.8569194 128.672875,30.9784212 130.043462,30.9784212 C130.720971,30.9784212 131.539212,30.7828901 132.056062,30.1234396 C132.179982,29.9640256 132.358077,29.8924139 132.5013,29.8924139 C132.785879,29.8924139 133.052399,30.1234396 133.052399,30.408641 C133.052399,30.5157473 133.016905,30.6402894 132.946538,30.7467729 C132.269029,31.6372491 131.129469,32.0469927 130.043462,32.0469927 C128.174084,32.0469927 126.393132,30.5338059 126.393132,28.5747582 L126.393132,25.280619 C126.393132,23.3576886 127.943059,21.8083846 129.865989,21.8083846 C131.788919,21.8083846 133.338223,23.3576886 133.338223,25.280619 L133.338223,26.5272857 C133.338223,26.8118645 133.088516,27.0609487 132.803938,27.0609487 Z M141.704527,31.8689597 C141.438007,31.8689597 141.170864,31.6908645 141.170864,31.3352967 L141.170864,25.2806813 C141.170864,23.944967 140.102916,22.8770183 138.767201,22.8770183 C137.430864,22.8770183 136.362916,23.944967 136.362916,25.2806813 L136.362916,31.3352967 C136.362916,31.6908645 136.09515,31.8689597 135.82863,31.8689597 C135.561487,31.8689597 135.294967,31.6908645 135.294967,31.3352967 L135.294967,25.2806813 C135.294967,23.3577509 136.843026,21.8084469 138.767201,21.8084469 C140.690132,21.8084469 142.23819,23.3577509 142.23819,25.2806813 L142.23819,31.3352967 C142.23819,31.6908645 141.972293,31.8689597 141.704527,31.8689597 Z M150.053956,31.4061612 C149.520293,31.7978462 148.842784,32.0469304 148.16652,32.0469304 C146.59978,32.0469304 145.46022,30.9609231 145.46022,29.5361612 L145.46022,23.054989 L143.839304,23.054989 C143.483736,23.054989 143.305018,22.7878462 143.305018,22.5200806 C143.305018,22.2535604 143.483736,21.9864176 143.839304,21.9864176 L145.46022,21.9864176 L145.46022,19.7247326 C145.46022,19.3691648 145.72674,19.1910696 145.993883,19.1910696 C146.260403,19.1910696 146.528168,19.3691648 146.528168,19.7247326 L146.528168,21.9864176 L149.679084,21.9864176 C150.035897,21.9864176 150.214615,22.2535604 150.214615,22.5200806 C150.214615,22.7878462 150.035897,23.054989 149.679084,23.054989 L146.528168,23.054989 L146.528168,29.5361612 C146.528168,30.3201538 147.134066,30.978359 148.16652,30.978359 C149.145421,30.978359 149.483553,30.3375897 149.893297,30.3375897 C150.177875,30.3375897 150.410147,30.6047326 150.410147,30.8899341 C150.410147,31.1209597 150.231429,31.2635604 150.053956,31.4061612 Z" id="Fill-1" fill="#FFFFFF" sketch:type="MSShapeGroup"></path>
                <path d="M46.7580952,30.4243956 L36.9435531,0.981391941 C36.7804029,0.531794872 36.493956,0.286446886 36.1664103,0.286446886 C35.8805861,0.286446886 35.5530403,0.531794872 35.3898901,0.981391941 L25.7658974,29.8521245 L24.2632967,29.8521245 C23.7128205,29.8521245 23.2669597,29.405641 23.2669597,28.8557875 L23.2669597,3.58992674 C23.2669597,1.60721612 21.6597436,0 19.677033,0 L8.79205128,0 C4.37516484,0 0.163150183,2.82150183 0.163150183,7.64688645 C0.163150183,17.7067766 16.7658608,14.312381 16.7658608,23.677326 C16.7658608,27.4802198 13.330989,30.2606227 8.3829304,30.2606227 C6.01102564,30.2606227 3.51644689,29.4430037 1.84010989,27.7255678 C1.5947619,27.4802198 1.47208791,27.3164469 1.47208791,27.3164469 C1.30831502,27.0710989 1.06296703,26.9484249 0.817619048,26.9484249 C0.408498168,26.9484249 0,27.3164469 0,27.7666667 C0,27.9298168 0.0410989011,28.0935897 0.163150183,28.2573626 C1.84010989,30.7108425 5.60252747,31.8964835 8.3829304,31.8964835 C13.821685,31.8964835 18.4017216,28.7480586 18.4017216,23.677326 C18.4017216,12.7998168 1.79901099,16.0709158 1.79901099,7.64688645 C1.79901099,4.00776557 4.94805861,1.63586081 8.79205128,1.63586081 L19.6950916,1.63586081 C20.7642857,1.63586081 21.6310989,2.50205128 21.6310989,3.57124542 L21.6310989,28.8788278 C21.6310989,30.3197802 22.799304,31.4873626 24.2396337,31.4873626 L26.3412821,31.4873626 L26.3462637,31.4873626 L26.3524908,31.4873626 C26.3636996,31.4873626 26.3749084,31.4861172 26.3867399,31.4854945 C26.4072894,31.4842491 26.4278388,31.4836264 26.4471429,31.4817582 C26.4720513,31.4792674 26.496337,31.4749084 26.5206227,31.4705495 C26.5262271,31.469304 26.5312088,31.4686813 26.5361905,31.4674359 C26.7958608,31.4151282 27.03,31.2463736 27.1296337,30.9150916 L36.1664103,3.80289377 L41.7371795,20.5145788 L35.6059707,20.5145788 C35.0648352,20.5145788 34.7740293,20.9305495 34.7740293,21.3465201 C34.7740293,21.7624908 35.0648352,22.1784615 35.6059707,22.1784615 L42.2920147,22.1784615 L45.2038095,30.9150916 C45.3264835,31.3242125 45.6540293,31.4873626 45.9809524,31.4873626 C46.3900733,31.4873626 46.7991941,31.2015385 46.7991941,30.7108425 C46.7991941,30.5470696 46.7580952,30.4243956 46.7580952,30.4243956" id="Fill-47" fill="#21BAB0" sketch:type="MSShapeGroup"></path>
            </g>
        </g>
    </g>
</svg>