<?xml version="1.0" encoding="UTF-8" standalone="no"?>
<svg width="170px" height="35px" viewBox="0 0 170 35" version="1.1" xmlns="http://www.w3.org/2000/svg" xmlns:xlink="http://www.w3.org/1999/xlink" xmlns:sketch="http://www.bohemiancoding.com/sketch/ns">
    <!-- Generator: Sketch 3.5.2 (25235) - http://www.bohemiancoding.com/sketch -->
    <title>UR-full-neg</title>
    <desc>Created with Sketch.</desc>
    <defs></defs>
    <g id="Page-1" stroke="none" stroke-width="1" fill="none" fill-rule="evenodd" sketch:type="MSPage">
        <g id="1-7" sketch:type="MSArtboardGroup" transform="translate(-557.000000, -2689.000000)">
            <g id="UR-full-neg" sketch:type="MSLayerGroup" transform="translate(557.000000, 2689.000000)">
                <path d="M62.2513333,15.0608 C59.544,15.0608 57.3333333,12.8494667 57.3333333,10.1421333 L57.3333333,0.5728 C57.3333333,0.1908 57.6193333,0.000133333333 57.9046667,0.000133333333 C58.1913333,0.000133333333 58.4766667,0.1908 58.4766667,0.5728 L58.4766667,10.1421333 C58.4766667,12.2201333 60.1733333,13.9168 62.2513333,13.9168 C64.3293333,13.9168 66.026,12.2201333 66.026,10.1421333 L66.026,0.5728 C66.026,0.1908 66.312,0.000133333333 66.598,0.000133333333 C66.884,0.000133333333 67.17,0.1908 67.17,0.5728 L67.17,10.1421333 C67.17,12.8494667 64.9586667,15.0608 62.2513333,15.0608 Z M76.3170667,14.8700667 C76.0310667,14.8700667 75.7450667,14.6794 75.7450667,14.2980667 L75.7450667,7.81673333 C75.7450667,6.38673333 74.6017333,5.2434 73.1717333,5.2434 C71.7424,5.2434 70.5977333,6.38673333 70.5977333,7.81673333 L70.5977333,14.2980667 C70.5977333,14.6794 70.3124,14.8700667 70.0257333,14.8700667 C69.7404,14.8700667 69.4544,14.6794 69.4544,14.2980667 L69.4544,7.81673333 C69.4544,5.7574 71.1124,4.0994 73.1717333,4.0994 C75.2304,4.0994 76.8890667,5.7574 76.8890667,7.81673333 L76.8890667,14.2980667 C76.8890667,14.6794 76.6030667,14.8700667 76.3170667,14.8700667 Z M85.3698,7.81666667 C85.3698,6.38666667 84.2264667,5.24333333 82.7971333,5.24333333 C81.3671333,5.24333333 80.2224667,6.38666667 80.2224667,7.81666667 L80.2224667,11.3433333 C80.2224667,12.7733333 81.3671333,13.9166667 82.7971333,13.9166667 C84.2264667,13.9166667 85.3698,12.7733333 85.3698,11.3433333 L85.3698,7.81666667 Z M85.3698,0.572666667 C85.3698,0.191333333 85.6564667,0 85.9424667,0 C86.2278,0 86.5144667,0.191333333 86.5144667,0.572666667 L86.5144667,11.3433333 C86.5144667,13.402 84.8558,15.0606667 82.7971333,15.0606667 C80.7384667,15.0606667 79.0791333,13.402 79.0791333,11.3433333 L79.0791333,7.81666667 C79.0791333,5.75733333 80.7384667,4.09933333 82.7971333,4.09933333 C83.8071333,4.09933333 84.7224667,4.59466667 85.3698,5.30066667 L85.3698,0.572666667 Z M94.9948,7.81666667 C94.9948,6.38666667 93.8501333,5.24333333 92.4208,5.24333333 C90.9908,5.24333333 89.8474667,6.38666667 89.8474667,7.81666667 L89.8474667,8.57933333 L94.9948,8.57933333 L94.9948,7.81666667 Z M95.5661333,9.72266667 L89.8474667,9.72266667 L89.8474667,11.3433333 C89.8474667,12.716 91.1434667,13.9166667 92.6121333,13.9166667 C93.3361333,13.9166667 94.2134667,13.7073333 94.7654667,13.0013333 C94.8994667,12.8306667 95.0901333,12.754 95.2421333,12.754 C95.5468,12.754 95.8334667,13.0013333 95.8334667,13.3066667 C95.8334667,13.4206667 95.7954667,13.554 95.7188,13.6686667 C94.9948,14.622 93.7748,15.0606667 92.6121333,15.0606667 C90.6094667,15.0606667 88.7028,13.4406667 88.7028,11.3433333 L88.7028,7.81666667 C88.7028,5.75733333 90.3621333,4.09933333 92.4208,4.09933333 C94.4808,4.09933333 96.1381333,5.75733333 96.1381333,7.81666667 L96.1381333,9.15066667 C96.1381333,9.456 95.8708,9.72266667 95.5661333,9.72266667 Z M103.532533,6.00546667 C103.399867,6.00546667 103.265867,5.94813333 103.132533,5.83346667 C103.132533,5.83346667 103.093867,5.79613333 103.037867,5.75746667 C102.636533,5.43413333 102.102533,5.2428 101.5692,5.2428 C100.196533,5.2428 99.3778667,6.23413333 99.3778667,7.95013333 L99.3778667,14.2974667 C99.3778667,14.6794667 99.0912,14.8701333 98.8045333,14.8701333 C98.5192,14.8701333 98.2332,14.6794667 98.2332,14.2974667 L98.2332,7.95013333 C98.2332,5.83346667 99.3578667,4.09946667 101.5692,4.09946667 C102.350533,4.09946667 103.360533,4.44213333 103.933867,5.03346667 C104.066533,5.1668 104.123867,5.30013333 104.123867,5.43413333 C104.123867,5.7388 103.856533,6.00546667 103.532533,6.00546667 Z M108.087267,15.0608 C107.1146,15.0608 105.779933,14.6221333 105.1886,13.7448 C105.113267,13.6301333 105.073933,13.5168 105.073933,13.4208 C105.073933,13.0974667 105.3606,12.8494667 105.665267,12.8494667 C105.837267,12.8494667 105.989933,12.9068 106.123933,13.0974667 L106.2186,13.1921333 C106.695267,13.6874667 107.399933,13.9168 108.087267,13.9168 C109.573267,13.9168 110.4886,13.0588 110.4886,12.0481333 C110.4886,9.34146667 105.131267,10.3328 105.131267,6.8248 C105.131267,5.01413333 106.713267,4.09946667 108.219933,4.09946667 C109.287933,4.09946667 110.545933,4.6708 111.1366,5.6048 C111.193933,5.70013333 111.231933,5.8148 111.231933,5.92946667 C111.231933,6.23413333 110.927267,6.48213333 110.6406,6.48213333 C110.469933,6.48213333 110.297933,6.40613333 110.163933,6.2148 C110.163933,6.2148 110.1266,6.17746667 110.069267,6.08146667 C109.611933,5.56746667 108.943933,5.2428 108.219933,5.2428 C107.0766,5.2428 106.275933,5.8908 106.275933,6.8248 C106.275933,9.1888 111.6326,8.31213333 111.6326,12.0481333 C111.6326,13.8974667 109.973933,15.0608 108.087267,15.0608 Z M119.6172,14.3739333 C119.045867,14.7939333 118.321867,15.0606 117.597867,15.0606 C115.9192,15.0606 114.6992,13.8972667 114.6992,12.3726 L114.6992,5.43393333 L112.964533,5.43393333 C112.5832,5.43393333 112.3932,5.14726667 112.3932,4.86126667 C112.3932,4.57593333 112.5832,4.28993333 112.964533,4.28993333 L114.6992,4.28993333 L114.6992,1.8686 C114.6992,1.48726667 114.985867,1.29726667 115.270533,1.29726667 C115.5572,1.29726667 115.843867,1.48726667 115.843867,1.8686 L115.843867,4.28993333 L119.2172,4.28993333 C119.5992,4.28993333 119.7892,4.57593333 119.7892,4.86126667 C119.7892,5.14726667 119.5992,5.43393333 119.2172,5.43393333 L115.843867,5.43393333 L115.843867,12.3726 C115.843867,13.2112667 116.4912,13.9166 117.597867,13.9166 C118.645867,13.9166 119.007867,13.2306 119.446533,13.2306 C119.7512,13.2306 119.998533,13.5166 119.998533,13.8212667 C119.998533,14.0692667 119.808533,14.2212667 119.6172,14.3739333 Z M126.726533,9.4176 L124.2672,9.9516 C122.951867,10.2369333 122.093867,11.0002667 122.093867,11.9722667 C122.093867,13.1536 123.0092,13.9169333 124.4012,13.9169333 C125.735867,13.9169333 126.726533,13.0202667 126.726533,11.7816 L126.726533,9.4176 Z M124.4192,15.0609333 C122.6092,15.0609333 120.950533,13.9929333 120.950533,11.9909333 C120.950533,10.0849333 122.551867,9.15093333 124.286533,8.78893333 L126.726533,8.2736 L126.726533,7.3776 C126.726533,6.10026667 126.002533,5.24293333 124.458533,5.24293333 C123.7332,5.24293333 123.256533,5.4716 122.856533,5.77693333 C122.4752,6.0816 122.379867,6.38693333 121.9792,6.38693333 C121.693867,6.38693333 121.4272,6.1576 121.4272,5.8336 C121.4272,5.62426667 121.559867,5.4336 121.693867,5.28093333 C122.379867,4.4996 123.408533,4.09893333 124.458533,4.09893333 C126.611867,4.09893333 127.869867,5.4716 127.869867,7.3776 L127.869867,11.7816 C127.869867,13.7449333 126.2692,15.0609333 124.4192,15.0609333 Z M136.9232,14.8700667 C136.637867,14.8700667 136.351867,14.6794 136.351867,14.2980667 L136.351867,7.81673333 C136.351867,6.38673333 135.208533,5.2434 133.778533,5.2434 C132.347867,5.2434 131.204533,6.38673333 131.204533,7.81673333 L131.204533,14.2980667 C131.204533,14.6794 130.917867,14.8700667 130.632533,14.8700667 C130.346533,14.8700667 130.0612,14.6794 130.0612,14.2980667 L130.0612,7.81673333 C130.0612,5.7574 131.718533,4.0994 133.778533,4.0994 C135.8372,4.0994 137.494533,5.7574 137.494533,7.81673333 L137.494533,14.2980667 C137.494533,14.6794 137.209867,14.8700667 136.9232,14.8700667 Z M145.976533,7.81666667 C145.976533,6.38666667 144.831867,5.24333333 143.402533,5.24333333 C141.972533,5.24333333 140.8292,6.38666667 140.8292,7.81666667 L140.8292,11.3433333 C140.8292,12.7733333 141.972533,13.9166667 143.402533,13.9166667 C144.831867,13.9166667 145.976533,12.7733333 145.976533,11.3433333 L145.976533,7.81666667 Z M145.976533,0.572666667 C145.976533,0.191333333 146.261867,0 146.547867,0 C146.834533,0 147.119867,0.191333333 147.119867,0.572666667 L147.119867,11.3433333 C147.119867,13.402 145.462533,15.0606667 143.402533,15.0606667 C141.343867,15.0606667 139.684533,13.402 139.684533,11.3433333 L139.684533,7.81666667 C139.684533,5.75733333 141.343867,4.09933333 143.402533,4.09933333 C144.412533,4.09933333 145.327867,4.59466667 145.976533,5.30066667 L145.976533,0.572666667 Z M149.976533,14.8700667 C149.6912,14.8700667 149.4052,14.6794 149.4052,14.2980667 L149.4052,4.8614 C149.4052,4.48006667 149.6912,4.29006667 149.976533,4.29006667 C150.2632,4.29006667 150.5492,4.48006667 150.5492,4.8614 L150.5492,14.2980667 C150.5492,14.6794 150.2632,14.8700667 149.976533,14.8700667 Z M149.976533,0.2294 C150.395867,0.2294 150.739867,0.572733333 150.739867,0.992066667 C150.739867,1.4114 150.395867,1.75406667 149.976533,1.75406667 C149.5572,1.75406667 149.214533,1.4114 149.214533,0.992066667 C149.214533,0.572733333 149.5572,0.2294 149.976533,0.2294 Z M159.697933,14.8700667 C159.4126,14.8700667 159.1266,14.6794 159.1266,14.2980667 L159.1266,7.81673333 C159.1266,6.38673333 157.983267,5.2434 156.553267,5.2434 C155.1226,5.2434 153.979267,6.38673333 153.979267,7.81673333 L153.979267,14.2980667 C153.979267,14.6794 153.6926,14.8700667 153.407267,14.8700667 C153.121267,14.8700667 152.835933,14.6794 152.835933,14.2980667 L152.835933,7.81673333 C152.835933,5.7574 154.493267,4.0994 156.553267,4.0994 C158.611933,4.0994 160.269267,5.7574 160.269267,7.81673333 L160.269267,14.2980667 C160.269267,14.6794 159.9846,14.8700667 159.697933,14.8700667 Z M168.751333,7.81666667 C168.751333,6.38666667 167.606667,5.24333333 166.177333,5.24333333 C164.747333,5.24333333 163.604,6.38666667 163.604,7.81666667 L163.604,10.962 C163.604,12.3913333 164.747333,13.5353333 166.177333,13.5353333 C167.606667,13.5353333 168.751333,12.3913333 168.751333,10.962 L168.751333,7.81666667 Z M168.751333,13.478 C168.102667,14.184 167.187333,14.6793333 166.177333,14.6793333 C164.118667,14.6793333 162.459333,13.0206667 162.459333,10.962 L162.459333,7.81666667 C162.459333,5.75733333 164.118667,4.09933333 166.177333,4.09933333 C168.237333,4.09933333 169.894667,5.75733333 169.894667,7.81666667 L169.894667,14.9653333 C169.894667,17.0246667 168.237333,18.6826667 166.177333,18.6826667 C165.128667,18.6826667 163.699333,18.2246667 163.070667,17.2906667 C162.993333,17.1766667 162.975333,17.062 162.975333,16.9673333 C162.975333,16.6426667 163.260667,16.3946667 163.566667,16.3946667 C163.718667,16.3946667 163.889333,16.452 164.023333,16.6426667 C164.023333,16.6426667 164.043333,16.6806667 164.118667,16.7573333 C164.632667,17.31 165.433333,17.5386667 166.177333,17.5386667 C167.606667,17.5386667 168.751333,16.3946667 168.751333,14.9653333 L168.751333,13.478 Z M61.4889333,20.2034 L58.6682667,20.2034 L58.6682667,27.3900667 L61.4889333,27.3900667 C63.4522667,27.3900667 65.0916,25.8274 65.0916,23.8060667 C65.0916,21.8040667 63.4716,20.2034 61.4889333,20.2034 Z M65.6642667,33.9287333 C65.4922667,33.9287333 65.3202667,33.8527333 65.2062667,33.6614 L61.9269333,28.5147333 C61.7942667,28.5340667 61.6416,28.5340667 61.4889333,28.5340667 L58.6682667,28.5340667 L58.6682667,33.3567333 C58.6682667,33.7380667 58.3816,33.9287333 58.0956,33.9287333 C57.8096,33.9287333 57.5236,33.7380667 57.5236,33.3567333 L57.5236,19.6314 C57.5236,19.3267333 57.7902667,19.0594 58.0956,19.0594 L61.4889333,19.0594 C64.1002667,19.0594 66.2356,21.1754 66.2356,23.7874 C66.2356,25.8460667 64.9396,27.5807333 63.1282667,28.2474 L66.1596,33.0514 C66.2356,33.1660667 66.2736,33.2614 66.2736,33.3760667 C66.2736,33.6814 65.9689333,33.9287333 65.6642667,33.9287333 Z M68.7493333,33.9286667 C68.4633333,33.9286667 68.1773333,33.738 68.1773333,33.3573333 L68.1773333,23.9206667 C68.1773333,23.5393333 68.4633333,23.3486667 68.7493333,23.3486667 C69.0353333,23.3486667 69.3213333,23.5393333 69.3213333,23.9206667 L69.3213333,33.3573333 C69.3213333,33.738 69.0353333,33.9286667 68.7493333,33.9286667 Z M68.7493333,19.288 C69.1693333,19.288 69.512,19.6313333 69.512,20.0513333 C69.512,20.4706667 69.1693333,20.8133333 68.7493333,20.8133333 C68.33,20.8133333 67.9866667,20.4706667 67.9866667,20.0513333 C67.9866667,19.6313333 68.33,19.288 68.7493333,19.288 Z M74.2382667,34.1194 C73.2662667,34.1194 71.9322667,33.6814 71.3409333,32.8040667 C71.2642667,32.6894 71.2262667,32.5754 71.2262667,32.4800667 C71.2262667,32.1560667 71.5129333,31.9080667 71.8176,31.9080667 C71.9896,31.9080667 72.1416,31.9654 72.2749333,32.1560667 L72.3702667,32.2514 C72.8469333,32.7467333 73.5522667,32.9754 74.2382667,32.9754 C75.7249333,32.9754 76.6409333,32.1180667 76.6409333,31.1074 C76.6409333,28.4007333 71.2836,29.3914 71.2836,25.8840667 C71.2836,24.0734 72.8656,23.1580667 74.3722667,23.1580667 C75.4396,23.1580667 76.6976,23.7300667 77.2889333,24.6640667 C77.3462667,24.7594 77.3842667,24.8740667 77.3842667,24.9880667 C77.3842667,25.2934 77.0796,25.5414 76.7929333,25.5414 C76.6209333,25.5414 76.4496,25.4647333 76.3162667,25.2740667 C76.3162667,25.2740667 76.2789333,25.2360667 76.2216,25.1407333 C75.7636,24.6260667 75.0962667,24.3014 74.3722667,24.3014 C73.2276,24.3014 72.4276,24.9500667 72.4276,25.8840667 C72.4276,28.2474 77.7836,27.3714 77.7836,31.1074 C77.7836,32.9567333 76.1262667,34.1194 74.2382667,34.1194 Z M86.3606667,33.9286667 C86.208,33.9286667 86.056,33.8713333 85.9233333,33.7 L82.3386667,28.9346667 L80.8333333,30.7073333 L80.8333333,33.3573333 C80.8333333,33.738 80.5466667,33.9286667 80.2606667,33.9286667 C79.9753333,33.9286667 79.6886667,33.738 79.6886667,33.3573333 L79.6886667,19.6313333 C79.6886667,19.25 79.9753333,19.0593333 80.2606667,19.0593333 C80.5466667,19.0593333 80.8333333,19.25 80.8333333,19.6313333 L80.8333333,28.9533333 L85.4466667,23.558 C85.5793333,23.406 85.732,23.33 85.866,23.33 C86.19,23.33 86.4753333,23.6153333 86.4753333,23.9206667 C86.4753333,24.0346667 86.418,24.168 86.3226667,24.2826667 L83.1013333,28.038 L86.8373333,33.014 C86.9333333,33.128 86.9713333,33.2426667 86.9713333,33.3573333 C86.9713333,33.6813333 86.6666667,33.9286667 86.3606667,33.9286667 Z" id="Fill-1" fill="#FFFFFF" sketch:type="MSShapeGroup"></path>
                <path d="M20.318,0.886 C20.318,0.398666667 20.7186667,0 21.2093333,0 L29.14,0 C35.0213333,0 39.7886667,4.69533333 39.7886667,10.5426667 C39.7886667,15.282 36.5806667,19.3133333 32.2586667,20.642 L39.7,32.292 C39.7886667,32.4693333 39.8333333,32.646 39.8333333,32.7793333 C39.8333333,33.2666667 39.388,33.6653333 38.898,33.6653333 C38.6306667,33.6653333 38.3633333,33.5766667 38.1853333,33.2666667 L30.7086667,21.544 C30.534,21.27 30.4413333,20.9526667 30.4413333,20.628 L30.4413333,20.628 C30.4413333,19.8686667 30.9453333,19.2073333 31.6733333,18.992 C35.338,17.91 38.0066667,14.5393333 38.0066667,10.5426667 C38.0066667,5.67 34.0413333,1.772 29.14,1.772 L22.1,1.772 L22.1,23.1226667 C22.1,29.1913333 17.1546667,34.108 11.05,34.108 C4.946,34.108 0,29.1913333 0,23.1226667 L0,0.886 C0,0.31 0.446,0 0.891333333,0 C1.33666667,0 1.78266667,0.31 1.78266667,0.886 L1.78266667,23.1226667 C1.78266667,28.2166667 5.926,32.336 11.05,32.336 C16.174,32.336 20.318,28.2166667 20.318,23.1226667 L20.318,0.886 Z" id="Fill-36" fill="#CC0000" sketch:type="MSShapeGroup"></path>
            </g>
        </g>
    </g>
</svg>