<?xml version="1.0" encoding="UTF-8" standalone="no"?>
<svg width="66px" height="56px" viewBox="0 0 66 56" version="1.1" xmlns="http://www.w3.org/2000/svg" xmlns:xlink="http://www.w3.org/1999/xlink" xmlns:sketch="http://www.bohemiancoding.com/sketch/ns">
    <!-- Generator: Sketch 3.5.2 (25235) - http://www.bohemiancoding.com/sketch -->
    <title>UR-symbol-white</title>
    <desc>Created with Sketch.</desc>
    <defs></defs>
    <g id="Page-1" stroke="none" stroke-width="1" fill="none" fill-rule="evenodd" sketch:type="MSPage">
        <g id="1-7" sketch:type="MSArtboardGroup" transform="translate(-848.000000, -2935.000000)" fill="#FFFFFF">
            <path d="M881.64482,2937.42353 C881.64482,2936.64054 882.288569,2936 883.076921,2936 L895.819079,2936 C905.268586,2936 912.928234,2943.54397 912.928234,2952.93885 C912.928234,2960.55351 907.773958,2967.03063 900.829824,2969.16539 L912.785774,2987.88338 C912.928234,2988.1683 913,2988.45215 913,2988.66638 C913,2989.44937 912.284485,2990.08991 911.497205,2990.08991 C911.067682,2990.08991 910.638159,2989.94745 910.352167,2989.44937 L898.339448,2970.61463 C898.058812,2970.17439 897.909925,2969.66454 897.909925,2969.1429 C897.909925,2967.92288 898.719699,2966.86032 899.889372,2966.51434 C905.777372,2964.7759 910.065105,2959.36027 910.065105,2952.93885 C910.065105,2945.10996 903.694025,2938.84706 895.819079,2938.84706 L884.50795,2938.84706 L884.50795,2973.15106 C884.50795,2982.90156 876.56231,2990.80114 866.753975,2990.80114 C856.946711,2990.80114 849,2982.90156 849,2973.15106 L849,2937.42353 C849,2936.49808 849.716586,2936 850.4321,2936 C851.147615,2936 851.864201,2936.49808 851.864201,2937.42353 L851.864201,2973.15106 C851.864201,2981.33556 858.521272,2987.95408 866.753975,2987.95408 C874.986678,2987.95408 881.64482,2981.33556 881.64482,2973.15106 L881.64482,2937.42353 Z" id="UR-symbol-white" sketch:type="MSShapeGroup" transform="translate(881.000000, 2963.400569) rotate(1.000000) translate(-881.000000, -2963.400569) "></path>
        </g>
    </g>
</svg>