<?xml version="1.0" encoding="UTF-8" standalone="no"?>
<svg width="64px" height="55px" viewBox="0 0 64 55" version="1.1" xmlns="http://www.w3.org/2000/svg" xmlns:xlink="http://www.w3.org/1999/xlink" xmlns:sketch="http://www.bohemiancoding.com/sketch/ns">
    <!-- Generator: Sketch 3.5.2 (25235) - http://www.bohemiancoding.com/sketch -->
    <title>UR-symbol-color</title>
    <desc>Created with Sketch.</desc>
    <defs></defs>
    <g id="Page-1" stroke="none" stroke-width="1" fill="none" fill-rule="evenodd" sketch:type="MSPage">
        <g id="1-7" sketch:type="MSArtboardGroup" transform="translate(-370.000000, -2936.000000)" fill="#CC0000">
            <path d="M402.64482,2937.42353 C402.64482,2936.64054 403.288569,2936 404.076921,2936 L416.819079,2936 C426.268586,2936 433.928234,2943.54397 433.928234,2952.93885 C433.928234,2960.55351 428.773958,2967.03063 421.829824,2969.16539 L433.785774,2987.88338 C433.928234,2988.1683 434,2988.45215 434,2988.66638 C434,2989.44937 433.284485,2990.08991 432.497205,2990.08991 C432.067682,2990.08991 431.638159,2989.94745 431.352167,2989.44937 L419.339448,2970.61463 C419.058812,2970.17439 418.909925,2969.66454 418.909925,2969.1429 L418.909925,2969.1429 C418.909925,2967.92288 419.719699,2966.86032 420.889372,2966.51434 C426.777372,2964.7759 431.065105,2959.36027 431.065105,2952.93885 C431.065105,2945.10996 424.694025,2938.84706 416.819079,2938.84706 L405.50795,2938.84706 L405.50795,2973.15106 C405.50795,2982.90156 397.56231,2990.80114 387.753975,2990.80114 C377.946711,2990.80114 370,2982.90156 370,2973.15106 L370,2937.42353 C370,2936.49808 370.716586,2936 371.4321,2936 C372.147615,2936 372.864201,2936.49808 372.864201,2937.42353 L372.864201,2973.15106 C372.864201,2981.33556 379.521272,2987.95408 387.753975,2987.95408 C395.986678,2987.95408 402.64482,2981.33556 402.64482,2973.15106 L402.64482,2937.42353 Z" id="UR-symbol-color" sketch:type="MSShapeGroup"></path>
        </g>
    </g>
</svg>