<?xml version="1.0" encoding="UTF-8" standalone="no"?>
<svg width="64px" height="55px" viewBox="0 0 64 55" version="1.1" xmlns="http://www.w3.org/2000/svg" xmlns:xlink="http://www.w3.org/1999/xlink" xmlns:sketch="http://www.bohemiancoding.com/sketch/ns">
    <!-- Generator: Sketch 3.5.2 (25235) - http://www.bohemiancoding.com/sketch -->
    <title>UR-symbol-black</title>
    <desc>Created with Sketch.</desc>
    <defs></defs>
    <g id="Page-1" stroke="none" stroke-width="1" fill="none" fill-rule="evenodd" sketch:type="MSPage">
        <g id="1-7" sketch:type="MSArtboardGroup" transform="translate(-610.000000, -2936.000000)" fill="#222222">
            <path d="M642.64482,2937.42353 C642.64482,2936.64054 643.288569,2936 644.076921,2936 L656.819079,2936 C666.268586,2936 673.928234,2943.54397 673.928234,2952.93885 C673.928234,2960.55351 668.773958,2967.03063 661.829824,2969.16539 L673.785774,2987.88338 C673.928234,2988.1683 674,2988.45215 674,2988.66638 C674,2989.44937 673.284485,2990.08991 672.497205,2990.08991 C672.067682,2990.08991 671.638159,2989.94745 671.352167,2989.44937 L659.339448,2970.61463 C659.058812,2970.17439 658.909925,2969.66454 658.909925,2969.1429 L658.909925,2969.1429 C658.909925,2967.92288 659.719699,2966.86032 660.889372,2966.51434 C666.777372,2964.7759 671.065105,2959.36027 671.065105,2952.93885 C671.065105,2945.10996 664.694025,2938.84706 656.819079,2938.84706 L645.50795,2938.84706 L645.50795,2973.15106 C645.50795,2982.90156 637.56231,2990.80114 627.753975,2990.80114 C617.946711,2990.80114 610,2982.90156 610,2973.15106 L610,2937.42353 C610,2936.49808 610.716586,2936 611.4321,2936 C612.147615,2936 612.864201,2936.49808 612.864201,2937.42353 L612.864201,2973.15106 C612.864201,2981.33556 619.521272,2987.95408 627.753975,2987.95408 C635.986678,2987.95408 642.64482,2981.33556 642.64482,2973.15106 L642.64482,2937.42353 Z" id="UR-symbol-black" sketch:type="MSShapeGroup"></path>
        </g>
    </g>
</svg>